<?xml version="1.0" encoding="UTF-8"?>
<svg xmlns="http://www.w3.org/2000/svg" version="1.1" viewBox="0 0 612 792">
  <defs>
    <style>
      .cls-1 {
        fill: #76539e;
      }

      .cls-2 {
        fill: #bca3ce;
      }
    </style>
  </defs>
  <!-- Generator: Adobe Illustrator 28.7.1, SVG Export Plug-In . SVG Version: 1.2.0 Build 142)  -->
  <g>
    <g id="Layer_1">
      <path class="cls-1" d="M319.8,391.26c-.04.31-.34,3.07,1.55,5.19,1.88,2.1,4.33,1.78,4.65,1.73.15-.02,2.22-.37,3.61-2.31.63-.88.72-1.53,1.03-2.31,1.25-3.16,5.04-5.92,8.26-5.19.33.08,2.22.51,3.1,2.31,1.03,2.11.33,5.39-1.55,6.34-1.83.92-4.2-.66-4.13-1.15.07-.49,2.49.11,3.1-1.15.44-.92-.17-2.62-1.03-2.88-1.05-.32-2.34,1.56-3.61,3.46-2.2,3.28-1.92,4.3-3.1,5.77-2.42,3-8.06,4.19-11.87,1.15-2.82-2.25-3.46-5.87-3.61-6.92"/>
      <path class="cls-1" d="M305.06,400.49c3.28-5.28,3.56-7.52,2.77-8.4-1.35-1.51-5.82.96-6.93-.7-.64-.95.05-2.64.69-4.2.66-1.58,1.11-1.81,2.08-3.5,1.23-2.14,2.3-4.02,2.08-6.3-.06-.58-.34-2.65-2.08-4.2-2.24-1.99-5.07-1.49-5.55-1.4-.57.11-3.12.61-4.16,2.8-.11.24-1.06,2.3,0,3.5,1.26,1.43,4.16.3,4.16,0,0-.18-1.04-.06-1.39-.7-.33-.61.17-1.57.69-2.1.69-.7,1.81-1,2.77-.7,1.27.4,1.96,1.76,2.08,2.8.22,1.88-1.39,3.09-3.47,5.6-2.87,3.47-5.13,6.2-4.85,9.1.27,2.79,2.88,5.77,6.24,6.3,2.8.44,4.98-1,5.55-1.4"/>
      <path class="cls-2" d="M302.85,396.05c2.34-2.27,2.84-5.41,3.52-7.55,2.66-8.38.89-10.05,2.93-13.88,2.31-4.34,7.04-6.8,11.27-7.09,6.85-.47,11.35,4.8,12.99,6.72,2.02,2.36,5.76,6.75,4.79,12.03-.93,5.12-5.94,9.23-8.68,8.2-1.93-.73-1.54-3.66-3.67-4.56-2.49-1.04-6.77,1.39-7.76,5.37-.87,3.52,1.27,6.54,1.55,6.92,1.31,1.79,2.95,2.42,4.13,2.88,2.53.98,4.59.7,7.43.31,3.07-.42,4.36-1.19,5.14-1.81.14-.11,2.18-1.74,1.88-2.54-.12-.31-.59-.5-.88-.36-.45.22-.38,1.16-.5,1.16-.18,0-.96-1.82-.04-2.88.73-.84,1.95-.56,2.58-.04,1.36,1.12.61,3.86.57,4.03-.3,1.06-.92,1.95-2.03,2.91-1.84,1.59-3.89,2.4-6.68,2.99-3.22.68-5.33,1.13-8.25.7-1.68-.25-7.72-1.13-11.43-6.17-1.53-2.08-1.68-3.54-3.15-3.99-1.94-.59-3.06,1.8-6.67,3.56-1.43.7-4.83,2.36-8.25,1.28-4.77-1.51-6.65-7.43-6.81-7.97-1.39-4.61-.72-11.13,3.44-14.47,2.66-2.14,6.33-2.63,9.28-1.3.89.4,3.66,1.66,4.19,4.55.43,2.37-.73,5.39-2.51,5.8-1.56.36-3.24-1.35-3.12-1.68.12-.33,2.01.73,2.58-.04.55-.73-.29-2.85-1.6-4.01-.2-.18-1.41-1.22-3.11-1.11-2.3.15-3.66,2.28-4.09,2.95-2.13,3.31-1.03,7.21-.94,7.51.26.86.88,2.93,2.63,4,2.41,1.47,5.29.03,6.7-.68.53-.27,1.53-.78,2.56-1.77Z"/>
    </g>
  </g>
</svg>