<?xml version="1.0" encoding="UTF-8"?>
<svg xmlns="http://www.w3.org/2000/svg" version="1.1" viewBox="0 0 710 353">
  <defs>
    <style>
      .cls-1 {
        fill: #090c0c;
      }
    </style>
  </defs>
  <!-- Generator: Adobe Illustrator 28.7.1, SVG Export Plug-In . SVG Version: 1.2.0 Build 142)  -->
  <g>
    <g id="Layer_1">
      <path class="cls-1" d="M87.42,118.28c-14.21-4.17-28.35,7.01-37.56,14.29-21.96,17.36-28.99,39.65-30.23,43.8-1.17,3.9-4.64,16.51-3.24,33.09.63,7.46,2.81,33.15,22.54,53.08,15.27,15.43,40.59,26.91,48.49,19.73,5.16-4.69-.85-13.93-3.41-46.27-2.33-29.33,1.57-34.86,4.78-37.43,6.46-5.16,18.89-5.29,24.59.68,6.29,6.59,1.81,17.74-9.56,62.61-7.42,29.28-8.38,35.85-4.82,43.64,5.42,11.86,18.74,20.91,32.14,23.05,3.57.57,9.25,1.48,15.71-.68,7.33-2.45,15-8.63,23.9-29.26,10.02-23.22,12.36-43.34,12.98-49,3.94-36.28-1.64-41.75.49-83.85,1.04-20.63,1.77-34.97,5.38-54.82,5.75-31.6,13.04-45.52,6.43-51.2-7.1-6.09-24.07,2.32-40.3,11.57-21.02,11.98-38.81,22.11-40.98,38.79-.24,1.86,1.2,8.72,4.1,22.46,4.65,22.08,7.08,28.39,3.41,36.07-.63,1.33-4.39,9.2-12.29,10.89-.66.14-7.62,1.53-11.32-2.37-2.77-2.92-2.14-7.15.39-21.82,3.24-18.77,3.99-22.23,1.96-26.5-3.54-7.44-12.07-10.11-13.56-10.55Z"/>
      <path class="cls-1" d="M230.76,62.53c-8.04-1.09-15.26,6.92-17.47,9.37-15.36,17.05-11.12,39.93-9.66,94.24,1.73,64.58-2.98,80.54-6.33,88.3-4.41,10.18-7.27,20.97-11.55,31.21-3.48,8.33-5.07,11.31-4.24,15.83,1.93,10.5,15.14,19.46,27.54,19,2.21-.08,8.04-.6,13.24-4.22,4.71-3.28,15.92-14.01,10.06-74.42-3.88-40.03-10.89-56.85.53-74.94.8-1.26,8.43-13.14,13.77-11.61,8.82,2.53,7.2,40.42,2.65,67.55-1.83,10.91-8.92,48.54-12.18,81.8-.3,3.09-.93,10.46,3.18,17.42,6.76,11.46,24.11,17.99,35.49,12.67,8.37-3.91,11.92-13.47,14.83-26.92,4.47-20.61,8.69-56.09-4.31-117.17-2.31-10.84-6.76-29.99-14.82-53.31-2.52-7.28-8.9-21.21-21.65-49.08-7.26-15.86-11.5-24.7-19.08-25.73Z"/>
      <path class="cls-1" d="M276.04,18c-6.19.08-13.2,3.52-17.7,9.1-.87,1.08-4.14,5.33-5.14,11.94-1.61,10.68,4.1,18.29,10.85,30.71,2.8,5.16,7.62,16.76,17.24,39.96,6.06,14.62,9.1,21.93,12.44,32.27,5.41,16.74,8.03,29.99,10.27,41.52,3.51,18.06,5.3,27.08,5.7,37.89.24,6.4-1.05,19.86-3.63,46.79-.73,7.57-1.83,18.78-1.12,33.73.82,17.1,3.15,20.76,4.75,22.73,6.97,8.57,19.93,8.55,33.27,8.53,6.3-.01,8.13-.59,16.74-1.8,2.51-.35,7.18-.97,16.54-1.99,7.84-.85,12.67-1.38,16.34-1.58,21.11-1.13,26.35,7.46,42.03,4.49,4.05-.77,11.08-2.1,17-7.61,12.85-11.95,9.89-33.73,5.26-45.78-1.94-5.05-6.57-17.11-17.6-20.93-5.27-1.83-10.09-1.16-14.36-.57-9.81,1.35-11.82,4.92-22.63,8.48-5.61,1.85-14.34,4.73-24.6,3.2-10.74-1.6-18.03-7.26-19.99-8.81-3.12-2.48-15.02-12.52-19.53-48.66-2.08-16.63-.81-23.11-1.15-39.5-.64-30.95-6.13-53.86-10.92-73.85-7.46-31.15-15.25-47.84-25.28-61.82-9.87-13.76-17.33-18.54-24.79-18.45Z"/>
      <path class="cls-1" d="M455.97,36.41c-18.69-8.45-44.09-6.52-65.12-7.39-36.56-1.52-48.95-11.11-61-.82-7.26,6.2-8.95,15.04-9.45,17.62-3.84,20,13.28,29.88,25.11,55.48,18.29,39.55,13.69,87.08,12.36,97.73-1.17,9.47-5.61,38.96,4.94,53.36,1.23,1.68,4.58,6.26,10.71,8.73,8.14,3.29,16,.77,18.32,0,6.7-2.25,7.38-4.98,15.91-10.04,1.2-.71,8.18-4.79,16.12-6.55,2.58-.57,20.8-4.34,31.32,5.12,2.25,2.02,5,5.41,9.24,31.21,3.89,23.63,2.87,28.63,8.28,34.03,9.16,9.15,24.19,6.93,24.9,6.82,2.15-.35,10.58-1.84,16.96-8.72,6.73-7.26,4.45-13.26,9.03-38.98.9-5.04,2.61-13.18,6.03-29.46,3.31-15.75,3.84-17.43,3.59-21.49-.9-14.8-9.12-25.22-12.32-29.16-3.12-3.85-10.59-12.82-23.62-17.39-22.99-8.07-44.22,4.23-45.7,5.12-7.96,4.78-8.71,8.33-22.08,16.37-12.9,7.76-17.9,7.88-21.52,6.77-6.75-2.07-9.93-8.79-10.91-10.87-4.05-8.55-2.85-19.66,3.45-26.89,5.45-6.26,12.9-7.54,18.95-8.58,9.81-1.68,14.33.62,23.55,1.14,3.98.23,23.87,1.36,35.03-8.01,17.45-14.65,11.56-53.33,1.72-56.07-5.99-1.67-9.38,11.11-28.71,21.74-4.91,2.7-26.05,14.32-36.75,6.29-2.21-1.66-1.98-2.65-4.28-10.83-1.2-4.25-1.26-2.52-4.9-15.49-3.28-11.67-2.58-13.65-1.72-14.88,1.9-2.71,6.01-3.82,9.23-3.17,4.9.99,5.79,5.62,10.29,9.47,7.71,6.58,19.13,4.97,21.82,4.58,1.43-.21,19.79-3.22,25.84-20.03,4.29-11.93.12-24.49-6.89-31.47-3.08-3.07-6.23-4.57-7.73-5.25Z"/>
      <path class="cls-1" d="M563.11,71.95c-8.57-7.38-15.16-5.55-37.09-10.37-13.01-2.86-16.34-4.75-21.85-2.56-7.17,2.85-10.62,9.66-11.57,11.53-9.53,18.82,6.41,45.03,12,54.21,4.86,7.99,22.44,35.97,56.12,46.1,9.74,2.93,23.2,6.98,35.56.85,11.78-5.84,15.51-17.43,19.71-16.22,4.12,1.18,4.21,13.41,2.91,34.2-2.73,43.64-8.4,74.1-24.33,90.87-.96,1.02-4.53,4.68-6,3.84-3-1.7,7.9-19.21,10.28-43.97,1.06-11.04,2-22.38-4.28-34.15-1.57-2.95-8.75-16.38-23.13-20.06-7.72-1.98-15.02-.51-17.56,0-5.52,1.11-8.28,1.66-9.68,3.61-4.05,5.65,7.23,15.05,13.35,33.92,1.3,4.01,5.19,16.42,3.48,31.12-1.82,15.69-8.08,17.18-11.49,34.06-2.06,10.16-5.47,27,3.34,37.24,9.98,11.62,30.5,8.74,45.39,6.65,22.59-3.17,38.24-12.77,41.68-14.94,30.02-18.96,41.44-48.21,46.43-61.54,4.58-12.24,13.96-38.12,7.34-70.5-8.15-39.85-35.24-66.07-57.41-79.14-4.6-2.71-35.13-20.72-47.76-10.34-10.49,8.62-2.27,31.59-10.98,34.95-4.76,1.83-13.05-2.76-15.87-9.22-5.81-13.3,14.43-27.98,7.86-42.66-1.41-3.14-3.4-4.86-6.44-7.48Z"/>
    </g>
  </g>
</svg>