<?xml version="1.0" encoding="UTF-8"?>
<svg xmlns="http://www.w3.org/2000/svg" version="1.1" viewBox="0 0 210 207">
  <defs>
    <style>
      .cls-1 {
        fill: #3d92aa;
      }

      .cls-2 {
        fill: #090c0c;
      }

      .cls-3 {
        fill: #dac3da;
      }

      .cls-4, .cls-5 {
        fill: #f3db6a;
      }

      .cls-5 {
        stroke: #231f20;
        stroke-miterlimit: 10;
      }

      .cls-6 {
        fill: #f7983e;
      }

      .cls-7 {
        display: none;
      }

      .cls-8 {
        fill: #f7a690;
      }
    </style>
  </defs>
  <!-- Generator: Adobe Illustrator 28.7.1, SVG Export Plug-In . SVG Version: 1.2.0 Build 142)  -->
  <g>
    <g id="Layer_1" class="cls-7">
      <rect class="cls-1" x="45.48" y="106.82" width="71.89" height="24.47" rx="4.13" ry="4.13" transform="translate(102.92 -23.57) rotate(42.94)"/>
      <path class="cls-1" d="M119.83,160.33c-6.58-3.46-13.16-6.93-19.74-10.39l12.54-13.93c3.92,6.24,7.83,12.47,11.75,18.71-1.51,1.87-3.03,3.74-4.54,5.61Z"/>
      <path class="cls-1" d="M50.32,121.88"/>
      <path class="cls-5" d="M112.53,135.52c-3.94,4.55-7.87,9.1-11.81,13.65"/>
      <path class="cls-5" d="M51.72,107.42c5.07-5.95,10.14-11.9,15.22-17.85"/>
      <ellipse class="cls-2" cx="83.37" cy="120.87" rx="6.53" ry="14.44" transform="translate(-61.91 99.57) rotate(-47.06)"/>
      <path class="cls-2" d="M109.13,128.12c-.52.12-1.24.37-1.85.95-.91.87-.74,1.7-1.73,3.31-.53.87-.88,1.44-1.59,1.98-1.39,1.07-2.4.71-3.19,1.69-.44.55-.15.7-.68,2.1-.41,1.09-.7,1.86-1.39,2.51-1,.93-1.65.52-3.1,1.59-.32.23-1.16.87-1.76,1.9-.57.97-.92,2.28-.92,2.28,0,0-3.19-2.99-3.19-2.99,0,0,.29-.9.58-1.37.54-.89,1.39-.81,2.49-1.63.67-.5,1.03-1.1,1.76-2.3,1.37-2.25.86-2.48,1.68-3.4,1.45-1.61,3.12-.97,4.4-2.57.18-.23.3-.43.39-.63.47-1.1.62-2,.65-2.22.1-.78,1.02-1.97,4.74-3.73"/>
      <path class="cls-2" d="M72.94,94.54c-.52.12-1.24.37-1.85.95-.91.87-.74,1.7-1.73,3.31-.53.87-.88,1.44-1.59,1.98-1.39,1.07-2.4.71-3.19,1.69-.44.55-.15.7-.68,2.1-.41,1.09-.7,1.86-1.39,2.51-1,.93-1.65.52-3.1,1.59-.32.23-1.16.87-1.76,1.9-.57.97-.92,2.28-.92,2.28,0,0-3.19-2.99-3.19-2.99,0,0,.29-.9.58-1.37.54-.89,1.39-.81,2.49-1.63.67-.5,1.03-1.1,1.76-2.3,1.37-2.25.86-2.48,1.68-3.4,1.45-1.61,3.12-.97,4.4-2.57.18-.23.3-.43.39-.63.47-1.1.62-2,.65-2.22.1-.78,1.02-1.97,4.74-3.73"/>
      <rect class="cls-4" x="65.83" y="89.2" width="71.89" height="24.47" rx="4.13" ry="4.13" transform="translate(96.37 -42.15) rotate(42.94)"/>
      <path class="cls-4" d="M140.18,142.71c-6.58-3.46-13.16-6.93-19.74-10.39l12.54-13.93c3.92,6.24,7.83,12.47,11.75,18.71-1.51,1.87-3.03,3.74-4.54,5.61Z"/>
      <path class="cls-1" d="M7.28,125.33"/>
      <path class="cls-5" d="M132.88,117.9c-3.94,4.55-7.87,9.1-11.81,13.65"/>
      <path class="cls-5" d="M72.07,89.8c5.07-5.95,10.14-11.9,15.22-17.85"/>
      <ellipse class="cls-2" cx="103.72" cy="103.25" rx="6.53" ry="14.44" transform="translate(-42.52 108.84) rotate(-47.06)"/>
      <path class="cls-2" d="M129.47,110.5c-.52.12-1.24.37-1.85.95-.91.87-.74,1.7-1.73,3.31-.53.87-.88,1.44-1.59,1.98-1.39,1.07-2.4.71-3.19,1.69-.44.55-.15.7-.68,2.1-.41,1.09-.7,1.86-1.39,2.51-1,.93-1.65.52-3.1,1.59-.32.23-1.16.87-1.76,1.9-.57.97-.92,2.28-.92,2.28,0,0-3.19-2.99-3.19-2.99,0,0,.29-.9.58-1.37.54-.89,1.39-.81,2.49-1.63.67-.5,1.03-1.1,1.76-2.3,1.37-2.25.86-2.48,1.68-3.4,1.45-1.61,3.12-.97,4.4-2.57.18-.23.3-.43.39-.63.47-1.1.62-2,.65-2.22.1-.78,1.02-1.97,4.74-3.73"/>
      <path class="cls-2" d="M93.29,76.92c-.52.12-1.24.37-1.85.95-.91.87-.74,1.7-1.73,3.31-.53.87-.88,1.44-1.59,1.98-1.39,1.07-2.4.71-3.19,1.69-.44.55-.15.7-.68,2.1-.41,1.09-.7,1.86-1.39,2.51-1,.93-1.65.52-3.1,1.59-.32.23-1.16.87-1.76,1.9-.57.97-.92,2.28-.92,2.28,0,0-3.19-2.99-3.19-2.99,0,0,.29-.9.58-1.37.54-.89,1.39-.81,2.49-1.63.67-.5,1.03-1.1,1.76-2.3,1.37-2.25.86-2.48,1.68-3.4,1.45-1.61,3.12-.97,4.4-2.57.18-.23.3-.43.39-.63.47-1.1.62-2,.65-2.22.1-.78,1.02-1.97,4.74-3.73"/>
      <rect class="cls-8" x="30.23" y="129.42" width="71.89" height="24.47" rx="4.13" ry="4.13" transform="translate(114.23 -7.13) rotate(42.94)"/>
      <path class="cls-8" d="M104.58,182.93c-6.58-3.46-13.16-6.93-19.74-10.39l12.54-13.93c3.92,6.24,7.83,12.47,11.75,18.71-1.51,1.87-3.03,3.74-4.54,5.61Z"/>
      <path class="cls-5" d="M97.28,158.12c-3.94,4.55-7.87,9.1-11.81,13.65"/>
      <path class="cls-5" d="M36.47,130.02c5.07-5.95,10.14-11.9,15.22-17.85"/>
      <ellipse class="cls-2" cx="68.12" cy="143.47" rx="6.53" ry="14.44" transform="translate(-83.31 95.61) rotate(-47.06)"/>
      <path class="cls-2" d="M93.88,150.72c-.52.12-1.24.37-1.85.95-.91.87-.74,1.7-1.73,3.31-.53.87-.88,1.44-1.59,1.98-1.39,1.07-2.4.71-3.19,1.69-.44.55-.15.7-.68,2.1-.41,1.09-.7,1.86-1.39,2.51-1,.93-1.65.52-3.1,1.59-.32.23-1.16.87-1.76,1.9-.57.97-.92,2.28-.92,2.28,0,0-3.19-2.99-3.19-2.99,0,0,.29-.9.58-1.37.54-.89,1.39-.81,2.49-1.63.67-.5,1.03-1.1,1.76-2.3,1.37-2.25.86-2.48,1.68-3.4,1.45-1.61,3.12-.97,4.4-2.57.18-.23.3-.43.39-.63.47-1.1.62-2,.65-2.22.1-.78,1.02-1.97,4.74-3.73"/>
      <path class="cls-2" d="M57.69,117.14c-.52.12-1.24.37-1.85.95-.91.87-.74,1.7-1.73,3.31-.53.87-.88,1.44-1.59,1.98-1.39,1.07-2.4.71-3.19,1.69-.44.55-.15.7-.68,2.1-.41,1.09-.7,1.86-1.39,2.51-1,.93-1.65.52-3.1,1.59-.32.23-1.16.87-1.76,1.9-.57.97-.92,2.28-.92,2.28,0,0-3.19-2.99-3.19-2.99,0,0,.29-.9.58-1.37.54-.89,1.39-.81,2.49-1.63.67-.5,1.03-1.1,1.76-2.3,1.37-2.25.86-2.48,1.68-3.4,1.45-1.61,3.12-.97,4.4-2.57.18-.23.3-.43.39-.63.47-1.1.62-2,.65-2.22.1-.78,1.02-1.97,4.74-3.73"/>
      <rect class="cls-4" x="14.46" y="151.04" width="71.89" height="24.47" rx="4.13" ry="4.13" transform="translate(124.73 9.41) rotate(42.94)"/>
      <path class="cls-4" d="M88.81,204.55c-6.58-3.46-13.16-6.93-19.74-10.39l12.54-13.93c3.92,6.24,7.83,12.47,11.75,18.71-1.51,1.87-3.03,3.74-4.54,5.61Z"/>
      <path class="cls-5" d="M81.5,179.74c-3.94,4.55-7.87,9.1-11.81,13.65"/>
      <path class="cls-5" d="M20.69,151.64c5.07-5.95,10.14-11.9,15.22-17.85"/>
      <ellipse class="cls-2" cx="52.34" cy="165.09" rx="6.53" ry="14.44" transform="translate(-104.17 90.95) rotate(-47.06)"/>
      <path class="cls-2" d="M78.1,172.34c-.52.12-1.24.37-1.85.95-.91.87-.74,1.7-1.73,3.31-.53.87-.88,1.44-1.59,1.98-1.39,1.07-2.4.71-3.19,1.69-.44.55-.15.7-.68,2.1-.41,1.09-.7,1.86-1.39,2.51-1,.93-1.65.52-3.1,1.59-.32.23-1.16.87-1.76,1.9-.57.97-.92,2.28-.92,2.28,0,0-3.19-2.99-3.19-2.99,0,0,.29-.9.58-1.37.54-.89,1.39-.81,2.49-1.63.67-.5,1.03-1.1,1.76-2.3,1.37-2.25.86-2.48,1.68-3.4,1.45-1.61,3.12-.97,4.4-2.57.18-.23.3-.43.39-.63.47-1.1.62-2,.65-2.22.1-.78,1.02-1.97,4.74-3.73"/>
      <path class="cls-2" d="M41.91,138.77c-.52.12-1.24.37-1.85.95-.91.87-.74,1.7-1.73,3.31-.53.87-.88,1.44-1.59,1.98-1.39,1.07-2.4.71-3.19,1.69-.44.55-.15.7-.68,2.1-.41,1.09-.7,1.86-1.39,2.51-1,.93-1.65.52-3.1,1.59-.32.23-1.16.87-1.76,1.9-.57.97-.92,2.28-.92,2.28,0,0-3.19-2.99-3.19-2.99,0,0,.29-.9.58-1.37.54-.89,1.39-.81,2.49-1.63.67-.5,1.03-1.1,1.76-2.3,1.37-2.25.86-2.48,1.68-3.4,1.45-1.61,3.12-.97,4.4-2.57.18-.23.3-.43.39-.63.47-1.1.62-2,.65-2.22.1-.78,1.02-1.97,4.74-3.73"/>
      <rect class="cls-6" x="88.33" y="69.08" width="71.89" height="24.47" rx="4.13" ry="4.13" transform="translate(102.71 -65.63) rotate(48.45)"/>
      <path class="cls-6" d="M158.54,126.08c-6.22-4.08-12.43-8.16-18.65-12.24l13.82-12.66c3.3,6.58,6.6,13.17,9.9,19.75-1.69,1.72-3.37,3.43-5.06,5.15Z"/>
      <path class="cls-5" d="M153.65,100.69c-4.36,4.15-8.71,8.3-13.07,12.45"/>
      <ellipse class="cls-2" cx="126.04" cy="83.3" rx="6.53" ry="14.44" transform="translate(-23.54 104.54) rotate(-41.55)"/>
      <path class="cls-2" d="M150.97,92.99c-.53.07-1.27.25-1.93.77-.99.78-.9,1.62-2.04,3.12-.61.81-1.02,1.34-1.77,1.82-1.48.94-2.46.47-3.33,1.37-.49.5-.22.68-.87,2.03-.51,1.05-.87,1.79-1.63,2.37-1.08.83-1.69.36-3.24,1.28-.34.2-1.24.75-1.94,1.72-.66.91-1.13,2.18-1.13,2.18,0,0-2.89-3.28-2.89-3.28,0,0,.37-.86.7-1.31.62-.83,1.46-.68,2.63-1.38.71-.43,1.13-.99,1.98-2.12,1.58-2.11,1.09-2.39,2-3.22,1.6-1.46,3.2-.66,4.62-2.13.2-.21.34-.4.44-.59.57-1.05.81-1.94.86-2.15.17-.77,1.2-1.86,5.08-3.26"/>
      <path class="cls-2" d="M118.19,56.09c-.53.07-1.27.25-1.93.77-.99.78-.9,1.62-2.04,3.12-.61.81-1.02,1.34-1.77,1.82-1.48.94-2.46.47-3.33,1.37-.49.5-.22.68-.87,2.03-.51,1.05-.87,1.79-1.63,2.37-1.08.83-1.69.36-3.24,1.28-.34.2-1.24.75-1.94,1.72-.66.91-1.13,2.18-1.13,2.18,0,0-2.89-3.28-2.89-3.28,0,0,.37-.86.7-1.31.62-.83,1.46-.68,2.63-1.38.71-.43,1.13-.99,1.98-2.12,1.58-2.11,1.09-2.39,2-3.22,1.6-1.46,3.2-.66,4.62-2.13.2-.21.34-.4.44-.59.57-1.05.81-1.94.86-2.15.17-.77,1.2-1.86,5.08-3.26"/>
      <rect class="cls-8" x="112.56" y="52.37" width="71.89" height="24.47" rx="4.13" ry="4.13" transform="translate(109.55 -92.58) rotate(52.57)"/>
      <path class="cls-8" d="M179.46,111.72c-5.91-4.52-11.82-9.03-17.73-13.55l14.69-11.63c2.82,6.8,5.64,13.61,8.45,20.41-1.81,1.59-3.61,3.18-5.42,4.77Z"/>
      <path class="cls-5" d="M176.42,86.05c-4.64,3.83-9.28,7.65-13.93,11.48"/>
      <ellipse class="cls-2" cx="150.12" cy="66.72" rx="6.53" ry="14.44" transform="translate(-9.64 104.98) rotate(-37.43)"/>
      <path class="cls-2" d="M174.3,78.18c-.53.03-1.28.15-1.98.63-1.04.7-1.01,1.55-2.26,2.97-.67.76-1.11,1.27-1.9,1.69-1.55.83-2.49.3-3.42,1.13-.52.47-.27.67-1.02,1.96-.59,1.01-1,1.72-1.79,2.25-1.14.75-1.71.24-3.32,1.05-.35.18-1.29.66-2.06,1.58-.72.86-1.29,2.09-1.29,2.09,0,0-2.64-3.48-2.64-3.48,0,0,.44-.83.8-1.25.68-.79,1.51-.57,2.73-1.19.74-.38,1.2-.91,2.12-1.97,1.73-1.99,1.26-2.31,2.23-3.07,1.7-1.34,3.24-.43,4.76-1.8.22-.19.37-.38.49-.56.65-1.01.95-1.87,1.01-2.08.23-.75,1.33-1.77,5.3-2.88"/>
      <path class="cls-2" d="M144.24,39.02c-.53.03-1.28.15-1.98.63-1.04.7-1.01,1.55-2.26,2.97-.67.76-1.11,1.27-1.9,1.69-1.55.83-2.49.3-3.42,1.13-.52.47-.27.67-1.02,1.96-.59,1.01-1,1.72-1.79,2.25-1.14.75-1.71.24-3.32,1.05-.35.18-1.29.66-2.06,1.58-.72.86-1.29,2.09-1.29,2.09,0,0-2.64-3.48-2.64-3.48,0,0,.44-.83.8-1.25.68-.79,1.51-.57,2.73-1.19.74-.38,1.2-.91,2.12-1.97,1.73-1.99,1.26-2.31,2.23-3.07,1.7-1.34,3.24-.43,4.76-1.8.22-.19.37-.38.49-.56.65-1.01.95-1.87,1.01-2.08.23-.75,1.33-1.77,5.3-2.88"/>
      <rect class="cls-1" x="148.94" y="33.27" width="71.89" height="24.47" rx="4.13" ry="4.13" transform="translate(168.72 -144.2) rotate(71.3)"/>
      <path class="cls-1" d="M199.07,100.07c-4.15-6.17-8.29-12.35-12.44-18.52l17.65-6.3c.48,7.35.97,14.69,1.45,22.04-2.22.93-4.44,1.85-6.66,2.78Z"/>
      <path class="cls-5" d="M204.43,74.77c-5.62,2.13-11.25,4.27-16.87,6.4"/>
      <ellipse class="cls-2" cx="185.73" cy="48.03" rx="6.53" ry="14.44" transform="translate(-5.59 62.08) rotate(-18.7)"/>
      <path class="cls-2" d="M204.95,66.64c-.51-.14-1.26-.26-2.08-.04-1.21.33-1.46,1.14-3.09,2.09-.88.51-1.46.84-2.34.99-1.73.29-2.45-.52-3.6-.03-.64.27-.47.55-1.59,1.53-.88.77-1.5,1.31-2.42,1.55-1.32.35-1.7-.33-3.48-.08-.39.05-1.43.21-2.45.83-.96.58-1.89,1.57-1.89,1.57,0,0-1.39-4.15-1.39-4.15,0,0,.68-.65,1.16-.93.9-.53,1.61-.05,2.96-.25.82-.12,1.43-.47,2.64-1.18,2.27-1.33,1.93-1.78,3.09-2.19,2.04-.72,3.21.63,5.09-.17.27-.11.47-.24.64-.37.94-.74,1.5-1.47,1.62-1.65.46-.64,1.83-1.25,5.94-1.03"/>
      <path class="cls-2" d="M189.06,19.91c-.51-.14-1.26-.26-2.08-.04-1.21.33-1.46,1.14-3.09,2.09-.88.51-1.46.84-2.34.99-1.73.29-2.45-.52-3.6-.03-.64.27-.47.55-1.59,1.53-.88.77-1.5,1.31-2.42,1.55-1.32.35-1.7-.33-3.48-.08-.39.05-1.43.21-2.45.83-.96.58-1.89,1.57-1.89,1.57,0,0-1.39-4.15-1.39-4.15,0,0,.68-.65,1.16-.93.9-.53,1.61-.05,2.96-.25.82-.12,1.43-.47,2.64-1.18,2.27-1.33,1.93-1.78,3.09-2.19,2.04-.72,3.21.63,5.09-.17.27-.11.47-.24.64-.37.94-.74,1.5-1.47,1.62-1.65.46-.64,1.83-1.25,5.94-1.03"/>
    </g>
    <g id="Layer_2" class="cls-7">
      <path class="cls-3" d="M32.8,59.69"/>
      <path class="cls-1" d="M73.33,130.7l46.24,46.98c1.66,1.68,4.27,1.61,5.83-.17l11.13-12.64c1.57-1.78,1.49-4.58-.17-6.27l-46.24-46.98c-1.66-1.68-4.27-1.61-5.83.17l-11.13,12.64c-1.57,1.78-1.49,4.58.17,6.27Z"/>
      <path class="cls-1" d="M61.21,106.29c3.88,6.82,7.76,13.63,11.64,20.45,4.36-4.79,8.72-9.58,13.09-14.37-6.47-3.77-12.94-7.55-19.42-11.32-1.77,1.75-3.54,3.5-5.31,5.24Z"/>
      <path class="cls-1" d="M104.04,178.17"/>
      <path class="cls-5" d="M86.43,112.44c-4.28,4.52-8.57,9.05-12.85,13.57"/>
      <path class="cls-5" d="M118.37,175.69c5.61-5.84,11.22-11.67,16.82-17.51"/>
      <path class="cls-2" d="M98.43,147.78c5.79,5.89,12.5,8.38,14.98,5.57s-.21-9.86-6.01-15.75c-5.79-5.89-12.5-8.38-14.98-5.57-2.48,2.81.21,9.86,6.01,15.75Z"/>
      <path class="cls-2" d="M94.03,115.59c-.08.56-.29,1.35-.83,2.04-.81,1.03-1.65.91-3.19,2.07-.83.63-1.38,1.04-1.88,1.84-.98,1.56-.55,2.62-1.48,3.53-.52.51-.69.21-2.05.87-1.07.51-1.81.87-2.42,1.66-.86,1.13-.41,1.8-1.38,3.43-.21.36-.79,1.3-1.78,2.02-.93.67-2.21,1.14-2.21,1.14,0,0,3.19,3.21,3.19,3.21,0,0,.87-.37,1.33-.71.85-.64.72-1.55,1.46-2.78.45-.75,1.03-1.18,2.18-2.05,2.15-1.62,2.42-1.08,3.28-2.03,1.51-1.67.77-3.41,2.28-4.88.22-.21.41-.35.6-.46,1.07-.58,1.96-.8,2.17-.84.77-.16,1.9-1.23,3.41-5.33"/>
      <path class="cls-2" d="M129.85,152.08c-.08.56-.29,1.35-.83,2.04-.81,1.03-1.65.91-3.19,2.07-.83.63-1.38,1.04-1.88,1.84-.98,1.56-.55,2.62-1.48,3.53-.52.51-.69.21-2.05.87-1.07.51-1.81.87-2.42,1.66-.86,1.13-.41,1.8-1.38,3.43-.21.36-.79,1.3-1.78,2.02-.93.67-2.21,1.14-2.21,1.14,0,0,3.19,3.21,3.19,3.21,0,0,.87-.37,1.33-.71.85-.64.72-1.55,1.46-2.78.45-.75,1.03-1.18,2.18-2.05,2.15-1.62,2.42-1.08,3.28-2.03,1.51-1.67.77-3.41,2.28-4.88.22-.21.41-.35.6-.46,1.07-.58,1.96-.8,2.17-.84.77-.16,1.9-1.23,3.41-5.33"/>
      <path class="cls-4" d="M89.6,107.71l46.24,46.98c1.66,1.68,4.27,1.61,5.83-.17l11.13-12.64c1.57-1.78,1.49-4.58-.17-6.27l-46.24-46.98c-1.66-1.68-4.27-1.61-5.83.17l-11.13,12.64c-1.57,1.78-1.49,4.58.17,6.27Z"/>
      <path class="cls-4" d="M77.48,83.3c3.88,6.82,7.76,13.63,11.64,20.45,4.36-4.79,8.72-9.58,13.09-14.37-6.47-3.77-12.94-7.55-19.42-11.32-1.77,1.75-3.54,3.5-5.31,5.24Z"/>
      <path class="cls-1" d="M348.16,100.63"/>
      <path class="cls-5" d="M102.69,89.45c-4.28,4.52-8.57,9.05-12.85,13.57"/>
      <path class="cls-5" d="M134.64,152.7c5.61-5.84,11.22-11.67,16.82-17.51"/>
      <path class="cls-2" d="M114.7,124.79c5.79,5.89,12.5,8.38,14.98,5.57s-.21-9.86-6.01-15.75c-5.79-5.89-12.5-8.38-14.98-5.57s.21,9.86,6.01,15.75Z"/>
      <path class="cls-2" d="M110.3,92.6c-.08.56-.29,1.35-.83,2.04-.81,1.03-1.65.91-3.19,2.07-.83.63-1.38,1.04-1.88,1.84-.98,1.56-.55,2.62-1.48,3.53-.52.51-.69.21-2.05.87-1.07.51-1.81.87-2.42,1.66-.86,1.13-.41,1.8-1.38,3.43-.21.36-.79,1.3-1.78,2.02-.93.67-2.21,1.14-2.21,1.14,0,0,3.19,3.21,3.19,3.21,0,0,.87-.37,1.33-.71.85-.64.72-1.55,1.46-2.78.45-.75,1.03-1.18,2.18-2.05,2.15-1.62,2.42-1.08,3.28-2.03,1.51-1.67.77-3.41,2.28-4.88.22-.21.41-.35.6-.46,1.07-.58,1.96-.8,2.17-.84.77-.16,1.9-1.23,3.41-5.33"/>
      <path class="cls-2" d="M146.12,129.1c-.08.56-.29,1.35-.83,2.04-.81,1.03-1.65.91-3.19,2.07-.83.63-1.38,1.04-1.88,1.84-.98,1.56-.55,2.62-1.48,3.53-.52.51-.69.21-2.05.87-1.07.51-1.81.87-2.42,1.66-.86,1.13-.41,1.8-1.38,3.43-.21.36-.79,1.3-1.78,2.02-.93.67-2.21,1.14-2.21,1.14,0,0,3.19,3.21,3.19,3.21,0,0,.87-.37,1.33-.71.85-.64.72-1.55,1.46-2.78.45-.75,1.03-1.18,2.18-2.05,2.15-1.62,2.42-1.08,3.28-2.03,1.51-1.67.77-3.41,2.28-4.88.22-.21.41-.35.6-.46,1.07-.58,1.96-.8,2.17-.84.77-.16,1.9-1.23,3.41-5.33"/>
      <path class="cls-8" d="M51.77,148.56l46.24,46.98c1.66,1.68,4.27,1.61,5.83-.17l11.13-12.64c1.57-1.78,1.49-4.58-.17-6.27l-46.24-46.98c-1.66-1.68-4.27-1.61-5.83.17l-11.13,12.64c-1.57,1.78-1.49,4.58.17,6.27Z"/>
      <path class="cls-8" d="M39.65,124.15c3.88,6.82,7.76,13.63,11.64,20.45,4.36-4.79,8.72-9.58,13.09-14.37-6.47-3.77-12.94-7.55-19.42-11.32-1.77,1.75-3.54,3.5-5.31,5.24Z"/>
      <path class="cls-5" d="M64.86,130.3c-4.28,4.52-8.57,9.05-12.85,13.57"/>
      <path class="cls-5" d="M96.81,193.55c5.61-5.84,11.22-11.67,16.82-17.51"/>
      <path class="cls-2" d="M76.87,165.64c5.79,5.89,12.5,8.38,14.98,5.57s-.21-9.86-6.01-15.75c-5.79-5.89-12.5-8.38-14.98-5.57s.21,9.86,6.01,15.75Z"/>
      <path class="cls-2" d="M72.47,133.45c-.08.56-.29,1.35-.83,2.04-.81,1.03-1.65.91-3.19,2.07-.83.63-1.38,1.04-1.88,1.84-.98,1.56-.55,2.62-1.48,3.53-.52.51-.69.21-2.05.87-1.07.51-1.81.87-2.42,1.66-.86,1.13-.41,1.8-1.38,3.43-.21.36-.79,1.3-1.78,2.02-.93.67-2.21,1.14-2.21,1.14,0,0,3.19,3.21,3.19,3.21,0,0,.87-.37,1.33-.71.85-.64.72-1.55,1.46-2.78.45-.75,1.03-1.18,2.18-2.05,2.15-1.62,2.42-1.08,3.28-2.03,1.51-1.67.77-3.41,2.28-4.88.22-.21.41-.35.6-.46,1.07-.58,1.96-.8,2.17-.84.77-.16,1.9-1.23,3.41-5.33"/>
      <path class="cls-2" d="M108.29,169.95c-.08.56-.29,1.35-.83,2.04-.81,1.03-1.65.91-3.19,2.07-.83.63-1.38,1.04-1.88,1.84-.98,1.56-.55,2.62-1.48,3.53-.52.51-.69.21-2.05.87-1.07.51-1.81.87-2.42,1.66-.86,1.13-.41,1.8-1.38,3.43-.21.36-.79,1.3-1.78,2.02-.93.67-2.21,1.14-2.21,1.14,0,0,3.19,3.21,3.19,3.21,0,0,.87-.37,1.33-.71.85-.64.72-1.55,1.46-2.78.45-.75,1.03-1.18,2.18-2.05,2.15-1.62,2.42-1.08,3.28-2.03,1.51-1.67.77-3.41,2.28-4.88.22-.21.41-.35.6-.46,1.07-.58,1.96-.8,2.17-.84.77-.16,1.9-1.23,3.41-5.33"/>
      <path class="cls-4" d="M31.21,166.92l46.24,46.98c1.66,1.68,4.27,1.61,5.83-.17l11.13-12.64c1.57-1.78,1.49-4.58-.17-6.27l-46.24-46.98c-1.66-1.68-4.27-1.61-5.83.17l-11.13,12.64c-1.57,1.78-1.49,4.58.17,6.27Z"/>
      <path class="cls-4" d="M19.09,142.52c3.88,6.82,7.76,13.63,11.64,20.45l13.09-14.37c-6.47-3.77-12.94-7.55-19.42-11.32-1.77,1.75-3.54,3.5-5.31,5.24Z"/>
      <path class="cls-5" d="M44.31,148.66c-4.28,4.52-8.57,9.05-12.85,13.57"/>
      <path class="cls-5" d="M76.25,211.91c5.61-5.84,11.22-11.67,16.82-17.51"/>
      <path class="cls-2" d="M56.32,184.01c5.79,5.89,12.5,8.38,14.98,5.57,2.48-2.81-.21-9.86-6.01-15.75-5.79-5.89-12.5-8.38-14.98-5.57-2.48,2.81.21,9.86,6.01,15.75Z"/>
      <path class="cls-2" d="M51.91,151.81c-.08.56-.29,1.35-.83,2.04-.81,1.03-1.65.91-3.19,2.07-.83.63-1.38,1.04-1.88,1.84-.98,1.56-.55,2.62-1.48,3.53-.52.51-.69.21-2.05.87-1.07.51-1.81.87-2.42,1.66-.86,1.13-.41,1.8-1.38,3.43-.21.36-.79,1.3-1.78,2.02-.93.67-2.21,1.14-2.21,1.14,0,0,3.19,3.21,3.19,3.21,0,0,.87-.37,1.33-.71.85-.64.72-1.55,1.46-2.78.45-.75,1.03-1.18,2.18-2.05,2.15-1.62,2.42-1.08,3.28-2.03,1.51-1.67.77-3.41,2.28-4.88.22-.21.41-.35.6-.46,1.07-.58,1.96-.8,2.17-.84.77-.16,1.9-1.23,3.41-5.33"/>
      <path class="cls-2" d="M87.73,188.31c-.08.56-.29,1.35-.83,2.04-.81,1.03-1.65.91-3.19,2.07-.83.63-1.38,1.04-1.88,1.84-.98,1.56-.55,2.62-1.48,3.53-.52.51-.69.21-2.05.87-1.07.51-1.81.87-2.42,1.66-.86,1.13-.41,1.8-1.38,3.43-.21.36-.79,1.3-1.78,2.02-.93.67-2.21,1.14-2.21,1.14,0,0,3.19,3.21,3.19,3.21,0,0,.87-.37,1.33-.71.85-.64.72-1.55,1.46-2.78.45-.75,1.03-1.18,2.18-2.05,2.15-1.62,2.42-1.08,3.28-2.03,1.51-1.67.77-3.41,2.28-4.88.22-.21.41-.35.6-.46,1.07-.58,1.96-.8,2.17-.84.77-.16,1.9-1.23,3.41-5.33"/>
      <path class="cls-6" d="M107.13,85.56l50.22,41.99c1.8,1.5,4.39,1.16,5.79-.77l9.95-13.73c1.4-1.93,1.07-4.72-.73-6.22l-50.22-41.99c-1.8-1.5-4.39-1.16-5.79.77l-9.95,13.73c-1.4,1.93-1.07,4.72.73,6.22Z"/>
      <path class="cls-6" d="M92.88,62.52c4.47,6.39,8.94,12.77,13.41,19.16,3.91-5.22,7.82-10.44,11.74-15.66-6.78-3.09-13.56-6.18-20.34-9.27-1.6,1.92-3.21,3.85-4.81,5.77Z"/>
      <path class="cls-5" d="M118.53,66.03c-3.86,4.95-7.72,9.89-11.58,14.84"/>
      <path class="cls-2" d="M133.64,99.98c6.29,5.26,13.19,7.05,15.4,4s-1.09-9.8-7.39-15.06c-6.29-5.26-13.19-7.05-15.4-4s1.09,9.8,7.39,15.06Z"/>
      <path class="cls-2" d="M126.38,68.39c-.03.57-.16,1.37-.64,2.12-.71,1.11-1.56,1.07-2.99,2.39-.77.71-1.28,1.18-1.7,2.02-.84,1.65-.31,2.67-1.15,3.66-.47.56-.67.28-1.97,1.07-1.01.62-1.73,1.06-2.26,1.91-.76,1.21-.25,1.83-1.07,3.56-.18.38-.67,1.38-1.59,2.19-.86.76-2.1,1.36-2.1,1.36,0,0,3.46,2.87,3.46,2.87,0,0,.84-.46,1.26-.84.79-.72.58-1.61,1.21-2.92.38-.79.92-1.28,1.98-2.26,2-1.83,2.31-1.33,3.08-2.36,1.35-1.81.46-3.47,1.83-5.1.2-.23.38-.39.56-.52,1.01-.68,1.88-1,2.09-1.06.75-.24,1.78-1.42,2.92-5.66"/>
      <path class="cls-2" d="M165.29,101.02c-.03.57-.16,1.37-.64,2.12-.71,1.11-1.56,1.07-2.99,2.39-.77.71-1.28,1.18-1.7,2.02-.84,1.65-.31,2.67-1.15,3.66-.47.56-.67.28-1.97,1.07-1.01.62-1.73,1.06-2.26,1.91-.76,1.21-.25,1.83-1.07,3.56-.18.38-.67,1.38-1.59,2.19-.86.76-2.1,1.36-2.1,1.36,0,0,3.46,2.87,3.46,2.87,0,0,.84-.46,1.26-.84.79-.72.58-1.61,1.21-2.92.38-.79.92-1.28,1.98-2.26,2-1.83,2.31-1.33,3.08-2.36,1.35-1.81.46-3.47,1.83-5.1.2-.23.38-.39.56-.52,1.01-.68,1.88-1,2.09-1.06.75-.24,1.78-1.42,2.92-5.66"/>
      <path class="cls-8" d="M121.61,61.02l52.89,38.02c1.9,1.36,4.46.82,5.72-1.21l9-14.46c1.27-2.03.76-4.79-1.14-6.15l-52.89-38.02c-1.9-1.36-4.46-.82-5.72,1.21l-9,14.46c-1.27,2.03-.76,4.79,1.14,6.15Z"/>
      <path class="cls-8" d="M105.86,39.13c4.89,6.02,9.77,12.05,14.66,18.07,3.55-5.51,7.11-11.02,10.66-16.52-6.97-2.56-13.93-5.12-20.9-7.68-1.47,2.04-2.94,4.08-4.41,6.13Z"/>
      <path class="cls-5" d="M131.67,40.66c-3.52,5.23-7.04,10.46-10.56,15.69"/>
      <path class="cls-2" d="M149.01,73.36c6.63,4.76,13.63,6.02,15.63,2.8,2-3.22-1.75-9.69-8.38-14.45-6.63-4.76-13.63-6.02-15.63-2.8s1.75,9.69,8.38,14.45Z"/>
      <path class="cls-2" d="M139.66,42.4c0,.57-.07,1.38-.5,2.16-.63,1.16-1.48,1.19-2.82,2.62-.72.77-1.19,1.28-1.56,2.15-.73,1.71-.14,2.69-.91,3.74-.43.59-.65.33-1.89,1.22-.97.7-1.65,1.19-2.12,2.07-.68,1.27-.12,1.85-.83,3.63-.15.39-.57,1.42-1.44,2.31-.81.83-2.01,1.52-2.01,1.52,0,0,3.64,2.6,3.64,2.6,0,0,.8-.52,1.2-.94.74-.78.47-1.65,1.01-3,.33-.82.83-1.35,1.83-2.41,1.87-1.98,2.22-1.5,2.92-2.59,1.23-1.91.22-3.5,1.49-5.23.18-.25.35-.42.52-.56.96-.76,1.81-1.14,2.01-1.22.73-.3,1.68-1.55,2.54-5.87"/>
      <path class="cls-2" d="M180.65,71.96c0,.57-.07,1.38-.5,2.16-.63,1.16-1.48,1.19-2.82,2.62-.72.77-1.19,1.28-1.56,2.15-.73,1.71-.14,2.69-.91,3.74-.43.59-.65.33-1.89,1.22-.97.7-1.65,1.19-2.12,2.07-.68,1.27-.12,1.85-.83,3.63-.15.39-.57,1.42-1.44,2.31-.81.83-2.01,1.52-2.01,1.52,0,0,3.64,2.6,3.64,2.6,0,0,.8-.52,1.2-.94.74-.78.47-1.65,1.01-3,.33-.82.83-1.35,1.83-2.41,1.87-1.98,2.22-1.5,2.92-2.59,1.23-1.91.22-3.5,1.49-5.23.18-.25.35-.42.52-.56.96-.76,1.81-1.14,2.01-1.22.73-.3,1.68-1.55,2.54-5.87"/>
      <path class="cls-1" d="M137.68,32.64l61.44,17.79c2.2.64,4.47-.76,5.06-3.13l4.2-16.81c.59-2.36-.72-4.8-2.92-5.43l-61.44-17.79c-2.2-.64-4.47.76-5.06,3.13l-4.2,16.81c-.59,2.36.72,4.8,2.92,5.43Z"/>
      <path class="cls-1" d="M116.22,17.33c6.43,4.02,12.85,8.05,19.28,12.07,1.72-6.44,3.43-12.89,5.15-19.33-7.36-.02-14.72-.04-22.08-.07-.78,2.44-1.56,4.88-2.35,7.33Z"/>
      <path class="cls-5" d="M141.11,9.88c-1.77,6.17-3.53,12.34-5.3,18.51"/>
      <ellipse class="cls-2" cx="169" cy="28.11" rx="6.97" ry="14.52" transform="translate(93.29 181.79) rotate(-73.22)"/>
      <path class="cls-2" d="M149.19,8.78c.17.54.35,1.33.18,2.22-.25,1.32-1.05,1.64-1.88,3.45-.45.98-.75,1.62-.84,2.57-.17,1.87.67,2.59.26,3.86-.23.71-.51.54-1.42,1.81-.71.99-1.21,1.69-1.39,2.7-.26,1.43.43,1.79.3,3.73-.03.42-.12,1.55-.67,2.68-.52,1.06-1.44,2.13-1.44,2.13,0,0,4.23,1.2,4.23,1.2,0,0,.61-.77.85-1.3.47-1-.05-1.73.06-3.19.07-.89.38-1.56,1.01-2.91,1.18-2.52,1.65-2.19,1.99-3.46.59-2.24-.83-3.39-.16-5.46.1-.3.21-.52.33-.71.68-1.05,1.37-1.7,1.54-1.85.61-.53,1.13-2.05.64-6.44"/>
      <path class="cls-2" d="M196.83,22.65c.17.54.35,1.33.18,2.22-.25,1.32-1.05,1.64-1.88,3.45-.45.98-.75,1.62-.84,2.57-.17,1.87.67,2.59.26,3.86-.23.71-.51.54-1.42,1.81-.71.99-1.21,1.69-1.39,2.7-.26,1.43.43,1.79.3,3.73-.03.42-.12,1.55-.67,2.68-.52,1.06-1.44,2.13-1.44,2.13,0,0,4.23,1.2,4.23,1.2,0,0,.61-.77.85-1.3.47-1-.05-1.73.06-3.19.07-.89.38-1.56,1.01-2.91,1.18-2.52,1.65-2.19,1.99-3.46.59-2.24-.83-3.39-.16-5.46.1-.3.21-.52.33-.71.68-1.05,1.37-1.7,1.54-1.85.61-.53,1.13-2.05.64-6.44"/>
    </g>
    <g id="Layer_3">
      <path class="cls-1" d="M86.62,140.51l-43.93-46.97c-1.57-1.68-1.47-4.31.23-5.86l12.1-11.04c1.7-1.55,4.36-1.45,5.93.24l43.93,46.97c1.57,1.68,1.47,4.31-.23,5.86l-12.1,11.04c-1.7,1.55-4.36,1.45-5.93-.24Z"/>
      <path class="cls-1" d="M109.59,152.96c-6.41-3.97-12.82-7.95-19.23-11.92,4.59-4.33,9.18-8.65,13.77-12.98,3.5,6.54,6.99,13.09,10.49,19.63-1.68,1.76-3.35,3.51-5.03,5.27Z"/>
      <path class="cls-1" d="M42.03,109.13"/>
      <path class="cls-5" d="M104.07,127.57c-4.34,4.25-8.67,8.5-13.01,12.76"/>
      <path class="cls-5" d="M44.55,94.77c5.6-5.57,11.19-11.13,16.79-16.7"/>
      <ellipse class="cls-2" cx="75.62" cy="110.66" rx="6.6" ry="14.59" transform="translate(-55.3 81.93) rotate(-43.27)"/>
      <path class="cls-2" d="M101.18,119.9c-.53.08-1.28.27-1.95.81-.99.8-.88,1.64-2,3.18-.61.83-1.01,1.37-1.76,1.86-1.49.97-2.49.52-3.36,1.44-.49.51-.21.69-.84,2.05-.5,1.06-.85,1.81-1.6,2.41-1.08.85-1.71.39-3.27,1.35-.34.21-1.24.78-1.93,1.76-.65.92-1.1,2.21-1.1,2.21,0,0-3.01-3.24-3.01-3.24,0,0,.36-.87.69-1.33.61-.85,1.47-.71,2.65-1.44.71-.45,1.13-1.02,1.96-2.16,1.56-2.15,1.06-2.42,1.96-3.27,1.6-1.5,3.24-.73,4.65-2.23.2-.21.34-.41.44-.6.56-1.06.78-1.96.82-2.17.16-.77,1.18-1.89,5.09-3.37"/>
      <path class="cls-2" d="M67.05,83.51c-.53.08-1.28.27-1.95.81-.99.8-.88,1.64-2,3.18-.61.83-1.01,1.37-1.76,1.86-1.49.97-2.49.52-3.36,1.44-.49.51-.21.69-.84,2.05-.5,1.06-.85,1.81-1.6,2.41-1.08.85-1.71.39-3.27,1.35-.34.21-1.24.78-1.93,1.76-.65.92-1.1,2.21-1.1,2.21,0,0-3.01-3.24-3.01-3.24,0,0,.36-.87.69-1.33.61-.85,1.47-.71,2.65-1.44.71-.45,1.13-1.02,1.96-2.16,1.56-2.15,1.06-2.42,1.96-3.27,1.6-1.5,3.24-.73,4.65-2.23.2-.21.34-.41.44-.6.56-1.06.78-1.96.82-2.17.16-.77,1.18-1.89,5.09-3.37"/>
      <path class="cls-4" d="M108.59,124.43l-43.93-46.97c-1.57-1.68-1.47-4.31.23-5.86l12.1-11.04c1.7-1.55,4.36-1.45,5.93.24l43.93,46.97c1.57,1.68,1.47,4.31-.23,5.86l-12.1,11.04c-1.7,1.55-4.36,1.45-5.93-.24Z"/>
      <path class="cls-4" d="M131.56,136.89c-6.41-3.97-12.82-7.95-19.23-11.92l13.77-12.98c3.5,6.54,6.99,13.09,10.49,19.63-1.68,1.76-3.35,3.51-5.03,5.27Z"/>
      <path class="cls-1" d="M64.71,290.71"/>
      <path class="cls-5" d="M126.04,111.49c-4.34,4.25-8.67,8.5-13.01,12.76"/>
      <path class="cls-5" d="M66.52,78.69c5.6-5.57,11.19-11.13,16.79-16.7"/>
      <ellipse class="cls-2" cx="97.59" cy="94.58" rx="6.6" ry="14.59" transform="translate(-38.3 92.62) rotate(-43.27)"/>
      <path class="cls-2" d="M123.15,103.82c-.53.08-1.28.27-1.95.81-.99.8-.88,1.64-2,3.18-.61.83-1.01,1.37-1.76,1.86-1.49.97-2.49.52-3.36,1.44-.49.51-.21.69-.84,2.05-.5,1.06-.85,1.81-1.6,2.41-1.08.85-1.71.39-3.27,1.35-.34.21-1.24.78-1.93,1.76-.65.92-1.1,2.21-1.1,2.21,0,0-3.01-3.24-3.01-3.24,0,0,.36-.87.69-1.33.61-.85,1.47-.71,2.65-1.44.71-.45,1.13-1.02,1.96-2.16,1.56-2.15,1.06-2.42,1.96-3.27,1.6-1.5,3.24-.73,4.65-2.23.2-.21.34-.41.44-.6.56-1.06.78-1.96.82-2.17.16-.77,1.18-1.89,5.09-3.37"/>
      <path class="cls-2" d="M89.02,67.43c-.53.08-1.28.27-1.95.81-.99.8-.88,1.64-2,3.18-.61.83-1.01,1.37-1.76,1.86-1.49.97-2.49.52-3.36,1.44-.49.51-.21.69-.84,2.05-.5,1.06-.85,1.81-1.6,2.41-1.08.85-1.71.39-3.27,1.35-.34.21-1.24.78-1.93,1.76-.65.92-1.1,2.21-1.1,2.21,0,0-3.01-3.24-3.01-3.24,0,0,.36-.87.69-1.33.61-.85,1.47-.71,2.65-1.44.71-.45,1.13-1.02,1.96-2.16,1.56-2.15,1.06-2.42,1.96-3.27,1.6-1.5,3.24-.73,4.65-2.23.2-.21.34-.41.44-.6.56-1.06.78-1.96.82-2.17.16-.77,1.18-1.89,5.09-3.37"/>
      <path class="cls-8" d="M69.43,161.96l-43.93-46.97c-1.57-1.68-1.47-4.31.23-5.86l12.1-11.04c1.7-1.55,4.36-1.45,5.93.24l43.93,46.97c1.57,1.68,1.47,4.31-.23,5.86l-12.1,11.04c-1.7,1.55-4.36,1.45-5.93-.24Z"/>
      <path class="cls-8" d="M92.4,174.42c-6.41-3.97-12.82-7.95-19.23-11.92,4.59-4.33,9.18-8.65,13.77-12.98,3.5,6.54,6.99,13.09,10.49,19.63-1.68,1.76-3.35,3.51-5.03,5.27Z"/>
      <path class="cls-5" d="M86.89,149.02c-4.34,4.25-8.67,8.5-13.01,12.76"/>
      <path class="cls-5" d="M27.37,116.22c5.6-5.57,11.19-11.13,16.79-16.7"/>
      <ellipse class="cls-2" cx="58.44" cy="132.11" rx="6.6" ry="14.59" transform="translate(-74.67 75.98) rotate(-43.27)"/>
      <path class="cls-2" d="M84,141.35c-.53.08-1.28.27-1.95.81-.99.8-.88,1.64-2,3.18-.61.83-1.01,1.37-1.76,1.86-1.49.97-2.49.52-3.36,1.44-.49.51-.21.69-.84,2.05-.5,1.06-.85,1.81-1.6,2.41-1.08.85-1.71.39-3.27,1.35-.34.21-1.24.78-1.93,1.76-.65.92-1.1,2.21-1.1,2.21,0,0-3.01-3.24-3.01-3.24,0,0,.36-.87.69-1.33.61-.85,1.47-.71,2.65-1.44.71-.45,1.13-1.02,1.96-2.16,1.56-2.15,1.06-2.42,1.96-3.27,1.6-1.5,3.24-.73,4.65-2.23.2-.21.34-.41.44-.6.56-1.06.78-1.96.82-2.17.16-.77,1.18-1.89,5.09-3.37"/>
      <path class="cls-2" d="M49.86,104.96c-.53.08-1.28.27-1.95.81-.99.8-.88,1.64-2,3.18-.61.83-1.01,1.37-1.76,1.86-1.49.97-2.49.52-3.36,1.44-.49.51-.21.69-.84,2.05-.5,1.06-.85,1.81-1.6,2.41-1.08.85-1.71.39-3.27,1.35-.34.21-1.24.78-1.93,1.76-.65.92-1.1,2.21-1.1,2.21,0,0-3.01-3.24-3.01-3.24,0,0,.36-.87.69-1.33.61-.85,1.47-.71,2.65-1.44.71-.45,1.13-1.02,1.96-2.16,1.56-2.15,1.06-2.42,1.96-3.27,1.6-1.5,3.24-.73,4.65-2.23.2-.21.34-.41.44-.6.56-1.06.78-1.96.82-2.17.16-.77,1.18-1.89,5.09-3.37"/>
      <path class="cls-4" d="M51.79,182.4L7.86,135.43c-1.57-1.68-1.47-4.31.23-5.86l12.1-11.04c1.7-1.55,4.36-1.45,5.93.24l43.93,46.97c1.57,1.68,1.47,4.31-.23,5.86l-12.1,11.04c-1.7,1.55-4.36,1.45-5.93-.24Z"/>
      <path class="cls-4" d="M74.76,194.85c-6.41-3.97-12.82-7.95-19.23-11.92l13.77-12.98c3.5,6.54,6.99,13.09,10.49,19.63-1.68,1.76-3.35,3.51-5.03,5.27Z"/>
      <path class="cls-5" d="M69.24,169.46c-4.34,4.25-8.67,8.5-13.01,12.76"/>
      <path class="cls-5" d="M9.72,136.66c5.6-5.57,11.19-11.13,16.79-16.7"/>
      <ellipse class="cls-2" cx="40.79" cy="152.55" rx="6.6" ry="14.59" transform="translate(-93.48 69.44) rotate(-43.27)"/>
      <path class="cls-2" d="M66.35,161.79c-.53.08-1.28.27-1.95.81-.99.8-.88,1.64-2,3.18-.61.83-1.01,1.37-1.76,1.86-1.49.97-2.49.52-3.36,1.44-.49.51-.21.69-.84,2.05-.5,1.06-.85,1.81-1.6,2.41-1.08.85-1.71.39-3.27,1.35-.34.21-1.24.78-1.93,1.76-.65.92-1.1,2.21-1.1,2.21,0,0-3.01-3.24-3.01-3.24,0,0,.36-.87.69-1.33.61-.85,1.47-.71,2.65-1.44.71-.45,1.13-1.02,1.96-2.16,1.56-2.15,1.06-2.42,1.96-3.27,1.6-1.5,3.24-.73,4.65-2.23.2-.21.34-.41.44-.6.56-1.06.78-1.96.82-2.17.16-.77,1.18-1.89,5.09-3.37"/>
      <path class="cls-2" d="M32.22,125.4c-.53.08-1.28.27-1.95.81-.99.8-.88,1.64-2,3.18-.61.83-1.01,1.37-1.76,1.86-1.49.97-2.49.52-3.36,1.44-.49.51-.21.69-.84,2.05-.5,1.06-.85,1.81-1.6,2.41-1.08.85-1.71.39-3.27,1.35-.34.21-1.24.78-1.93,1.76-.65.92-1.1,2.21-1.1,2.21,0,0-3.01-3.24-3.01-3.24,0,0,.36-.87.69-1.33.61-.85,1.47-.71,2.65-1.44.71-.45,1.13-1.02,1.96-2.16,1.56-2.15,1.06-2.42,1.96-3.27,1.6-1.5,3.24-.73,4.65-2.23.2-.21.34-.41.44-.6.56-1.06.78-1.96.82-2.17.16-.77,1.18-1.89,5.09-3.37"/>
      <path class="cls-6" d="M129.78,107.08l-39.16-50.91c-1.4-1.82-1.05-4.42.8-5.81l13.12-9.83c1.85-1.38,4.48-1.02,5.88.8l39.16,50.91c1.4,1.82,1.05,4.42-.8,5.81l-13.12,9.83c-1.85,1.38-4.48,1.02-5.88-.8Z"/>
      <path class="cls-6" d="M151.43,121.65c-5.99-4.56-11.99-9.13-17.98-13.69,4.99-3.87,9.98-7.74,14.97-11.61,2.84,6.84,5.69,13.69,8.53,20.53-1.84,1.59-3.68,3.18-5.52,4.77Z"/>
      <path class="cls-5" d="M148.42,95.86c-4.73,3.82-9.46,7.64-14.2,11.46"/>
      <ellipse class="cls-2" cx="121.74" cy="76.33" rx="6.61" ry="14.58" transform="translate(-21.25 90.52) rotate(-37.76)"/>
      <path class="cls-2" d="M146.28,87.94c-.54.03-1.3.15-2.02.62-1.06.7-1.03,1.55-2.3,2.97-.68.76-1.13,1.27-1.94,1.69-1.58.82-2.53.29-3.48,1.12-.53.47-.27.67-1.04,1.96-.6,1.01-1.02,1.72-1.83,2.25-1.16.75-1.74.23-3.38,1.04-.36.18-1.31.66-2.1,1.57-.73.86-1.31,2.1-1.31,2.1,0,0-2.68-3.51-2.68-3.51,0,0,.45-.84.81-1.25.69-.79,1.54-.56,2.78-1.18.75-.38,1.23-.91,2.17-1.97,1.76-1.99,1.29-2.31,2.27-3.07,1.73-1.34,3.29-.42,4.85-1.78.22-.19.38-.38.5-.56.66-1.01.97-1.88,1.03-2.08.23-.75,1.36-1.77,5.4-2.87"/>
      <path class="cls-2" d="M115.85,48.49c-.54.03-1.3.15-2.02.62-1.06.7-1.03,1.55-2.3,2.97-.68.76-1.13,1.27-1.94,1.69-1.58.82-2.53.29-3.48,1.12-.53.47-.27.67-1.04,1.96-.6,1.01-1.02,1.72-1.83,2.25-1.16.75-1.74.23-3.38,1.04-.36.18-1.31.66-2.1,1.57-.73.86-1.31,2.1-1.31,2.1,0,0-2.68-3.51-2.68-3.51,0,0,.45-.84.81-1.25.69-.79,1.54-.56,2.78-1.18.75-.38,1.23-.91,2.17-1.97,1.76-1.99,1.29-2.31,2.27-3.07,1.73-1.34,3.29-.42,4.85-1.78.22-.19.38-.38.5-.56.66-1.01.97-1.88,1.03-2.08.23-.75,1.36-1.77,5.4-2.87"/>
      <path class="cls-8" d="M153.21,92.82l-35.37-53.55c-1.27-1.92-.72-4.49,1.22-5.74l13.81-8.88c1.94-1.25,4.54-.7,5.81,1.21l35.37,53.55c1.27,1.92.72,4.49-1.22,5.74l-13.81,8.88c-1.94,1.25-4.54.7-5.81-1.21Z"/>
      <path class="cls-8" d="M173.75,108.89c-5.65-4.97-11.29-9.95-16.94-14.92,5.26-3.51,10.52-7.01,15.78-10.52,2.34,7.03,4.68,14.05,7.02,21.08-1.95,1.45-3.9,2.91-5.86,4.36Z"/>
      <path class="cls-5" d="M172.61,82.94c-5,3.47-10,6.95-14.99,10.42"/>
      <ellipse class="cls-2" cx="147.42" cy="61.58" rx="6.61" ry="14.56" transform="translate(-9.43 91.93) rotate(-33.62)"/>
      <path class="cls-2" d="M171.06,74.9c-.54-.01-1.31.06-2.06.48-1.11.62-1.14,1.48-2.51,2.8-.74.71-1.22,1.18-2.05,1.55-1.63.71-2.55.11-3.56.87-.57.43-.32.65-1.18,1.88-.67.97-1.14,1.65-1.99,2.11-1.21.66-1.75.1-3.45.79-.37.15-1.36.56-2.21,1.42-.79.8-1.46,2-1.46,2,0,0-2.42-3.69-2.42-3.69,0,0,.5-.8.9-1.19.75-.74,1.57-.45,2.86-.98.78-.32,1.29-.82,2.3-1.81,1.9-1.86,1.45-2.21,2.49-2.9,1.83-1.21,3.32-.19,4.97-1.43.24-.18.4-.35.53-.52.73-.96,1.1-1.8,1.18-2,.29-.73,1.49-1.67,5.59-2.48"/>
      <path class="cls-2" d="M143.57,33.4c-.54-.01-1.31.06-2.06.48-1.11.62-1.14,1.48-2.51,2.8-.74.71-1.22,1.18-2.05,1.55-1.63.71-2.55.11-3.56.87-.57.43-.32.65-1.18,1.88-.67.97-1.14,1.65-1.99,2.11-1.21.66-1.75.1-3.45.79-.37.15-1.36.56-2.21,1.42-.79.8-1.46,2-1.46,2,0,0-2.42-3.69-2.42-3.69,0,0,.5-.8.9-1.19.75-.74,1.57-.45,2.86-.98.78-.32,1.29-.82,2.3-1.81,1.9-1.86,1.45-2.21,2.49-2.9,1.83-1.21,3.32-.19,4.97-1.43.24-.18.4-.35.53-.52.73-.96,1.1-1.8,1.18-2,.29-.73,1.49-1.67,5.59-2.48"/>
      <path class="cls-1" d="M180.28,77l-16.1-61.9c-.58-2.22.78-4.48,3.02-5.04l15.97-4.03c2.25-.57,4.53.77,5.11,2.99l16.1,61.9c.58,2.22-.78,4.48-3.02,5.04l-15.97,4.03c-2.25.57-4.53-.77-5.11-2.99Z"/>
      <path class="cls-1" d="M194.52,98.72c-3.73-6.5-7.47-13-11.2-19.5,6.12-1.65,12.25-3.3,18.37-4.95-.07,7.39-.14,14.78-.21,22.18-2.32.76-4.65,1.52-6.97,2.27Z"/>
      <path class="cls-5" d="M201.88,73.81c-5.87,1.7-11.73,3.41-17.6,5.11"/>
      <ellipse class="cls-2" cx="184.95" cy="45.6" rx="6.64" ry="14.51" transform="translate(-5.52 48.39) rotate(-14.69)"/>
      <path class="cls-2" d="M203.02,65.71c-.51-.18-1.26-.36-2.1-.2-1.25.24-1.56,1.03-3.29,1.85-.93.44-1.55.73-2.45.81-1.78.15-2.45-.71-3.65-.31-.67.22-.51.51-1.73,1.41-.95.7-1.62,1.19-2.57,1.37-1.36.24-1.69-.46-3.53-.34-.4.02-1.47.1-2.55.64-1.01.51-2.04,1.43-2.04,1.43,0,0-1.09-4.26-1.09-4.26,0,0,.74-.6,1.24-.84.95-.46,1.64.07,3.02-.02.84-.06,1.49-.36,2.77-.98,2.41-1.16,2.09-1.63,3.3-1.96,2.13-.57,3.2.88,5.17.22.28-.09.5-.2.68-.32,1.01-.67,1.63-1.36,1.77-1.52.51-.6,1.95-1.11,6.1-.57"/>
      <path class="cls-2" d="M190.47,17.7c-.51-.18-1.26-.36-2.1-.2-1.25.24-1.56,1.03-3.29,1.85-.93.44-1.55.73-2.45.81-1.78.15-2.45-.71-3.65-.31-.67.22-.51.51-1.73,1.41-.95.7-1.62,1.19-2.57,1.37-1.36.24-1.69-.46-3.53-.34-.4.02-1.47.1-2.55.64-1.01.51-2.04,1.43-2.04,1.43,0,0-1.09-4.26-1.09-4.26,0,0,.74-.6,1.24-.84.95-.46,1.64.07,3.02-.02.84-.06,1.49-.36,2.77-.98,2.41-1.16,2.09-1.63,3.3-1.96,2.13-.57,3.2.88,5.17.22.28-.09.5-.2.68-.32,1.01-.67,1.63-1.36,1.77-1.52.51-.6,1.95-1.11,6.1-.57"/>
    </g>
  </g>
</svg>