<?xml version="1.0" encoding="UTF-8"?>
<svg xmlns="http://www.w3.org/2000/svg" version="1.1" viewBox="0 0 185 186">
  <defs>
    <style>
      .cls-1 {
        fill: #3d92aa;
      }

      .cls-2 {
        fill: #090c0c;
      }

      .cls-3 {
        fill: #dac3da;
      }

      .cls-4, .cls-5 {
        fill: #f3db6a;
      }

      .cls-5 {
        stroke: #231f20;
        stroke-miterlimit: 10;
      }

      .cls-6 {
        fill: #f7983e;
      }

      .cls-7 {
        display: none;
      }

      .cls-8 {
        fill: #f7a690;
      }
    </style>
  </defs>
  <!-- Generator: Adobe Illustrator 28.7.1, SVG Export Plug-In . SVG Version: 1.2.0 Build 142)  -->
  <g>
    <g id="Layer_1" class="cls-7">
      <rect class="cls-1" x="32.48" y="85.82" width="71.89" height="24.47" rx="4.13" ry="4.13" transform="translate(85.13 -20.34) rotate(42.94)"/>
      <path class="cls-1" d="M106.83,139.33c-6.58-3.46-13.16-6.93-19.74-10.39l12.54-13.93c3.92,6.24,7.83,12.47,11.75,18.71-1.51,1.87-3.03,3.74-4.54,5.61Z"/>
      <path class="cls-1" d="M37.32,100.88"/>
      <path class="cls-5" d="M99.53,114.52c-3.94,4.55-7.87,9.1-11.81,13.65"/>
      <path class="cls-5" d="M38.72,86.42c5.07-5.95,10.14-11.9,15.22-17.85"/>
      <ellipse class="cls-2" cx="70.37" cy="99.87" rx="6.53" ry="14.44" transform="translate(-50.68 83.35) rotate(-47.06)"/>
      <path class="cls-2" d="M96.13,107.12c-.52.12-1.24.37-1.85.95-.91.87-.74,1.7-1.73,3.31-.53.87-.88,1.44-1.59,1.98-1.39,1.07-2.4.71-3.19,1.69-.44.55-.15.7-.68,2.1-.41,1.09-.7,1.86-1.39,2.51-1,.93-1.65.52-3.1,1.59-.32.23-1.16.87-1.76,1.9-.57.97-.92,2.28-.92,2.28,0,0-3.19-2.99-3.19-2.99,0,0,.29-.9.58-1.37.54-.89,1.39-.81,2.49-1.63.67-.5,1.03-1.1,1.76-2.3,1.37-2.25.86-2.48,1.68-3.4,1.45-1.61,3.12-.97,4.4-2.57.18-.23.3-.43.39-.63.47-1.1.62-2,.65-2.22.1-.78,1.02-1.97,4.74-3.73"/>
      <path class="cls-2" d="M59.94,73.54c-.52.12-1.24.37-1.85.95-.91.87-.74,1.7-1.73,3.31-.53.87-.88,1.44-1.59,1.98-1.39,1.07-2.4.71-3.19,1.69-.44.55-.15.7-.68,2.1-.41,1.09-.7,1.86-1.39,2.51-1,.93-1.65.52-3.1,1.59-.32.23-1.16.87-1.76,1.9-.57.97-.92,2.28-.92,2.28,0,0-3.19-2.99-3.19-2.99,0,0,.29-.9.58-1.37.54-.89,1.39-.81,2.49-1.63.67-.5,1.03-1.1,1.76-2.3,1.37-2.25.86-2.48,1.68-3.4,1.45-1.61,3.12-.97,4.4-2.57.18-.23.3-.43.39-.63.47-1.1.62-2,.65-2.22.1-.78,1.02-1.97,4.74-3.73"/>
      <rect class="cls-4" x="52.83" y="68.2" width="71.89" height="24.47" rx="4.13" ry="4.13" transform="translate(78.58 -38.92) rotate(42.94)"/>
      <path class="cls-4" d="M127.18,121.71c-6.58-3.46-13.16-6.93-19.74-10.39l12.54-13.93c3.92,6.24,7.83,12.47,11.75,18.71-1.51,1.87-3.03,3.74-4.54,5.61Z"/>
      <path class="cls-1" d="M-5.72,104.33"/>
      <path class="cls-5" d="M119.88,96.9c-3.94,4.55-7.87,9.1-11.81,13.65"/>
      <path class="cls-5" d="M59.07,68.8c5.07-5.95,10.14-11.9,15.22-17.85"/>
      <ellipse class="cls-2" cx="90.72" cy="82.25" rx="6.53" ry="14.44" transform="translate(-31.29 92.63) rotate(-47.06)"/>
      <path class="cls-2" d="M116.47,89.5c-.52.12-1.24.37-1.85.95-.91.87-.74,1.7-1.73,3.31-.53.87-.88,1.44-1.59,1.98-1.39,1.07-2.4.71-3.19,1.69-.44.55-.15.7-.68,2.1-.41,1.09-.7,1.86-1.39,2.51-1,.93-1.65.52-3.1,1.59-.32.23-1.16.87-1.76,1.9-.57.97-.92,2.28-.92,2.28,0,0-3.19-2.99-3.19-2.99,0,0,.29-.9.58-1.37.54-.89,1.39-.81,2.49-1.63.67-.5,1.03-1.1,1.76-2.3,1.37-2.25.86-2.48,1.68-3.4,1.45-1.61,3.12-.97,4.4-2.57.18-.23.3-.43.39-.63.47-1.1.62-2,.65-2.22.1-.78,1.02-1.97,4.74-3.73"/>
      <path class="cls-2" d="M80.29,55.92c-.52.12-1.24.37-1.85.95-.91.87-.74,1.7-1.73,3.31-.53.87-.88,1.44-1.59,1.98-1.39,1.07-2.4.71-3.19,1.69-.44.55-.15.7-.68,2.1-.41,1.09-.7,1.86-1.39,2.51-1,.93-1.65.52-3.1,1.59-.32.23-1.16.87-1.76,1.9-.57.97-.92,2.28-.92,2.28,0,0-3.19-2.99-3.19-2.99,0,0,.29-.9.58-1.37.54-.89,1.39-.81,2.49-1.63.67-.5,1.03-1.1,1.76-2.3,1.37-2.25.86-2.48,1.68-3.4,1.45-1.61,3.12-.97,4.4-2.57.18-.23.3-.43.39-.63.47-1.1.62-2,.65-2.22.1-.78,1.02-1.97,4.74-3.73"/>
      <rect class="cls-8" x="17.23" y="108.42" width="71.89" height="24.47" rx="4.13" ry="4.13" transform="translate(96.44 -3.9) rotate(42.94)"/>
      <path class="cls-8" d="M91.58,161.93c-6.58-3.46-13.16-6.93-19.74-10.39l12.54-13.93c3.92,6.24,7.83,12.47,11.75,18.71-1.51,1.87-3.03,3.74-4.54,5.61Z"/>
      <path class="cls-5" d="M84.28,137.12c-3.94,4.55-7.87,9.1-11.81,13.65"/>
      <path class="cls-5" d="M23.47,109.02c5.07-5.95,10.14-11.9,15.22-17.85"/>
      <ellipse class="cls-2" cx="55.12" cy="122.47" rx="6.53" ry="14.44" transform="translate(-72.08 79.39) rotate(-47.06)"/>
      <path class="cls-2" d="M80.88,129.72c-.52.12-1.24.37-1.85.95-.91.87-.74,1.7-1.73,3.31-.53.87-.88,1.44-1.59,1.98-1.39,1.07-2.4.71-3.19,1.69-.44.55-.15.7-.68,2.1-.41,1.09-.7,1.86-1.39,2.51-1,.93-1.65.52-3.1,1.59-.32.23-1.16.87-1.76,1.9-.57.97-.92,2.28-.92,2.28,0,0-3.19-2.99-3.19-2.99,0,0,.29-.9.58-1.37.54-.89,1.39-.81,2.49-1.63.67-.5,1.03-1.1,1.76-2.3,1.37-2.25.86-2.48,1.68-3.4,1.45-1.61,3.12-.97,4.4-2.57.18-.23.3-.43.39-.63.47-1.1.62-2,.65-2.22.1-.78,1.02-1.97,4.74-3.73"/>
      <path class="cls-2" d="M44.69,96.14c-.52.12-1.24.37-1.85.95-.91.87-.74,1.7-1.73,3.31-.53.87-.88,1.44-1.59,1.98-1.39,1.07-2.4.71-3.19,1.69-.44.55-.15.7-.68,2.1-.41,1.09-.7,1.86-1.39,2.51-1,.93-1.65.52-3.1,1.59-.32.23-1.16.87-1.76,1.9-.57.97-.92,2.28-.92,2.28,0,0-3.19-2.99-3.19-2.99,0,0,.29-.9.58-1.37.54-.89,1.39-.81,2.49-1.63.67-.5,1.03-1.1,1.76-2.3,1.37-2.25.86-2.48,1.68-3.4,1.45-1.61,3.12-.97,4.4-2.57.18-.23.3-.43.39-.63.47-1.1.62-2,.65-2.22.1-.78,1.02-1.97,4.74-3.73"/>
      <rect class="cls-4" x="1.46" y="130.04" width="71.89" height="24.47" rx="4.13" ry="4.13" transform="translate(106.94 12.64) rotate(42.94)"/>
      <path class="cls-4" d="M75.81,183.55c-6.58-3.46-13.16-6.93-19.74-10.39l12.54-13.93c3.92,6.24,7.83,12.47,11.75,18.71-1.51,1.87-3.03,3.74-4.54,5.61Z"/>
      <path class="cls-5" d="M68.5,158.74c-3.94,4.55-7.87,9.1-11.81,13.65"/>
      <path class="cls-5" d="M7.69,130.64c5.07-5.95,10.14-11.9,15.22-17.85"/>
      <ellipse class="cls-2" cx="39.34" cy="144.09" rx="6.53" ry="14.44" transform="translate(-92.94 74.74) rotate(-47.06)"/>
      <path class="cls-2" d="M65.1,151.34c-.52.12-1.24.37-1.85.95-.91.87-.74,1.7-1.73,3.31-.53.87-.88,1.44-1.59,1.98-1.39,1.07-2.4.71-3.19,1.69-.44.55-.15.7-.68,2.1-.41,1.09-.7,1.86-1.39,2.51-1,.93-1.65.52-3.1,1.59-.32.23-1.16.87-1.76,1.9-.57.97-.92,2.28-.92,2.28,0,0-3.19-2.99-3.19-2.99,0,0,.29-.9.58-1.37.54-.89,1.39-.81,2.49-1.63.67-.5,1.03-1.1,1.76-2.3,1.37-2.25.86-2.48,1.68-3.4,1.45-1.61,3.12-.97,4.4-2.57.18-.23.3-.43.39-.63.47-1.1.62-2,.65-2.22.1-.78,1.02-1.97,4.74-3.73"/>
      <path class="cls-2" d="M28.91,117.77c-.52.12-1.24.37-1.85.95-.91.87-.74,1.7-1.73,3.31-.53.87-.88,1.44-1.59,1.98-1.39,1.07-2.4.71-3.19,1.69-.44.55-.15.7-.68,2.1-.41,1.09-.7,1.86-1.39,2.51-1,.93-1.65.52-3.1,1.59-.32.23-1.16.87-1.76,1.9-.57.97-.92,2.28-.92,2.28,0,0-3.19-2.99-3.19-2.99,0,0,.29-.9.58-1.37.54-.89,1.39-.81,2.49-1.63.67-.5,1.03-1.1,1.76-2.3,1.37-2.25.86-2.48,1.68-3.4,1.45-1.61,3.12-.97,4.4-2.57.18-.23.3-.43.39-.63.47-1.1.62-2,.65-2.22.1-.78,1.02-1.97,4.74-3.73"/>
      <rect class="cls-6" x="75.33" y="48.08" width="71.89" height="24.47" rx="4.13" ry="4.13" transform="translate(82.61 -62.97) rotate(48.45)"/>
      <path class="cls-6" d="M145.54,105.08c-6.22-4.08-12.43-8.16-18.65-12.24l13.82-12.66c3.3,6.58,6.6,13.17,9.9,19.75-1.69,1.72-3.37,3.43-5.06,5.15Z"/>
      <path class="cls-5" d="M140.65,79.69c-4.36,4.15-8.71,8.3-13.07,12.45"/>
      <ellipse class="cls-2" cx="113.04" cy="62.3" rx="6.53" ry="14.44" transform="translate(-12.88 90.64) rotate(-41.55)"/>
      <path class="cls-2" d="M137.97,71.99c-.53.07-1.27.25-1.93.77-.99.78-.9,1.62-2.04,3.12-.61.81-1.02,1.34-1.77,1.82-1.48.94-2.46.47-3.33,1.37-.49.5-.22.68-.87,2.03-.51,1.05-.87,1.79-1.63,2.37-1.08.83-1.69.36-3.24,1.28-.34.2-1.24.75-1.94,1.72-.66.91-1.13,2.18-1.13,2.18,0,0-2.89-3.28-2.89-3.28,0,0,.37-.86.7-1.31.62-.83,1.46-.68,2.63-1.38.71-.43,1.13-.99,1.98-2.12,1.58-2.11,1.09-2.39,2-3.22,1.6-1.46,3.2-.66,4.62-2.13.2-.21.34-.4.44-.59.57-1.05.81-1.94.86-2.15.17-.77,1.2-1.86,5.08-3.26"/>
      <path class="cls-2" d="M105.19,35.09c-.53.07-1.27.25-1.93.77-.99.78-.9,1.62-2.04,3.12-.61.81-1.02,1.34-1.77,1.82-1.48.94-2.46.47-3.33,1.37-.49.5-.22.68-.87,2.03-.51,1.05-.87,1.79-1.63,2.37-1.08.83-1.69.36-3.24,1.28-.34.2-1.24.75-1.94,1.72-.66.91-1.13,2.18-1.13,2.18,0,0-2.89-3.28-2.89-3.28,0,0,.37-.86.7-1.31.62-.83,1.46-.68,2.63-1.38.71-.43,1.13-.99,1.98-2.12,1.58-2.11,1.09-2.39,2-3.22,1.6-1.46,3.2-.66,4.62-2.13.2-.21.34-.4.44-.59.57-1.05.81-1.94.86-2.15.17-.77,1.2-1.86,5.08-3.26"/>
      <rect class="cls-8" x="99.56" y="31.37" width="71.89" height="24.47" rx="4.13" ry="4.13" transform="translate(87.78 -90.5) rotate(52.57)"/>
      <path class="cls-8" d="M166.46,90.72c-5.91-4.52-11.82-9.03-17.73-13.55l14.69-11.63c2.82,6.8,5.64,13.61,8.45,20.41-1.81,1.59-3.61,3.18-5.42,4.77Z"/>
      <path class="cls-5" d="M163.42,65.05c-4.64,3.83-9.28,7.65-13.93,11.48"/>
      <ellipse class="cls-2" cx="137.12" cy="45.72" rx="6.53" ry="14.44" transform="translate(.45 92.75) rotate(-37.43)"/>
      <path class="cls-2" d="M161.3,57.18c-.53.03-1.28.15-1.98.63-1.04.7-1.01,1.55-2.26,2.97-.67.76-1.11,1.27-1.9,1.69-1.55.83-2.49.3-3.42,1.13-.52.47-.27.67-1.02,1.96-.59,1.01-1,1.72-1.79,2.25-1.14.75-1.71.24-3.32,1.05-.35.18-1.29.66-2.06,1.58-.72.86-1.29,2.09-1.29,2.09,0,0-2.64-3.48-2.64-3.48,0,0,.44-.83.8-1.25.68-.79,1.51-.57,2.73-1.19.74-.38,1.2-.91,2.12-1.97,1.73-1.99,1.26-2.31,2.23-3.07,1.7-1.34,3.24-.43,4.76-1.8.22-.19.37-.38.49-.56.65-1.01.95-1.87,1.01-2.08.23-.75,1.33-1.77,5.3-2.88"/>
      <path class="cls-2" d="M131.24,18.02c-.53.03-1.28.15-1.98.63-1.04.7-1.01,1.55-2.26,2.97-.67.76-1.11,1.27-1.9,1.69-1.55.83-2.49.3-3.42,1.13-.52.47-.27.67-1.02,1.96-.59,1.01-1,1.72-1.79,2.25-1.14.75-1.71.24-3.32,1.05-.35.18-1.29.66-2.06,1.58-.72.86-1.29,2.09-1.29,2.09,0,0-2.64-3.48-2.64-3.48,0,0,.44-.83.8-1.25.68-.79,1.51-.57,2.73-1.19.74-.38,1.2-.91,2.12-1.97,1.73-1.99,1.26-2.31,2.23-3.07,1.7-1.34,3.24-.43,4.76-1.8.22-.19.37-.38.49-.56.65-1.01.95-1.87,1.01-2.08.23-.75,1.33-1.77,5.3-2.88"/>
      <rect class="cls-1" x="135.94" y="12.27" width="71.89" height="24.47" rx="4.13" ry="4.13" transform="translate(139.99 -146.16) rotate(71.3)"/>
      <path class="cls-1" d="M186.07,79.07c-4.15-6.17-8.29-12.35-12.44-18.52l17.65-6.3c.48,7.35.97,14.69,1.45,22.04-2.22.93-4.44,1.85-6.66,2.78Z"/>
      <path class="cls-5" d="M191.43,53.77c-5.62,2.13-11.25,4.27-16.87,6.4"/>
      <ellipse class="cls-2" cx="172.73" cy="27.03" rx="6.53" ry="14.44" transform="translate(.45 56.8) rotate(-18.7)"/>
      <path class="cls-2" d="M191.95,45.64c-.51-.14-1.26-.26-2.08-.04-1.21.33-1.46,1.14-3.09,2.09-.88.51-1.46.84-2.34.99-1.73.29-2.45-.52-3.6-.03-.64.27-.47.55-1.59,1.53-.88.77-1.5,1.31-2.42,1.55-1.32.35-1.7-.33-3.48-.08-.39.05-1.43.21-2.45.83-.96.58-1.89,1.57-1.89,1.57,0,0-1.39-4.15-1.39-4.15,0,0,.68-.65,1.16-.93.9-.53,1.61-.05,2.96-.25.82-.12,1.43-.47,2.64-1.18,2.27-1.33,1.93-1.78,3.09-2.19,2.04-.72,3.21.63,5.09-.17.27-.11.47-.24.64-.37.94-.74,1.5-1.47,1.62-1.65.46-.64,1.83-1.25,5.94-1.03"/>
      <path class="cls-2" d="M176.06-1.09c-.51-.14-1.26-.26-2.08-.04-1.21.33-1.46,1.14-3.09,2.09-.88.51-1.46.84-2.34.99-1.73.29-2.45-.52-3.6-.03-.64.27-.47.55-1.59,1.53-.88.77-1.5,1.31-2.42,1.55-1.32.35-1.7-.33-3.48-.08-.39.05-1.43.21-2.45.83-.96.58-1.89,1.57-1.89,1.57,0,0-1.39-4.15-1.39-4.15,0,0,.68-.65,1.16-.93.9-.53,1.61-.05,2.96-.25.82-.12,1.43-.47,2.64-1.18,2.27-1.33,1.93-1.78,3.09-2.19,2.04-.72,3.21.63,5.09-.17.27-.11.47-.24.64-.37.94-.74,1.5-1.47,1.62-1.65.46-.64,1.83-1.25,5.94-1.03"/>
    </g>
    <g id="Layer_2" class="cls-7">
      <path class="cls-3" d="M19.8,38.69"/>
      <path class="cls-1" d="M60.33,109.7l46.24,46.98c1.66,1.68,4.27,1.61,5.83-.17l11.13-12.64c1.57-1.78,1.49-4.58-.17-6.27l-46.24-46.98c-1.66-1.68-4.27-1.61-5.83.17l-11.13,12.64c-1.57,1.78-1.49,4.58.17,6.27Z"/>
      <path class="cls-1" d="M48.21,85.29c3.88,6.82,7.76,13.63,11.64,20.45,4.36-4.79,8.72-9.58,13.09-14.37-6.47-3.77-12.94-7.55-19.42-11.32-1.77,1.75-3.54,3.5-5.31,5.24Z"/>
      <path class="cls-1" d="M91.04,157.17"/>
      <path class="cls-5" d="M73.43,91.44c-4.28,4.52-8.57,9.05-12.85,13.57"/>
      <path class="cls-5" d="M105.37,154.69c5.61-5.84,11.22-11.67,16.82-17.51"/>
      <path class="cls-2" d="M85.43,126.78c5.79,5.89,12.5,8.38,14.98,5.57s-.21-9.86-6.01-15.75c-5.79-5.89-12.5-8.38-14.98-5.57-2.48,2.81.21,9.86,6.01,15.75Z"/>
      <path class="cls-2" d="M81.03,94.59c-.08.56-.29,1.35-.83,2.04-.81,1.03-1.65.91-3.19,2.07-.83.63-1.38,1.04-1.88,1.84-.98,1.56-.55,2.62-1.48,3.53-.52.51-.69.21-2.05.87-1.07.51-1.81.87-2.42,1.66-.86,1.13-.41,1.8-1.38,3.43-.21.36-.79,1.3-1.78,2.02-.93.67-2.21,1.14-2.21,1.14,0,0,3.19,3.21,3.19,3.21,0,0,.87-.37,1.33-.71.85-.64.72-1.55,1.46-2.78.45-.75,1.03-1.18,2.18-2.05,2.15-1.62,2.42-1.08,3.28-2.03,1.51-1.67.77-3.41,2.28-4.88.22-.21.41-.35.6-.46,1.07-.58,1.96-.8,2.17-.84.77-.16,1.9-1.23,3.41-5.33"/>
      <path class="cls-2" d="M116.85,131.08c-.08.56-.29,1.35-.83,2.04-.81,1.03-1.65.91-3.19,2.07-.83.63-1.38,1.04-1.88,1.84-.98,1.56-.55,2.62-1.48,3.53-.52.51-.69.21-2.05.87-1.07.51-1.81.87-2.42,1.66-.86,1.13-.41,1.8-1.38,3.43-.21.36-.79,1.3-1.78,2.02-.93.67-2.21,1.14-2.21,1.14,0,0,3.19,3.21,3.19,3.21,0,0,.87-.37,1.33-.71.85-.64.72-1.55,1.46-2.78.45-.75,1.03-1.18,2.18-2.05,2.15-1.62,2.42-1.08,3.28-2.03,1.51-1.67.77-3.41,2.28-4.88.22-.21.41-.35.6-.46,1.07-.58,1.96-.8,2.17-.84.77-.16,1.9-1.23,3.41-5.33"/>
      <path class="cls-4" d="M76.6,86.71l46.24,46.98c1.66,1.68,4.27,1.61,5.83-.17l11.13-12.64c1.57-1.78,1.49-4.58-.17-6.27l-46.24-46.98c-1.66-1.68-4.27-1.61-5.83.17l-11.13,12.64c-1.57,1.78-1.49,4.58.17,6.27Z"/>
      <path class="cls-4" d="M64.48,62.3c3.88,6.82,7.76,13.63,11.64,20.45,4.36-4.79,8.72-9.58,13.09-14.37-6.47-3.77-12.94-7.55-19.42-11.32-1.77,1.75-3.54,3.5-5.31,5.24Z"/>
      <path class="cls-1" d="M335.16,79.63"/>
      <path class="cls-5" d="M89.69,68.45c-4.28,4.52-8.57,9.05-12.85,13.57"/>
      <path class="cls-5" d="M121.64,131.7c5.61-5.84,11.22-11.67,16.82-17.51"/>
      <path class="cls-2" d="M101.7,103.79c5.79,5.89,12.5,8.38,14.98,5.57s-.21-9.86-6.01-15.75c-5.79-5.89-12.5-8.38-14.98-5.57s.21,9.86,6.01,15.75Z"/>
      <path class="cls-2" d="M97.3,71.6c-.08.56-.29,1.35-.83,2.04-.81,1.03-1.65.91-3.19,2.07-.83.63-1.38,1.04-1.88,1.84-.98,1.56-.55,2.62-1.48,3.53-.52.51-.69.21-2.05.87-1.07.51-1.81.87-2.42,1.66-.86,1.13-.41,1.8-1.38,3.43-.21.36-.79,1.3-1.78,2.02-.93.67-2.21,1.14-2.21,1.14,0,0,3.19,3.21,3.19,3.21,0,0,.87-.37,1.33-.71.85-.64.72-1.55,1.46-2.78.45-.75,1.03-1.18,2.18-2.05,2.15-1.62,2.42-1.08,3.28-2.03,1.51-1.67.77-3.41,2.28-4.88.22-.21.41-.35.6-.46,1.07-.58,1.96-.8,2.17-.84.77-.16,1.9-1.23,3.41-5.33"/>
      <path class="cls-2" d="M133.12,108.1c-.08.56-.29,1.35-.83,2.04-.81,1.03-1.65.91-3.19,2.07-.83.63-1.38,1.04-1.88,1.84-.98,1.56-.55,2.62-1.48,3.53-.52.51-.69.21-2.05.87-1.07.51-1.81.87-2.42,1.66-.86,1.13-.41,1.8-1.38,3.43-.21.36-.79,1.3-1.78,2.02-.93.67-2.21,1.14-2.21,1.14,0,0,3.19,3.21,3.19,3.21,0,0,.87-.37,1.33-.71.85-.64.72-1.55,1.46-2.78.45-.75,1.03-1.18,2.18-2.05,2.15-1.62,2.42-1.08,3.28-2.03,1.51-1.67.77-3.41,2.28-4.88.22-.21.41-.35.6-.46,1.07-.58,1.96-.8,2.17-.84.77-.16,1.9-1.23,3.41-5.33"/>
      <path class="cls-8" d="M38.77,127.56l46.24,46.98c1.66,1.68,4.27,1.61,5.83-.17l11.13-12.64c1.57-1.78,1.49-4.58-.17-6.27l-46.24-46.98c-1.66-1.68-4.27-1.61-5.83.17l-11.13,12.64c-1.57,1.78-1.49,4.58.17,6.27Z"/>
      <path class="cls-8" d="M26.65,103.15c3.88,6.82,7.76,13.63,11.64,20.45,4.36-4.79,8.72-9.58,13.09-14.37-6.47-3.77-12.94-7.55-19.42-11.32-1.77,1.75-3.54,3.5-5.31,5.24Z"/>
      <path class="cls-5" d="M51.86,109.3c-4.28,4.52-8.57,9.05-12.85,13.57"/>
      <path class="cls-5" d="M83.81,172.55c5.61-5.84,11.22-11.67,16.82-17.51"/>
      <path class="cls-2" d="M63.87,144.64c5.79,5.89,12.5,8.38,14.98,5.57s-.21-9.86-6.01-15.75c-5.79-5.89-12.5-8.38-14.98-5.57s.21,9.86,6.01,15.75Z"/>
      <path class="cls-2" d="M59.47,112.45c-.08.56-.29,1.35-.83,2.04-.81,1.03-1.65.91-3.19,2.07-.83.63-1.38,1.04-1.88,1.84-.98,1.56-.55,2.62-1.48,3.53-.52.51-.69.21-2.05.87-1.07.51-1.81.87-2.42,1.66-.86,1.13-.41,1.8-1.38,3.43-.21.36-.79,1.3-1.78,2.02-.93.67-2.21,1.14-2.21,1.14,0,0,3.19,3.21,3.19,3.21,0,0,.87-.37,1.33-.71.85-.64.72-1.55,1.46-2.78.45-.75,1.03-1.18,2.18-2.05,2.15-1.62,2.42-1.08,3.28-2.03,1.51-1.67.77-3.41,2.28-4.88.22-.21.41-.35.6-.46,1.07-.58,1.96-.8,2.17-.84.77-.16,1.9-1.23,3.41-5.33"/>
      <path class="cls-2" d="M95.29,148.95c-.08.56-.29,1.35-.83,2.04-.81,1.03-1.65.91-3.19,2.07-.83.63-1.38,1.04-1.88,1.84-.98,1.56-.55,2.62-1.48,3.53-.52.51-.69.21-2.05.87-1.07.51-1.81.87-2.42,1.66-.86,1.13-.41,1.8-1.38,3.43-.21.36-.79,1.3-1.78,2.02-.93.67-2.21,1.14-2.21,1.14,0,0,3.19,3.21,3.19,3.21,0,0,.87-.37,1.33-.71.85-.64.72-1.55,1.46-2.78.45-.75,1.03-1.18,2.18-2.05,2.15-1.62,2.42-1.08,3.28-2.03,1.51-1.67.77-3.41,2.28-4.88.22-.21.41-.35.6-.46,1.07-.58,1.96-.8,2.17-.84.77-.16,1.9-1.23,3.41-5.33"/>
      <path class="cls-4" d="M18.21,145.92l46.24,46.98c1.66,1.68,4.27,1.61,5.83-.17l11.13-12.64c1.57-1.78,1.49-4.58-.17-6.27l-46.24-46.98c-1.66-1.68-4.27-1.61-5.83.17l-11.13,12.64c-1.57,1.78-1.49,4.58.17,6.27Z"/>
      <path class="cls-4" d="M6.09,121.52c3.88,6.82,7.76,13.63,11.64,20.45l13.09-14.37c-6.47-3.77-12.94-7.55-19.42-11.32-1.77,1.75-3.54,3.5-5.31,5.24Z"/>
      <path class="cls-5" d="M31.31,127.66c-4.28,4.52-8.57,9.05-12.85,13.57"/>
      <path class="cls-5" d="M63.25,190.91c5.61-5.84,11.22-11.67,16.82-17.51"/>
      <path class="cls-2" d="M43.32,163.01c5.79,5.89,12.5,8.38,14.98,5.57,2.48-2.81-.21-9.86-6.01-15.75-5.79-5.89-12.5-8.38-14.98-5.57-2.48,2.81.21,9.86,6.01,15.75Z"/>
      <path class="cls-2" d="M38.91,130.81c-.08.56-.29,1.35-.83,2.04-.81,1.03-1.65.91-3.19,2.07-.83.63-1.38,1.04-1.88,1.84-.98,1.56-.55,2.62-1.48,3.53-.52.51-.69.21-2.05.87-1.07.51-1.81.87-2.42,1.66-.86,1.13-.41,1.8-1.38,3.43-.21.36-.79,1.3-1.78,2.02-.93.67-2.21,1.14-2.21,1.14,0,0,3.19,3.21,3.19,3.21,0,0,.87-.37,1.33-.71.85-.64.72-1.55,1.46-2.78.45-.75,1.03-1.18,2.18-2.05,2.15-1.62,2.42-1.08,3.28-2.03,1.51-1.67.77-3.41,2.28-4.88.22-.21.41-.35.6-.46,1.07-.58,1.96-.8,2.17-.84.77-.16,1.9-1.23,3.41-5.33"/>
      <path class="cls-2" d="M74.73,167.31c-.08.56-.29,1.35-.83,2.04-.81,1.03-1.65.91-3.19,2.07-.83.63-1.38,1.04-1.88,1.84-.98,1.56-.55,2.62-1.48,3.53-.52.51-.69.21-2.05.87-1.07.51-1.81.87-2.42,1.66-.86,1.13-.41,1.8-1.38,3.43-.21.36-.79,1.3-1.78,2.02-.93.67-2.21,1.14-2.21,1.14,0,0,3.19,3.21,3.19,3.21,0,0,.87-.37,1.33-.71.85-.64.72-1.55,1.46-2.78.45-.75,1.03-1.18,2.18-2.05,2.15-1.62,2.42-1.08,3.28-2.03,1.51-1.67.77-3.41,2.28-4.88.22-.21.41-.35.6-.46,1.07-.58,1.96-.8,2.17-.84.77-.16,1.9-1.23,3.41-5.33"/>
      <path class="cls-6" d="M94.13,64.56l50.22,41.99c1.8,1.5,4.39,1.16,5.79-.77l9.95-13.73c1.4-1.93,1.07-4.72-.73-6.22l-50.22-41.99c-1.8-1.5-4.39-1.16-5.79.77l-9.95,13.73c-1.4,1.93-1.07,4.72.73,6.22Z"/>
      <path class="cls-6" d="M79.88,41.52c4.47,6.39,8.94,12.77,13.41,19.16,3.91-5.22,7.82-10.44,11.74-15.66-6.78-3.09-13.56-6.18-20.34-9.27-1.6,1.92-3.21,3.85-4.81,5.77Z"/>
      <path class="cls-5" d="M105.53,45.03c-3.86,4.95-7.72,9.89-11.58,14.84"/>
      <path class="cls-2" d="M120.64,78.98c6.29,5.26,13.19,7.05,15.4,4s-1.09-9.8-7.39-15.06c-6.29-5.26-13.19-7.05-15.4-4s1.09,9.8,7.39,15.06Z"/>
      <path class="cls-2" d="M113.38,47.39c-.03.57-.16,1.37-.64,2.12-.71,1.11-1.56,1.07-2.99,2.39-.77.71-1.28,1.18-1.7,2.02-.84,1.65-.31,2.67-1.15,3.66-.47.56-.67.28-1.97,1.07-1.01.62-1.73,1.06-2.26,1.91-.76,1.21-.25,1.83-1.07,3.56-.18.38-.67,1.38-1.59,2.19-.86.76-2.1,1.36-2.1,1.36,0,0,3.46,2.87,3.46,2.87,0,0,.84-.46,1.26-.84.79-.72.58-1.61,1.21-2.92.38-.79.92-1.28,1.98-2.26,2-1.83,2.31-1.33,3.08-2.36,1.35-1.81.46-3.47,1.83-5.1.2-.23.38-.39.56-.52,1.01-.68,1.88-1,2.09-1.06.75-.24,1.78-1.42,2.92-5.66"/>
      <path class="cls-2" d="M152.29,80.02c-.03.57-.16,1.37-.64,2.12-.71,1.11-1.56,1.07-2.99,2.39-.77.71-1.28,1.18-1.7,2.02-.84,1.65-.31,2.67-1.15,3.66-.47.56-.67.28-1.97,1.07-1.01.62-1.73,1.06-2.26,1.91-.76,1.21-.25,1.83-1.07,3.56-.18.38-.67,1.38-1.59,2.19-.86.76-2.1,1.36-2.1,1.36,0,0,3.46,2.87,3.46,2.87,0,0,.84-.46,1.26-.84.79-.72.58-1.61,1.21-2.92.38-.79.92-1.28,1.98-2.26,2-1.83,2.31-1.33,3.08-2.36,1.35-1.81.46-3.47,1.83-5.1.2-.23.38-.39.56-.52,1.01-.68,1.88-1,2.09-1.06.75-.24,1.78-1.42,2.92-5.66"/>
      <path class="cls-8" d="M108.61,40.02l52.89,38.02c1.9,1.36,4.46.82,5.72-1.21l9-14.46c1.27-2.03.76-4.79-1.14-6.15l-52.89-38.02c-1.9-1.36-4.46-.82-5.72,1.21l-9,14.46c-1.27,2.03-.76,4.79,1.14,6.15Z"/>
      <path class="cls-8" d="M92.86,18.13c4.89,6.02,9.77,12.05,14.66,18.07,3.55-5.51,7.11-11.02,10.66-16.52-6.97-2.56-13.93-5.12-20.9-7.68-1.47,2.04-2.94,4.08-4.41,6.13Z"/>
      <path class="cls-5" d="M118.67,19.66c-3.52,5.23-7.04,10.46-10.56,15.69"/>
      <path class="cls-2" d="M136.01,52.36c6.63,4.76,13.63,6.02,15.63,2.8,2-3.22-1.75-9.69-8.38-14.45-6.63-4.76-13.63-6.02-15.63-2.8s1.75,9.69,8.38,14.45Z"/>
      <path class="cls-2" d="M126.66,21.4c0,.57-.07,1.38-.5,2.16-.63,1.16-1.48,1.19-2.82,2.62-.72.77-1.19,1.28-1.56,2.15-.73,1.71-.14,2.69-.91,3.74-.43.59-.65.33-1.89,1.22-.97.7-1.65,1.19-2.12,2.07-.68,1.27-.12,1.85-.83,3.63-.15.39-.57,1.42-1.44,2.31-.81.83-2.01,1.52-2.01,1.52,0,0,3.64,2.6,3.64,2.6,0,0,.8-.52,1.2-.94.74-.78.47-1.65,1.01-3,.33-.82.83-1.35,1.83-2.41,1.87-1.98,2.22-1.5,2.92-2.59,1.23-1.91.22-3.5,1.49-5.23.18-.25.35-.42.52-.56.96-.76,1.81-1.14,2.01-1.22.73-.3,1.68-1.55,2.54-5.87"/>
      <path class="cls-2" d="M167.65,50.96c0,.57-.07,1.38-.5,2.16-.63,1.16-1.48,1.19-2.82,2.62-.72.77-1.19,1.28-1.56,2.15-.73,1.71-.14,2.69-.91,3.74-.43.59-.65.33-1.89,1.22-.97.7-1.65,1.19-2.12,2.07-.68,1.27-.12,1.85-.83,3.63-.15.39-.57,1.42-1.44,2.31-.81.83-2.01,1.52-2.01,1.52,0,0,3.64,2.6,3.64,2.6,0,0,.8-.52,1.2-.94.74-.78.47-1.65,1.01-3,.33-.82.83-1.35,1.83-2.41,1.87-1.98,2.22-1.5,2.92-2.59,1.23-1.91.22-3.5,1.49-5.23.18-.25.35-.42.52-.56.96-.76,1.81-1.14,2.01-1.22.73-.3,1.68-1.55,2.54-5.87"/>
      <path class="cls-1" d="M124.68,11.64l61.44,17.79c2.2.64,4.47-.76,5.06-3.13l4.2-16.81c.59-2.36-.72-4.8-2.92-5.43l-61.44-17.79c-2.2-.64-4.47.76-5.06,3.13l-4.2,16.81c-.59,2.36.72,4.8,2.92,5.43Z"/>
      <path class="cls-1" d="M103.22-3.67c6.43,4.02,12.85,8.05,19.28,12.07,1.72-6.44,3.43-12.89,5.15-19.33-7.36-.02-14.72-.04-22.08-.07-.78,2.44-1.56,4.88-2.35,7.33Z"/>
      <path class="cls-5" d="M128.11-11.12c-1.77,6.17-3.53,12.34-5.3,18.51"/>
      <ellipse class="cls-2" cx="156" cy="7.11" rx="6.97" ry="14.52" transform="translate(104.15 154.41) rotate(-73.22)"/>
      <path class="cls-2" d="M136.19-12.22c.17.54.35,1.33.18,2.22-.25,1.32-1.05,1.64-1.88,3.45-.45.98-.75,1.62-.84,2.57-.17,1.87.67,2.59.26,3.86-.23.71-.51.54-1.42,1.81-.71.99-1.21,1.69-1.39,2.7-.26,1.43.43,1.79.3,3.73-.03.42-.12,1.55-.67,2.68-.52,1.06-1.44,2.13-1.44,2.13,0,0,4.23,1.2,4.23,1.2,0,0,.61-.77.85-1.3.47-1-.05-1.73.06-3.19.07-.89.38-1.56,1.01-2.91,1.18-2.52,1.65-2.19,1.99-3.46.59-2.24-.83-3.39-.16-5.46.1-.3.21-.52.33-.71.68-1.05,1.37-1.7,1.54-1.85.61-.53,1.13-2.05.64-6.44"/>
      <path class="cls-2" d="M183.83,1.65c.17.54.35,1.33.18,2.22-.25,1.32-1.05,1.64-1.88,3.45-.45.98-.75,1.62-.84,2.57-.17,1.87.67,2.59.26,3.86-.23.71-.51.54-1.42,1.81-.71.99-1.21,1.69-1.39,2.7-.26,1.43.43,1.79.3,3.73-.03.42-.12,1.55-.67,2.68-.52,1.06-1.44,2.13-1.44,2.13,0,0,4.23,1.2,4.23,1.2,0,0,.61-.77.85-1.3.47-1-.05-1.73.06-3.19.07-.89.38-1.56,1.01-2.91,1.18-2.52,1.65-2.19,1.99-3.46.59-2.24-.83-3.39-.16-5.46.1-.3.21-.52.33-.71.68-1.05,1.37-1.7,1.54-1.85.61-.53,1.13-2.05.64-6.44"/>
    </g>
    <g id="Layer_3">
      <path class="cls-1" d="M143.4,101.24l-42.92,47.9c-1.54,1.72-4.16,1.84-5.86.29l-12.06-11.08c-1.7-1.56-1.82-4.21-.29-5.93l42.92-47.9c1.54-1.72,4.16-1.84,5.86-.29l12.06,11.08c1.7,1.56,1.82,4.21.29,5.93Z"/>
      <path class="cls-1" d="M153.78,77.27c-3.39,6.73-6.79,13.47-10.18,20.2-4.71-4.19-9.43-8.38-14.14-12.58,6.21-4.06,12.42-8.12,18.63-12.18,1.9,1.52,3.8,3.03,5.69,4.55Z"/>
      <path class="cls-1" d="M116.07,148.43"/>
      <path class="cls-5" d="M128.97,85c4.62,3.95,9.24,7.89,13.85,11.84"/>
      <path class="cls-5" d="M101.54,147.17c-6.04-5.08-12.07-10.17-18.11-15.25"/>
      <ellipse class="cls-2" cx="114.63" cy="114.83" rx="14.59" ry="6.6" transform="translate(-47.36 124.11) rotate(-48.33)"/>
      <path class="cls-2" d="M121.58,88.55c.13.52.38,1.25.98,1.87.88.91,1.72.73,3.34,1.72.88.53,1.45.88,2.01,1.59,1.1,1.4.74,2.44,1.73,3.22.55.44.71.15,2.12.66,1.1.4,1.88.69,2.54,1.39.95,1,.54,1.67,1.63,3.13.24.32.88,1.17,1.93,1.77.98.56,2.3.9,2.3.9,0,0-2.96,3.28-2.96,3.28,0,0-.9-.28-1.38-.57-.9-.54-.83-1.41-1.67-2.51-.51-.67-1.11-1.04-2.33-1.77-2.27-1.36-2.5-.84-3.43-1.67-1.63-1.46-1.01-3.16-2.64-4.44-.23-.18-.44-.3-.64-.38-1.11-.46-2.02-.6-2.24-.63-.78-.09-1.99-1.01-3.8-4.77"/>
      <path class="cls-2" d="M88.34,125.76c.13.52.38,1.25.98,1.87.88.91,1.72.73,3.34,1.72.88.53,1.45.88,2.01,1.59,1.1,1.4.74,2.44,1.73,3.22.55.44.71.15,2.12.66,1.1.4,1.88.69,2.54,1.39.95,1,.54,1.67,1.63,3.13.24.32.88,1.17,1.93,1.77.98.56,2.3.9,2.3.9,0,0-2.96,3.28-2.96,3.28,0,0-.9-.28-1.38-.57-.9-.54-.83-1.41-1.67-2.51-.51-.67-1.11-1.04-2.33-1.77-2.27-1.36-2.5-.84-3.43-1.67-1.63-1.46-1.01-3.16-2.64-4.44-.23-.18-.44-.3-.64-.38-1.11-.46-2.02-.6-2.24-.63-.78-.09-1.99-1.01-3.8-4.77"/>
      <path class="cls-4" d="M125.45,80.78l-42.92,47.9c-1.54,1.72-4.16,1.84-5.86.29l-12.06-11.08c-1.7-1.56-1.82-4.21-.29-5.93l42.92-47.9c1.54-1.72,4.16-1.84,5.86-.29l12.06,11.08c1.7,1.56,1.82,4.21.29,5.93Z"/>
      <path class="cls-4" d="M135.83,56.8c-3.39,6.73-6.79,13.47-10.18,20.2-4.71-4.19-9.43-8.38-14.14-12.58,6.21-4.06,12.42-8.12,18.63-12.18,1.9,1.52,3.8,3.03,5.69,4.55Z"/>
      <path class="cls-1" d="M51.71,269.71"/>
      <path class="cls-5" d="M111.02,64.53c4.62,3.95,9.24,7.89,13.85,11.84"/>
      <path class="cls-5" d="M83.59,126.71c-6.04-5.08-12.07-10.17-18.11-15.25"/>
      <ellipse class="cls-2" cx="96.68" cy="94.36" rx="14.59" ry="6.6" transform="translate(-38.08 103.84) rotate(-48.33)"/>
      <path class="cls-2" d="M103.63,68.08c.13.52.38,1.25.98,1.87.88.91,1.72.73,3.34,1.72.88.53,1.45.88,2.01,1.59,1.1,1.4.74,2.44,1.73,3.22.55.44.71.15,2.12.66,1.1.4,1.88.69,2.54,1.39.95,1,.54,1.67,1.63,3.13.24.32.88,1.17,1.93,1.77.98.56,2.3.9,2.3.9,0,0-2.96,3.28-2.96,3.28,0,0-.9-.28-1.38-.57-.9-.54-.83-1.41-1.67-2.51-.51-.67-1.11-1.04-2.33-1.77-2.27-1.36-2.5-.84-3.43-1.67-1.63-1.46-1.01-3.16-2.64-4.44-.23-.18-.44-.3-.64-.38-1.11-.46-2.02-.6-2.24-.63-.78-.09-1.99-1.01-3.8-4.77"/>
      <path class="cls-2" d="M70.39,105.29c.13.52.38,1.25.98,1.87.88.91,1.72.73,3.34,1.72.88.53,1.45.88,2.01,1.59,1.1,1.4.74,2.44,1.73,3.22.55.44.71.15,2.12.66,1.1.4,1.88.69,2.54,1.39.95,1,.54,1.67,1.63,3.13.24.32.88,1.17,1.93,1.77.98.56,2.3.9,2.3.9,0,0-2.96,3.28-2.96,3.28,0,0-.9-.28-1.38-.57-.9-.54-.83-1.41-1.67-2.51-.51-.67-1.11-1.04-2.33-1.77-2.27-1.36-2.5-.84-3.43-1.67-1.63-1.46-1.01-3.16-2.64-4.44-.23-.18-.44-.3-.64-.38-1.11-.46-2.02-.6-2.24-.63-.78-.09-1.99-1.01-3.8-4.77"/>
      <path class="cls-8" d="M166.28,116.47l-42.92,47.9c-1.54,1.72-4.16,1.84-5.86.29l-12.06-11.08c-1.7-1.56-1.82-4.21-.29-5.93l42.92-47.9c1.54-1.72,4.16-1.84,5.86-.29l12.06,11.08c1.7,1.56,1.82,4.21.29,5.93Z"/>
      <path class="cls-8" d="M176.66,92.5c-3.39,6.73-6.79,13.47-10.18,20.2-4.71-4.19-9.43-8.38-14.14-12.58,6.21-4.06,12.42-8.12,18.63-12.18,1.9,1.52,3.8,3.03,5.69,4.55Z"/>
      <path class="cls-5" d="M151.85,100.23c4.62,3.95,9.24,7.89,13.85,11.84"/>
      <path class="cls-5" d="M124.42,162.4c-6.04-5.08-12.07-10.17-18.11-15.25"/>
      <ellipse class="cls-2" cx="137.51" cy="130.06" rx="14.59" ry="6.6" transform="translate(-51.06 146.3) rotate(-48.33)"/>
      <path class="cls-2" d="M144.46,103.78c.13.52.38,1.25.98,1.87.88.91,1.72.73,3.34,1.72.88.53,1.45.88,2.01,1.59,1.1,1.4.74,2.44,1.73,3.22.55.44.71.15,2.12.66,1.1.4,1.88.69,2.54,1.39.95,1,.54,1.67,1.63,3.13.24.32.88,1.17,1.93,1.77.98.56,2.3.9,2.3.9,0,0-2.96,3.28-2.96,3.28,0,0-.9-.28-1.38-.57-.9-.54-.83-1.41-1.67-2.51-.51-.67-1.11-1.04-2.33-1.77-2.27-1.36-2.5-.84-3.43-1.67-1.63-1.46-1.01-3.16-2.64-4.44-.23-.18-.44-.3-.64-.38-1.11-.46-2.02-.6-2.24-.63-.78-.09-1.99-1.01-3.8-4.77"/>
      <path class="cls-2" d="M111.22,140.98c.13.52.38,1.25.98,1.87.88.91,1.72.73,3.34,1.72.88.53,1.45.88,2.01,1.59,1.1,1.4.74,2.44,1.73,3.22.55.44.71.15,2.12.66,1.1.4,1.88.69,2.54,1.39.95,1,.54,1.67,1.63,3.13.24.32.88,1.17,1.93,1.77.98.56,2.3.9,2.3.9,0,0-2.96,3.28-2.96,3.28,0,0-.9-.28-1.38-.57-.9-.54-.83-1.41-1.67-2.51-.51-.67-1.11-1.04-2.33-1.77-2.27-1.36-2.5-.84-3.43-1.67-1.63-1.46-1.01-3.16-2.64-4.44-.23-.18-.44-.3-.64-.38-1.11-.46-2.02-.6-2.24-.63-.78-.09-1.99-1.01-3.8-4.77"/>
      <path class="cls-4" d="M188.19,132.25l-42.92,47.9c-1.54,1.72-4.16,1.84-5.86.29l-12.06-11.08c-1.7-1.56-1.82-4.21-.29-5.93l42.92-47.9c1.54-1.72,4.16-1.84,5.86-.29l12.06,11.08c1.7,1.56,1.82,4.21.29,5.93Z"/>
      <path class="cls-4" d="M198.57,108.27c-3.39,6.73-6.79,13.47-10.18,20.2l-14.14-12.58c6.21-4.06,12.42-8.12,18.63-12.18,1.9,1.52,3.8,3.03,5.69,4.55Z"/>
      <path class="cls-5" d="M173.76,116c4.62,3.95,9.24,7.89,13.85,11.84"/>
      <path class="cls-5" d="M146.33,178.18c-6.04-5.08-12.07-10.17-18.11-15.25"/>
      <ellipse class="cls-2" cx="159.43" cy="145.83" rx="14.59" ry="6.6" transform="translate(-55.5 167.95) rotate(-48.33)"/>
      <path class="cls-2" d="M166.37,119.56c.13.52.38,1.25.98,1.87.88.91,1.72.73,3.34,1.72.88.53,1.45.88,2.01,1.59,1.1,1.4.74,2.44,1.73,3.22.55.44.71.15,2.12.66,1.1.4,1.88.69,2.54,1.39.95,1,.54,1.67,1.63,3.13.24.32.88,1.17,1.93,1.77.98.56,2.3.9,2.3.9,0,0-2.96,3.28-2.96,3.28,0,0-.9-.28-1.38-.57-.9-.54-.83-1.41-1.67-2.51-.51-.67-1.11-1.04-2.33-1.77-2.27-1.36-2.5-.84-3.43-1.67-1.63-1.46-1.01-3.16-2.64-4.44-.23-.18-.44-.3-.64-.38-1.11-.46-2.02-.6-2.24-.63-.78-.09-1.99-1.01-3.8-4.77"/>
      <path class="cls-2" d="M133.13,156.76c.13.52.38,1.25.98,1.87.88.91,1.72.73,3.34,1.72.88.53,1.45.88,2.01,1.59,1.1,1.4.74,2.44,1.73,3.22.55.44.71.15,2.12.66,1.1.4,1.88.69,2.54,1.39.95,1,.54,1.67,1.63,3.13.24.32.88,1.17,1.93,1.77.98.56,2.3.9,2.3.9,0,0-2.96,3.28-2.96,3.28,0,0-.9-.28-1.38-.57-.9-.54-.83-1.41-1.67-2.51-.51-.67-1.11-1.04-2.33-1.77-2.27-1.36-2.5-.84-3.43-1.67-1.63-1.46-1.01-3.16-2.64-4.44-.23-.18-.44-.3-.64-.38-1.11-.46-2.02-.6-2.24-.63-.78-.09-1.99-1.01-3.8-4.77"/>
      <path class="cls-6" d="M106.3,61.19l-47.27,43.49c-1.69,1.56-4.32,1.43-5.86-.29l-10.95-12.21c-1.54-1.72-1.42-4.37.28-5.93l47.27-43.49c1.69-1.56,4.32-1.43,5.86.29l10.95,12.21c1.54,1.72,1.42,4.37-.28,5.93Z"/>
      <path class="cls-6" d="M118.91,38.34c-4.02,6.37-8.03,12.74-12.05,19.12-4.29-4.63-8.59-9.26-12.88-13.89,6.57-3.43,13.13-6.87,19.7-10.3,1.75,1.69,3.49,3.39,5.24,5.08Z"/>
      <path class="cls-5" d="M93.47,43.62c4.22,4.38,8.44,8.75,12.67,13.13"/>
      <ellipse class="cls-2" cx="76.37" cy="71.91" rx="14.58" ry="6.61" transform="translate(-28.53 71.05) rotate(-42.81)"/>
      <path class="cls-2" d="M85.78,46.44c.08.53.26,1.28.8,1.95.79.99,1.64.89,3.16,2.03.82.61,1.36,1.02,1.85,1.78.96,1.5.51,2.5,1.42,3.37.51.49.69.21,2.05.86,1.06.51,1.81.87,2.4,1.63.85,1.09.38,1.71,1.33,3.28.21.34.77,1.25,1.75,1.95.92.66,2.2,1.12,2.2,1.12,0,0-3.26,2.98-3.26,2.98,0,0-.87-.37-1.32-.7-.84-.62-.7-1.48-1.42-2.66-.44-.72-1.01-1.14-2.15-1.98-2.13-1.58-2.41-1.08-3.26-1.99-1.49-1.61-.71-3.24-2.2-4.67-.21-.2-.41-.34-.6-.44-1.06-.57-1.95-.8-2.17-.84-.77-.17-1.88-1.2-3.33-5.12"/>
      <path class="cls-2" d="M49.16,80.23c.08.53.26,1.28.8,1.95.79.99,1.64.89,3.16,2.03.82.61,1.36,1.02,1.85,1.78.96,1.5.51,2.5,1.42,3.37.51.49.69.21,2.05.86,1.06.51,1.81.87,2.4,1.63.85,1.09.38,1.71,1.33,3.28.21.34.77,1.25,1.75,1.95.92.66,2.2,1.12,2.2,1.12,0,0-3.26,2.98-3.26,2.98,0,0-.87-.37-1.32-.7-.84-.62-.7-1.48-1.42-2.66-.44-.72-1.01-1.14-2.15-1.98-2.13-1.58-2.41-1.08-3.26-1.99-1.49-1.61-.71-3.24-2.2-4.67-.21-.2-.41-.34-.6-.44-1.06-.57-1.95-.8-2.17-.84-.77-.17-1.88-1.2-3.33-5.12"/>
      <path class="cls-8" d="M90.03,39.11l-50.23,39.95c-1.8,1.43-4.41,1.11-5.82-.71l-10.06-12.97c-1.41-1.82-1.1-4.46.7-5.89l50.23-39.95c1.8-1.43,4.41-1.11,5.82.71l10.06,12.97c1.41,1.82,1.1,4.46-.7,5.89Z"/>
      <path class="cls-8" d="M104.22,17.24c-4.46,6.06-8.92,12.13-13.38,18.19-3.96-4.93-7.91-9.86-11.87-14.79,6.79-2.95,13.59-5.9,20.38-8.85,1.62,1.82,3.24,3.63,4.86,5.45Z"/>
      <path class="cls-5" d="M78.48,20.65c3.9,4.67,7.8,9.35,11.7,14.02"/>
      <ellipse class="cls-2" cx="59.42" cy="47.63" rx="14.56" ry="6.61" transform="translate(-16.74 47.58) rotate(-38.68)"/>
      <path class="cls-2" d="M70.61,22.91c.04.54.17,1.3.66,2.01.72,1.05,1.57,1.01,3.01,2.26.78.67,1.29,1.12,1.72,1.91.85,1.56.33,2.53,1.18,3.47.47.53.67.26,1.98,1.01,1.02.58,1.74.99,2.28,1.8.77,1.15.26,1.74,1.09,3.37.18.36.68,1.3,1.61,2.07.87.72,2.12,1.28,2.12,1.28,0,0-3.46,2.73-3.46,2.73,0,0-.84-.43-1.27-.79-.8-.68-.59-1.53-1.23-2.76-.39-.75-.93-1.21-2-2.14-2.02-1.73-2.33-1.25-3.11-2.23-1.37-1.71-.48-3.29-1.87-4.82-.2-.22-.38-.37-.56-.49-1.02-.65-1.89-.94-2.1-1-.76-.22-1.79-1.33-2.96-5.35"/>
      <path class="cls-2" d="M31.69,53.95c.04.54.17,1.3.66,2.01.72,1.05,1.57,1.01,3.01,2.26.78.67,1.29,1.12,1.72,1.91.85,1.56.33,2.53,1.18,3.47.47.53.67.26,1.98,1.01,1.02.58,1.74.99,2.28,1.8.77,1.15.26,1.74,1.09,3.37.18.36.68,1.3,1.61,2.07.87.72,2.12,1.28,2.12,1.28,0,0-3.46,2.73-3.46,2.73,0,0-.84-.43-1.27-.79-.8-.68-.59-1.53-1.23-2.76-.39-.75-.93-1.21-2-2.14-2.02-1.73-2.33-1.25-3.11-2.23-1.37-1.71-.48-3.29-1.87-4.82-.2-.22-.38-.37-.56-.49-1.02-.65-1.89-.94-2.1-1-.76-.22-1.79-1.33-2.96-5.35"/>
      <path class="cls-1" d="M71.89,13.54L11.64,35.03c-2.16.77-4.53-.38-5.29-2.57L.94,16.91c-.76-2.19.37-4.58,2.53-5.35L63.72-9.93c2.16-.77,4.53.38,5.29,2.57l5.42,15.55c.76,2.19-.37,4.58-2.53,5.35Z"/>
      <path class="cls-1" d="M92.27-2.56c-6.15,4.29-12.29,8.58-18.44,12.87-2.18-5.96-4.37-11.91-6.55-17.87,7.37-.58,14.74-1.17,22.11-1.75.96,2.25,1.92,4.49,2.88,6.74Z"/>
      <path class="cls-5" d="M66.81-7.69c2.21,5.69,4.43,11.39,6.64,17.08"/>
      <ellipse class="cls-2" cx="40.19" cy="11.65" rx="14.51" ry="6.64" transform="translate(-1.57 14.26) rotate(-19.74)"/>
      <path class="cls-2" d="M58.64-8.12c-.14.52-.25,1.29-.02,2.11.35,1.23,1.17,1.47,2.14,3.12.52.89.87,1.47,1.02,2.37.31,1.76-.49,2.5.02,3.67.28.65.55.47,1.56,1.6.78.89,1.33,1.51,1.59,2.44.36,1.34-.31,1.73-.03,3.54.06.4.23,1.45.87,2.48.6.97,1.6,1.9,1.6,1.9,0,0-4.14,1.46-4.14,1.46,0,0-.66-.68-.95-1.16-.54-.91-.08-1.64-.29-3.01-.13-.84-.49-1.45-1.22-2.67-1.36-2.29-1.81-1.94-2.24-3.12-.75-2.07.59-3.27-.24-5.17-.12-.27-.25-.48-.38-.64-.76-.94-1.5-1.5-1.67-1.63-.65-.46-1.27-1.85-1.11-6.03"/>
      <path class="cls-2" d="M11.92,8.61c-.14.52-.25,1.29-.02,2.11.35,1.23,1.17,1.47,2.14,3.12.52.89.87,1.47,1.02,2.37.31,1.76-.49,2.5.02,3.67.28.65.55.47,1.56,1.6.78.89,1.33,1.51,1.59,2.44.36,1.34-.31,1.73-.03,3.54.06.4.23,1.45.87,2.48.6.97,1.6,1.9,1.6,1.9,0,0-4.14,1.46-4.14,1.46,0,0-.66-.68-.95-1.16-.54-.91-.08-1.64-.29-3.01-.13-.84-.49-1.45-1.22-2.67-1.36-2.29-1.81-1.94-2.24-3.12-.75-2.07.59-3.27-.24-5.17-.12-.27-.25-.48-.38-.64-.76-.94-1.5-1.5-1.67-1.63-.65-.46-1.27-1.85-1.11-6.03"/>
    </g>
  </g>
</svg>