<?xml version="1.0" encoding="UTF-8"?>
<svg xmlns="http://www.w3.org/2000/svg" version="1.1" viewBox="0 0 603 544">
  <defs>
    <style>
      .cls-1 {
        fill: #090c0c;
      }

      .cls-2 {
        fill: #e9d3e5;
      }

      .cls-3 {
        fill: #dac3da;
      }

      .cls-4, .cls-5 {
        fill: #f3db6a;
      }

      .cls-5 {
        stroke: #231f20;
        stroke-miterlimit: 10;
      }

      .cls-6 {
        fill: #caacca;
      }

      .cls-7 {
        fill: #fff;
      }

      .cls-8 {
        fill: #fffff9;
      }

      .cls-9 {
        fill: #95b8c6;
      }

      .cls-10 {
        fill: #f7a690;
      }
    </style>
  </defs>
  <!-- Generator: Adobe Illustrator 28.7.1, SVG Export Plug-In . SVG Version: 1.2.0 Build 142)  -->
  <g>
    <g id="Layer_1">
      <path class="cls-3" d="M654,128.11"/>
      <path class="cls-6" d="M338.86,80.11c-.21-.84-.76-3.13-2.55-4-4.13-2.03-12.28,4.76-16.09,12.07-3.94,7.55-3,15.19-2.12,17.08.06.14,1.12,2.35,2.58,5.27,0,.02.01.03.03,0,18.65-22.68,18.84-27.58,18.15-30.42Z"/>
      <path class="cls-2" d="M496.8,162.65c-3.7-.65-10.12-1.27-17.69.67-10.52,2.69-16.97,8.69-18.34,10.02-9.62,9.27-11.54,21.12-12.45,26.73-3.27,20.15,2.96,51.43,26.86,65.48,23.76,13.96,53.14,3.93,69.45-8.69,40.8-31.56,39.59-110.08,11.14-159.69-22.27-38.83-59.14-56.28-70.1-61.47-11.67-5.52-29.94-13.93-55.03-14.03-9.31-.04-38.56-.15-63.55,19.38-10.44,8.16-17.35,17.57-25.55,28.73-6.25,8.51-5.36,8.61-19.66,32.07-18.99,31.16-28.64,46.85-36.03,52.12-3.47,2.47-8.28,5.38-7.86,8.69.69,5.5,15.22,7.22,25.55,9.35,32.55,6.73,60.67,25.34,76,40.76,20.47,20.57,21.98,39.3,30.14,38.08,11.86-1.77,6.22-41.03,32.1-67.48,11.85-12.11,26.3-17.44,37.34-20.04"/>
      <path class="cls-3" d="M498.84,158.48c-.51-2.83-21.91-4.82-41.2,5.34-5.02,2.64-18.08,9.75-25.51,25.34-8.48,17.79-4.09,35.01-1.96,43.35,8.22,32.24,34.25,48.39,39.24,51.36,7.25,4.31,32.9,19.54,60.82,10,31.87-10.88,43.21-47.58,47.74-62.03,3.89-12.41,4.75-22.34,5.35-29.73.55-6.73,2.66-38.3-11.89-74.32-5.64-13.96-13.25-27.25-14.18-26.83-.67.3,2.16,7.46,4.67,15.83,5.74,19.1,6.52,34.65,7.5,43.25,1.43,12.54,4.52,39.53-7.81,67.13-4.92,11.02-11.27,25.3-26.81,34.01-15.54,8.71-36.09,9.67-52.32.67-30.4-16.87-35.91-63.27-20.93-84.04,12.26-17,37.84-16.23,37.28-19.34Z"/>
      <path class="cls-3" d="M585,125.81"/>
      <path class="cls-7" d="M367.27,87.12s-.03.04-.08.11c-2.81,3.68-4.93,6.82-5.47,7.66-1.66,2.58-4.31,8.26-5.29,15.4-.6,4.33-1.42,10.3,1.42,16.58.98,2.16,2.24,4.95,5.16,6.71,4.74,2.85,10.31.9,12.52.13,9.87-3.46,14.29-13.3,15.36-15.93,1.57-3.87,6.45-15.89-.65-24.74-5.03-6.28-14.19-8.58-22.97-5.92Z"/>
      <path class="cls-1" d="M358.07,107.55c.51-.86.77-1.29,1.34-1.63,2.3-1.37,6.01,1.08,7.69,2.59,2.78,2.5,3.56,5.61,3.73,6.31.97,4.17-.59,7.5-1.11,8.57-.43.88-3.22,6.63-7.22,6.31-2.56-.21-4.24-2.8-4.52-3.23-.91-1.41-1.07-2.77-1.4-5.5-.06-.49-.32-2.75-.14-5.97.27-4.99,1.27-6.83,1.63-7.43Z"/>
      <ellipse class="cls-8" cx="367.03" cy="120.04" rx="1.52" ry="1.55"/>
      <path class="cls-6" d="M368.13,86.97c1.89.35,3.56,1.51,5.43,1.93,3.71.83,7.44,5.49,8.74,7.1,0,0,3.66,4.57,6.61,14.93.62,2.18.93,3.27.97,3.71.1,1.16-.02,2.04.57,2.55.62.53,1.61.28,1.77.24,1.98-.53,2.83-3.83,3.31-5.9,1.4-6.11,2.32-10.14,2.01-17.22-.36-8.13-1.97-11.32-2.48-12.28-.88-1.64-2.05-3.78-4.49-5.18-2.86-1.64-5.73-1.26-8.85-.84-4.73.63-7.88,2.55-9.43,3.52,0,0-2.61,1.63-5.03,5.26-.22.33-.61.96-.39,1.46.22.53.99.66,1.27.71Z"/>
      <path class="cls-2" d="M424.39,292.82c5.91,3.18,13.82,8.68,18.7,18.02,4.92,9.43,1.57,13.22,4.95,27.26,5.32,22.12,18.82,37.89,22.77,42.4,5.05,5.77,5.94,5.43,10.4,11.11,2.91,3.71,11.03,14.69,14.85,28.27,7.3,25.9-4.27,49.75-7.92,56.54-2.99,5.56-14.24,25.79-38.61,35.84,0,0-30.03,12.39-63.48-2.89,0,0-10-4.56-24.86-16.8,0,0-2.87-2.36-5.83-6.04-.88-1.09-1.99-2.6-2.89-4.73-.26-.62-.45-1.15-.57-1.52,1.02-.27,2.52-.78,4.11-1.79,2.35-1.49,3.59-3.35,4.07-3.81,12.19-11.37,37.76-30.4,37.97-30.57,0,0,3.23,6.73,4.95,8.58,7.12,7.67,19.7,8.96,29.21,5.55,9.85-3.53,14.77-11.51,17.33-15.65,6.92-11.22,6.79-22.58,6.44-27.26-.69-9.04-3.89-15.09-9.41-25.24-3.88-7.13-10.11-17.11-19.8-27.76"/>
      <ellipse class="cls-9" cx="248.69" cy="328.12" rx="182.92" ry="181.13"/>
      <path class="cls-10" d="M137.47,420.2l-22.61,8.35c-3.33,1.23-7-.53-8.21-3.92l-23.49-66.12c-1.21-3.39.52-7.14,3.84-8.37l22.61-8.35c3.33-1.23,7,.53,8.21,3.92l23.49,66.12c1.21,3.39-.52,7.14-3.84,8.37Z"/>
      <ellipse class="cls-1" cx="115.37" cy="390.55" rx="10.43" ry="23.41" transform="translate(-115.47 55.06) rotate(-18.07)"/>
      <path class="cls-2" d="M123.4,363.48c5.55,1.06,15.74,3.86,24.54,12.28,15.91,15.25,15.4,37.55,15.17,47.32-.2,8.57-.52,22.44-9.37,35.94-17.26,26.33-50.59,26.85-54.88,26.84-23.46-.04-39.89-12.26-45.82-17.25-19.53-16.45-24.43-38.22-26.9-49.17-6.68-29.65,1.53-53.95,9.07-76.29.66-1.95,3.6-10.5,9.81-20.26,7.51-11.81,13.83-16.05,17.08-17.91,2.21-1.27,4.16-2.1,5.49-2.61-.41,2.47-.9,6.16-1,10.65-.2,9.4,1.46,16.31,1.94,18.6,3.47,16.58-7.49,24.62-5.35,45.95.72,7.19,2.44,22.71,12.49,38.67,3.92,6.23,10.23,15.97,22.31,21.84,4.1,1.99,10.61,5.05,19.18,4.09,1.91-.21,12.56-1.58,19.63-10.01,14.43-17.19-.33-46.72-1.34-48.68-3.04-5.9-6.53-10.15-8.92-12.74"/>
      <path class="cls-1" d="M107.89,425.14c.69.15,1.73.26,2.86-.09,1.82-.56,2.16-1.82,4.52-3.28,1.28-.79,2.13-1.32,3.39-1.53,2.49-.4,3.48.93,5.15.17.93-.42.69-.87,2.35-2.43,1.3-1.22,2.21-2.07,3.54-2.43,1.9-.51,2.41.59,4.97.24.5-.07,2.03-.26,3.55-1.27,1.11-.74,2.13-1.87,2.13-1.87h0s.06.18.19.54c.38.9.76,1.87,1.13,2.92.35,1.01.65,1.98.9,2.9-.03.03-.08.08-.15.14,0,0-.68.64-1.35,1.13-.85.61-2.33.04-4.25.3-1.18.16-2.07.72-3.84,1.83-3.31,2.08-2.85,2.82-4.53,3.45-2.95,1.1-4.55-1.13-7.28.1-1.62.73-1.48,1.8-3.33,3.19-1.4,1.06-3.78,2.05-8.04,1.42"/>
      <path class="cls-6" d="M126.52,370.76c1.3.48,3.04,1.21,4.97,2.31,0,0,4.94,2.8,9.11,7.49,10.37,11.67,10.44,26.93,10.44,26.93,0,1.14-.24,22.96-17.06,33.14-17.59,10.65-37.6-.93-42.08-3.52-10.29-5.95-15.88-14.24-19.97-20.3-1.46-2.17-8.54-12.89-12.34-29.34-3.5-15.13-2.4-27.26-1.53-36.16,0,0,.76-7.7,8.62-40.72h0c2.14,18.86,4.93,34.47,7.28,45.93,4.88,23.81,8.39,32.29,12.26,39.32,5.66,10.27,12.09,22.01,24.75,25.24,7.78,1.99,19.86,1.29,25.79-6.75,6.77-9.18,4.26-26.19-9.06-37.68"/>
      <path class="cls-2" d="M111.23,367.46c.44,1.29,1.53,5.02.09,9.25-.3.87-2.61,7.33-8.58,8.44-5.47,1.01-10.37-3.15-12.11-6.82-.02-.04-.04-.1-.16-.38-1.23-2.89-1.61-3.64-2.07-4.78-.72-1.79-1.12-3.27-1.24-3.72-.75-2.92-.6-4.29-1.05-4.39-.67-.14-2.03,2.63-2.65,4.97-.83,3.18-3.11,11.88,2.51,18.89,5.2,6.49,14.4,8.08,21.45,4.97,5.53-2.44,10.4-8.07,10.72-14.34.06-1.15.24-4.74-2.09-8.09-1.63-2.35-3.73-3.5-4.82-4Z"/>
      <path class="cls-6" d="M90.29,377.51h0s.48,2.35,1.42,4.06c0,0,.81,1.47,2.35,2.7,2.96,2.36,8.6,2.38,12.79-.29,4.33-2.77,6.27-7.88,5.89-11.87-.21-2.18-1.17-4.71-1.5-4.65-.21.04-.13,1.08-.18,2.25,0,0-.14,3.61-1.55,6.81-.35.8-2.42,5.48-7.17,6.66-3.12.77-6.38-.21-8.42-1.84-1.55-1.24-3.62-3.82-3.62-3.82Z"/>
      <path class="cls-1" d="M135.57,202.59c-5.78-1.81-11.53,3.04-15.28,6.19-8.93,7.52-11.79,17.19-12.29,18.99-.48,1.69-1.89,7.16-1.32,14.35.26,3.23,1.14,14.37,9.17,23.01,6.21,6.69,16.51,11.67,19.72,8.55,2.1-2.03-.35-6.04-1.39-20.06-.95-12.71.64-15.11,1.94-16.22,2.63-2.24,7.68-2.29,10,.3,2.56,2.86.74,7.69-3.89,27.14-3.02,12.69-3.41,15.54-1.96,18.92,2.2,5.14,7.62,9.07,13.07,9.99,1.45.25,3.76.64,6.39-.3,2.98-1.06,6.1-3.74,9.72-12.68,4.08-10.07,5.03-18.79,5.28-21.24,1.6-15.73-.67-18.1.2-36.35.42-8.94.72-15.16,2.19-23.76,2.34-13.7,5.31-19.73,2.61-22.19-2.89-2.64-9.79,1.01-16.39,5.01-8.55,5.19-15.79,9.59-16.67,16.81-.1.81.49,3.78,1.67,9.73,1.89,9.57,2.88,12.3,1.39,15.63-.26.58-1.79,3.99-5,4.72-.27.06-3.1.66-4.61-1.03-1.13-1.27-.87-3.1.16-9.46,1.32-8.14,1.62-9.63.8-11.49-1.44-3.22-4.91-4.38-5.52-4.57Z"/>
      <path class="cls-1" d="M193.87,178.42c-3.27-.47-6.21,3-7.1,4.06-6.25,7.39-4.52,17.31-3.93,40.85.7,28-1.21,34.91-2.57,38.28-1.79,4.41-2.96,9.09-4.7,13.53-1.42,3.61-2.06,4.9-1.72,6.86.79,4.55,6.16,8.44,11.2,8.24.9-.04,3.27-.26,5.39-1.83,1.92-1.42,6.48-6.07,4.09-32.26-1.58-17.35-4.43-24.65.22-32.49.32-.55,3.43-5.7,5.6-5.03,3.59,1.1,2.93,17.52,1.08,29.28-.75,4.73-3.63,21.04-4.96,35.46-.12,1.34-.38,4.53,1.29,7.55,2.75,4.97,9.81,7.8,14.43,5.49,3.4-1.7,4.85-5.84,6.03-11.67,1.82-8.93,3.54-24.32-1.75-50.79-.94-4.7-2.75-13-6.03-23.11-1.02-3.16-3.62-9.2-8.81-21.27-2.95-6.87-4.68-10.71-7.76-11.15Z"/>
      <path class="cls-1" d="M212.28,159.12c-2.52.03-5.37,1.53-7.2,3.94-.35.47-1.68,2.31-2.09,5.18-.65,4.63,1.67,7.93,4.41,13.31,1.14,2.24,3.1,7.27,7.01,17.32,2.47,6.34,3.7,9.5,5.06,13.99,2.2,7.25,3.27,13,4.18,18,1.43,7.83,2.16,11.74,2.32,16.42.1,2.77-.43,8.61-1.48,20.28-.29,3.28-.75,8.14-.46,14.62.33,7.41,1.28,9,1.93,9.85,2.83,3.72,8.11,3.71,13.53,3.7,2.56,0,3.31-.26,6.81-.78,1.02-.15,2.92-.42,6.73-.86,3.19-.37,5.15-.6,6.65-.68,8.59-.49,10.72,3.24,17.09,1.95,1.65-.33,4.51-.91,6.91-3.3,5.23-5.18,4.02-14.62,2.14-19.85-.79-2.19-2.67-7.42-7.16-9.07-2.14-.79-4.1-.5-5.84-.25-3.99.59-4.81,2.13-9.2,3.68-2.28.8-5.83,2.05-10.01,1.39-4.37-.69-7.33-3.15-8.13-3.82-1.27-1.08-6.11-5.43-7.95-21.09-.85-7.21-.33-10.02-.47-17.12-.26-13.41-2.49-23.35-4.44-32.01-3.03-13.5-6.2-20.74-10.28-26.8-4.01-5.97-7.05-8.04-10.08-8Z"/>
      <path class="cls-1" d="M285.47,167.1c-7.6-3.66-17.93-2.83-26.49-3.2-14.87-.66-19.91-4.82-24.81-.36-2.95,2.69-3.64,6.52-3.84,7.64-1.56,8.67,5.4,12.95,10.21,24.05,7.44,17.15,5.57,37.75,5.03,42.37-.48,4.11-2.28,16.89,2.01,23.13.5.73,1.86,2.71,4.36,3.78,3.31,1.43,6.51.33,7.45,0,2.72-.98,3-2.16,6.47-4.35.49-.31,3.33-2.08,6.55-2.84,1.05-.25,8.46-1.88,12.74,2.22.92.88,2.03,2.35,3.76,13.53,1.58,10.24,1.17,12.41,3.37,14.75,3.73,3.97,9.84,3,10.13,2.95.87-.15,4.3-.8,6.9-3.78,2.74-3.15,1.81-5.75,3.67-16.9.36-2.18,1.06-5.71,2.45-12.77,1.35-6.83,1.56-7.56,1.46-9.31-.37-6.42-3.71-10.93-5.01-12.64-1.27-1.67-4.31-5.56-9.61-7.54-9.35-3.5-17.99,1.83-18.59,2.22-3.24,2.07-3.54,3.61-8.98,7.1-5.25,3.36-7.28,3.42-8.75,2.94-2.74-.9-4.04-3.81-4.44-4.71-1.65-3.71-1.16-8.52,1.4-11.66,2.22-2.72,5.25-3.27,7.71-3.72,3.99-.73,5.83.27,9.58.5,1.62.1,9.71.59,14.25-3.47,7.1-6.35,4.7-23.12.7-24.31-2.44-.72-3.81,4.82-11.68,9.43-2,1.17-10.59,6.21-14.95,2.73-.9-.72-.8-1.15-1.74-4.69-.49-1.84-.51-1.09-1.99-6.72-1.33-5.06-1.05-5.91-.7-6.45.77-1.18,2.44-1.66,3.76-1.37,1.99.43,2.35,2.44,4.19,4.1,3.14,2.85,7.78,2.16,8.88,1.98.58-.09,8.05-1.39,10.51-8.68,1.75-5.17.05-10.62-2.8-13.64-1.25-1.33-2.53-1.98-3.14-2.28Z"/>
      <path class="cls-1" d="M329.05,182.51c-3.49-3.2-6.17-2.41-15.08-4.5-5.29-1.24-6.65-2.06-8.89-1.11-2.92,1.24-4.32,4.19-4.7,5-3.88,8.16,2.61,19.52,4.88,23.5,1.98,3.47,9.13,15.59,22.83,19.98,3.96,1.27,9.44,3.02,14.46.37,4.79-2.53,6.31-7.55,8.02-7.03,1.68.51,1.71,5.81,1.18,14.82-1.11,18.92-3.42,32.12-9.9,39.39-.39.44-1.84,2.03-2.44,1.67-1.22-.74,3.21-8.33,4.18-19.06.43-4.78.81-9.7-1.74-14.8-.64-1.28-3.56-7.1-9.41-8.7-3.14-.86-6.11-.22-7.14,0-2.25.48-3.37.72-3.94,1.57-1.65,2.45,2.94,6.53,5.43,14.7.53,1.74,2.11,7.12,1.42,13.49-.74,6.8-3.28,7.45-4.67,14.77-.84,4.41-2.22,11.7,1.36,16.14,4.06,5.04,12.41,3.79,18.46,2.88,9.19-1.37,15.56-5.54,16.95-6.48,12.21-8.22,16.85-20.9,18.89-26.68,1.86-5.3,5.68-16.52,2.99-30.56-3.31-17.28-14.33-28.64-23.35-34.31-1.87-1.18-14.29-8.98-19.42-4.48-4.27,3.74-.92,13.69-4.47,15.15-1.93.79-5.31-1.2-6.45-4-2.36-5.77,5.87-12.13,3.2-18.49-.57-1.36-1.38-2.11-2.62-3.24Z"/>
      <path class="cls-10" d="M111.32,342.9c-3.31-4.86-6.24-8.76-8.42-11.56,0,0-1.58-2.02-8.98-11.09h0c-3.06,1.17-6.12,2.34-9.19,3.51h0c.07,5.2.23,10.56.49,16.06.23,4.84.53,9.56.89,14.15"/>
      <path class="cls-4" d="M418.46,459.87l-14.86-6.08c-4.78-1.96-7.1-7.5-5.18-12.38l29.81-75.69c1.92-4.88,7.35-7.24,12.14-5.28l14.86,6.08c4.78,1.96,7.1,7.5,5.18,12.38l-29.81,75.69c-1.92,4.88-7.35,7.24-12.14,5.28Z"/>
      <ellipse class="cls-1" cx="429.42" cy="409.49" rx="23.38" ry="10.44" transform="translate(-117.5 639.64) rotate(-66.46)"/>
      <path class="cls-2" d="M398.04,444.11c-.71-1.33-2.73-5.77-3.77-11.93-.9-5.36-2.7-16,3.64-24.55.7-.94,7.34-9.69,15.11-8.88,3.88.4,6.68,3.02,8.63,1.59,1.64-1.22,1.22-4.45,1.05-5.73-.9-6.89-6.26-11.43-8.59-13.35-5.94-4.89-11.99-6.39-16.07-7.35-9.49-2.24-17.24-1.1-19.7-.67-16.43,2.86-26.59,13.8-29.17,16.66-17.18,19.03-14.56,44.89-13.84,51.95,3.2,31.6,24.86,50.09,29.15,53.65,23.76,19.74,58.95,24.7,64.37,15.43,3.82-6.54-6.56-21.19-30.79-66.82Z"/>
      <path class="cls-1" d="M86.49,365.26c1.62.35,2.74.11,3.46-.17,1.74-.67,1.88-1.84,4.3-3.57,1.23-.88,2.04-1.46,3.29-1.75,2.45-.57,3.53.7,5.15-.17.91-.48.64-.91,2.19-2.58,1.22-1.3,2.07-2.21,3.37-2.66,1.86-.64,2.44.43,4.98-.08.55-.11,2.03-.43,3.46-1.5,1.34-1,2.62-2.66,2.62-2.66h0s2.19,6.65,2.19,6.65h0s-.94,1.1-1.6,1.58c-1.25.91-2.3.18-4.22.58-1.17.24-2.02.85-3.71,2.08-3.17,2.29-2.67,3-4.3,3.74-2.88,1.3-4.61-.83-7.26.58-1.67.89-1.5,2.01-3.12,3.41-1.32,1.13-3.61,2.26-7.85,1.99"/>
      <path class="cls-1" d="M427.24,368.23c.42.57,1.12,1.36,2.2,1.86,1.72.81,2.8.09,5.52.59,1.48.27,2.45.45,3.53,1.15,2.13,1.37,2,3.04,3.75,3.6.97.31,1.08-.18,3.34-.23,1.76-.04,3-.06,4.23.56,1.76.9,1.42,2.06,3.57,3.54.42.29,1.69,1.18,3.48,1.45,1.32.19,2.81.04,2.81.04h0s-.07.18-.21.54c-.3.93-.64,1.92-1.05,2.95-.39,1-.8,1.92-1.21,2.78-.05,0-.12,0-.2,0,0,0-.92.03-1.74-.07-1.03-.12-1.77-1.55-3.38-2.64-.99-.67-2.02-.86-4.06-1.22-3.83-.68-3.97.19-5.63-.47-2.93-1.17-2.67-3.92-5.52-4.83-1.69-.54-2.27.35-4.57.15-1.73-.15-4.17-1.02-6.95-4.36"/>
      <path class="cls-4" d="M434.99,361.12c2.68-3.17,4.89-5.83,6.48-7.76,0,0,2.86-3.47,10.89-13.41h0c2.91,1.25,5.82,2.49,8.73,3.74h0c-.72,10.12-1.44,20.24-2.16,30.36h0"/>
      <path class="cls-5" d="M402.05,444.94c7.89,3.12,15.78,6.23,23.67,9.35"/>
      <path class="cls-1" d="M402.57,430.77c.42.57,1.12,1.36,2.2,1.86,1.72.81,2.8.09,5.52.59,1.48.27,2.45.45,3.53,1.15,2.13,1.37,2,3.04,3.75,3.6.97.31,1.08-.18,3.34-.23,1.76-.04,3-.06,4.23.56,1.76.9,1.42,2.06,3.57,3.54.42.29,1.69,1.18,3.48,1.45,1.32.19,2.81.04,2.81.04h0s-.07.18-.21.54c-.3.93-.64,1.92-1.05,2.95-.39,1-.8,1.92-1.21,2.78-.05,0-.12,0-.2,0,0,0-.92.03-1.74-.07-1.03-.12-1.77-1.55-3.38-2.64-.99-.67-2.02-.86-4.06-1.22-3.83-.68-3.97.19-5.63-.47-2.93-1.17-2.67-3.92-5.52-4.83-1.69-.54-2.27.35-4.57.15-1.73-.15-4.17-1.02-6.95-4.36"/>
      <path class="cls-6" d="M454.53,393.82c2.03,4.76,4.74,12.82,4.59,22.96-.09,6.08-.41,25.39-15.27,36.48-1.53,1.14-15.31,11.07-30.98,5.46-14.17-5.08-22.21-20.02-21.67-33.33.45-11.11,6.86-20.15,11.52-23.45,3.57-2.52,7.42-3.27,7.42-3.27,1.39-.27,3.52-.66,6.15,0,1.99.5,3.46,1.4,4.35,2.06-2.58.79-6.66,2.41-10.71,5.79-2.4,2.01-6.7,5.6-8.67,11.79-2.72,8.57.68,16.97,1.99,20.2.11.27.2.49.33.79,1.11,2.51,4.45,8.94,11.32,11.1,10.2,3.2,19.61-5.7,20.5-6.56,10.28-10,11.51-28.74,11.51-28.74-.03-.66-.07-1.31-.1-1.97.18-.45.36-.91.53-1.36,1.29-3.28,2.6-6.51,3.94-9.71"/>
      <path class="cls-5" d="M86.11,353.97c8.4-3.69,16.81-7.38,25.21-11.07"/>
      <path class="cls-5" d="M435.87,360.66c7.6,3.14,15.2,6.28,22.8,9.42"/>
    </g>
  </g>
</svg>