<?xml version="1.0" encoding="UTF-8"?>
<svg xmlns="http://www.w3.org/2000/svg" version="1.1" viewBox="0 0 742 660">
  <defs>
    <style>
      .cls-1 {
        fill: #090c0c;
      }

      .cls-2 {
        fill: #e9d3e5;
      }

      .cls-3 {
        fill: #dac3da;
      }

      .cls-4, .cls-5 {
        fill: #f3db6a;
      }

      .cls-5 {
        stroke: #231f20;
        stroke-miterlimit: 10;
      }

      .cls-6 {
        fill: #caacca;
      }

      .cls-7 {
        fill: #fff;
      }

      .cls-8 {
        fill: #fffff9;
      }

      .cls-9 {
        fill: #95b8c6;
      }

      .cls-10 {
        fill: #f7a690;
      }
    </style>
  </defs>
  <!-- Generator: Adobe Illustrator 28.7.1, SVG Export Plug-In . SVG Version: 1.2.0 Build 142)  -->
  <g>
    <g id="Layer_1">
      <path class="cls-6" d="M414.15,98.29c-.26-1.03-.95-3.82-3.16-4.89-5.13-2.48-15.26,5.81-20,14.74-4.9,9.23-3.72,18.56-2.63,20.87.08.17,1.4,2.87,3.21,6.44.01.02.02.03.04,0,23.18-27.71,23.42-33.69,22.55-37.17Z"/>
      <path class="cls-2" d="M610.4,199.12c-4.6-.79-12.57-1.55-21.98.82-13.07,3.28-21.08,10.62-22.8,12.24-11.95,11.32-14.34,25.8-15.47,32.65-4.06,24.62,3.67,62.83,33.38,79.99,29.52,17.05,66.03,4.8,86.3-10.61,50.7-38.56,49.2-134.47,13.84-195.08-27.68-47.44-73.49-68.75-87.11-75.09-14.5-6.74-37.21-17.02-68.39-17.14-11.57-.05-47.91-.19-78.97,23.67-12.98,9.97-21.56,21.46-31.75,35.1-7.77,10.39-6.66,10.52-24.42,39.18-23.6,38.07-35.59,57.24-44.78,63.67-4.31,3.01-10.28,6.57-9.77,10.61.85,6.72,18.91,8.82,31.75,11.43,40.44,8.22,75.38,30.96,94.44,49.79,25.43,25.13,27.32,48.01,37.45,46.52,14.74-2.16,7.73-50.12,39.89-82.44,14.72-14.8,32.68-21.31,46.4-24.49"/>
      <path class="cls-3" d="M612.93,194.03c-.63-3.46-27.23-5.88-51.2,6.52-6.23,3.23-22.46,11.91-31.69,30.96-10.53,21.73-5.08,42.77-2.44,52.96,10.21,39.38,42.56,59.12,48.76,62.74,9.01,5.26,40.88,23.86,75.58,12.22,39.6-13.29,53.7-58.12,59.32-75.77,4.83-15.16,5.91-27.29,6.65-36.31.68-8.22,3.31-46.79-14.78-90.79-7.01-17.06-16.46-33.29-17.62-32.77-.83.37,2.68,9.11,5.8,19.33,7.13,23.34,8.1,42.32,9.33,52.83,1.78,15.32,5.61,48.29-9.7,82.01-6.11,13.46-14.01,30.9-33.32,41.55-19.3,10.64-44.84,11.82-65.01.81-37.77-20.6-44.62-77.29-26.01-102.66,15.24-20.77,47.02-19.82,46.32-23.63Z"/>
      <path class="cls-3" d="M720,154.11"/>
      <path class="cls-7" d="M449.45,106.85s-.04.05-.1.13c-3.49,4.49-6.13,8.34-6.79,9.35-2.06,3.15-5.35,10.09-6.58,18.81-.74,5.29-1.77,12.59,1.76,20.26,1.21,2.64,2.78,6.05,6.41,8.2,5.89,3.49,12.81,1.1,15.56.16,12.27-4.22,17.76-16.25,19.08-19.45,1.95-4.72,8.02-19.42-.8-30.23-6.26-7.67-17.63-10.48-28.55-7.24Z"/>
      <path class="cls-1" d="M438.01,131.82c.63-1.05.95-1.58,1.66-1.99,2.86-1.67,7.47,1.32,9.56,3.16,3.45,3.05,4.43,6.85,4.63,7.7,1.2,5.1-.73,9.16-1.38,10.47-.53,1.08-4,8.1-8.97,7.7-3.18-.25-5.27-3.42-5.62-3.95-1.13-1.72-1.33-3.39-1.74-6.72-.07-.59-.39-3.36-.18-7.29.33-6.1,1.58-8.34,2.03-9.08Z"/>
      <ellipse class="cls-8" cx="449.16" cy="147.06" rx="1.89" ry="1.89"/>
      <path class="cls-6" d="M450.52,106.67c2.34.42,4.42,1.84,6.75,2.35,4.61,1.01,9.25,6.71,10.85,8.68,0,0,4.55,5.58,8.21,18.24.77,2.66,1.16,3.99,1.2,4.53.12,1.42-.03,2.5.71,3.11.77.65,2,.35,2.2.29,2.46-.65,3.52-4.68,4.11-7.21,1.74-7.46,2.89-12.39,2.49-21.03-.45-9.93-2.44-13.83-3.08-15-1.09-2.01-2.55-4.62-5.57-6.32-3.55-2-7.12-1.53-11-1.03-5.88.77-9.79,3.11-11.71,4.3,0,0-3.24,2-6.25,6.42-.27.4-.75,1.17-.49,1.79.28.65,1.24.81,1.58.87Z"/>
      <path class="cls-2" d="M520.43,358.14c7.34,3.88,17.17,10.6,23.23,22.02,6.11,11.52,1.96,16.14,6.15,33.3,6.61,27.03,23.39,46.28,28.29,51.8,6.27,7.05,7.38,6.63,12.92,13.57,3.62,4.53,13.7,17.95,18.45,34.53,9.07,31.65-5.31,60.78-9.84,69.07-3.71,6.79-17.7,31.51-47.98,43.78,0,0-37.32,15.13-78.88-3.53,0,0-12.42-5.58-30.9-20.52,0,0-3.57-2.89-7.24-7.38-1.09-1.34-2.47-3.18-3.6-5.78-.33-.75-.56-1.4-.71-1.86,1.26-.33,3.13-.95,5.11-2.19,2.92-1.82,4.46-4.1,5.06-4.65,15.15-13.89,46.92-37.14,47.19-37.34,0,0,4.02,8.22,6.15,10.48,8.85,9.37,24.48,10.94,36.29,6.78,12.23-4.31,18.35-14.06,21.53-19.12,8.6-13.71,8.44-27.58,8-33.3-.86-11.05-4.83-18.43-11.69-30.83-4.82-8.71-12.56-20.9-24.6-33.92"/>
      <ellipse class="cls-9" cx="302.1" cy="401.26" rx="227.3" ry="221.27"/>
      <path class="cls-10" d="M163.89,513.75l-28.1,10.2c-4.14,1.5-8.7-.64-10.2-4.79l-29.19-80.78c-1.5-4.15.64-8.72,4.78-10.23l28.1-10.2c4.14-1.5,8.7.64,10.2,4.79l29.19,80.78c1.5,4.15-.64,8.72-4.78,10.23Z"/>
      <ellipse class="cls-1" cx="136.43" cy="477.52" rx="12.93" ry="28.64" transform="translate(-144.55 68.02) rotate(-18.51)"/>
      <path class="cls-2" d="M146.41,444.46c6.9,1.29,19.56,4.71,30.49,15.01,19.77,18.63,19.13,45.87,18.85,57.81-.25,10.47-.65,27.42-11.64,43.91-21.44,32.17-62.87,32.8-68.19,32.79-29.15-.04-49.57-14.97-56.94-21.08-24.27-20.1-30.36-46.69-33.42-60.07-8.3-36.22,1.9-65.91,11.27-93.19.82-2.38,4.48-12.82,12.19-24.75,9.33-14.43,17.19-19.61,21.22-21.88,2.75-1.55,5.17-2.56,6.82-3.18-.51,3.01-1.12,7.52-1.24,13.02-.25,11.49,1.81,19.92,2.41,22.72,4.31,20.25-9.31,30.07-6.65,56.14.89,8.78,3.04,27.75,15.52,47.24,4.88,7.61,12.71,19.51,27.72,26.68,5.1,2.43,13.18,6.17,23.84,5,2.38-.26,15.61-1.93,24.39-12.23,17.93-21-.41-57.08-1.66-59.47-3.78-7.21-8.12-12.39-11.09-15.56"/>
      <path class="cls-1" d="M127.14,519.78c.85.18,2.14.32,3.55-.1,2.26-.68,2.68-2.22,5.62-4.01,1.59-.97,2.64-1.61,4.22-1.86,3.09-.49,4.32,1.13,6.39.21,1.16-.52.86-1.06,2.92-2.96,1.61-1.49,2.74-2.53,4.39-2.97,2.36-.63,2.99.72,6.18.3.62-.08,2.53-.31,4.41-1.55,1.38-.91,2.65-2.28,2.65-2.28h0s.08.22.24.66c.48,1.1.95,2.29,1.4,3.56.44,1.24.81,2.42,1.12,3.55-.04.04-.11.1-.18.18,0,0-.84.79-1.68,1.38-1.05.74-2.9.04-5.28.37-1.47.2-2.57.88-4.77,2.23-4.12,2.54-3.54,3.45-5.63,4.21-3.67,1.35-5.65-1.38-9.04.13-2.01.9-1.84,2.19-4.14,3.9-1.74,1.29-4.7,2.5-10,1.74"/>
      <path class="cls-6" d="M150.29,453.35c1.62.59,3.77,1.48,6.17,2.82,0,0,6.13,3.42,11.32,9.16,12.89,14.25,12.97,32.9,12.97,32.9,0,1.39-.3,28.04-21.2,40.49-21.86,13.01-46.72-1.14-52.28-4.3-12.78-7.27-19.73-17.39-24.81-24.79-1.82-2.65-10.62-15.74-15.34-35.84-4.34-18.48-2.99-33.3-1.9-44.17,0,0,.94-9.41,10.72-49.74h0c2.66,23.03,6.13,42.1,9.05,56.1,6.07,29.09,10.43,39.45,15.24,48.03,7.03,12.55,15.03,26.88,30.75,30.83,9.66,2.43,24.67,1.58,32.05-8.25,8.42-11.22,5.3-31.99-11.26-46.03"/>
      <path class="cls-2" d="M131.3,449.32c.55,1.58,1.9,6.14.11,11.3-.37,1.06-3.24,8.96-10.66,10.31-6.8,1.24-12.89-3.85-15.04-8.33-.02-.05-.05-.13-.2-.46-1.52-3.53-2-4.44-2.57-5.84-.9-2.19-1.39-3.99-1.54-4.55-.94-3.56-.75-5.24-1.31-5.36-.83-.17-2.53,3.22-3.29,6.07-1.04,3.89-3.87,14.51,3.11,23.07,6.46,7.93,17.9,9.87,26.65,6.07,6.87-2.98,12.92-9.86,13.32-17.52.07-1.41.3-5.78-2.6-9.89-2.03-2.87-4.64-4.27-6-4.88Z"/>
      <path class="cls-6" d="M105.27,461.6h0s.6,2.87,1.76,4.96c0,0,1,1.8,2.92,3.3,3.67,2.88,10.69,2.91,15.89-.36,5.38-3.38,7.79-9.63,7.32-14.5-.26-2.66-1.46-5.75-1.86-5.68-.26.04-.17,1.33-.22,2.74,0,0-.18,4.41-1.93,8.32-.44.97-3,6.69-8.91,8.13-3.88.95-7.93-.26-10.47-2.25-1.93-1.51-4.5-4.67-4.5-4.67Z"/>
      <path class="cls-10" d="M131.41,419.32c-4.11-5.94-7.75-10.7-10.47-14.12,0,0-1.96-2.47-11.16-13.55h0c-3.8,1.43-7.61,2.86-11.41,4.29h0c.09,6.35.28,12.9.61,19.62.29,5.91.66,11.68,1.1,17.29"/>
      <path class="cls-4" d="M513.06,562.21l-18.46-7.43c-5.94-2.39-8.82-9.16-6.44-15.12l37.04-92.47c2.39-5.96,9.14-8.85,15.08-6.46l18.46,7.43c5.94,2.39,8.82,9.16,6.44,15.12l-37.04,92.47c-2.39,5.96-9.14,8.85-15.08,6.46Z"/>
      <ellipse class="cls-1" cx="526.67" cy="500.67" rx="28.64" ry="12.94" transform="translate(-145.32 777.21) rotate(-65.92)"/>
      <path class="cls-2" d="M487.69,542.96c-.88-1.62-3.4-7.05-4.69-14.57-1.12-6.55-3.35-19.54,4.52-29.99.86-1.15,9.12-11.83,18.77-10.85,4.83.49,8.31,3.69,10.72,1.94,2.04-1.49,1.52-5.43,1.31-6.99-1.12-8.42-7.78-13.97-10.67-16.31-7.38-5.97-14.9-7.81-19.97-8.98-11.8-2.74-21.42-1.34-24.48-.82-20.42,3.49-33.04,16.86-36.24,20.35-21.34,23.25-18.09,54.84-17.2,63.46,3.98,38.6,30.89,61.19,36.22,65.54,29.52,24.11,73.25,30.18,79.98,18.85,4.75-7.99-8.15-25.88-38.26-81.62Z"/>
      <path class="cls-1" d="M100.55,446.63c2.02.42,3.41.13,4.3-.2,2.17-.81,2.33-2.25,5.35-4.36,1.53-1.07,2.54-1.78,4.09-2.13,3.05-.69,4.38.85,6.39-.2,1.13-.59.79-1.12,2.73-3.15,1.51-1.59,2.57-2.7,4.19-3.25,2.31-.78,3.03.52,6.19-.1.69-.14,2.53-.52,4.3-1.83,1.66-1.22,3.25-3.25,3.25-3.25h0s2.73,8.12,2.73,8.12h0s-1.16,1.34-1.99,1.93c-1.56,1.11-2.85.22-5.24.71-1.45.3-2.51,1.04-4.61,2.54-3.94,2.8-3.31,3.67-5.35,4.57-3.58,1.58-5.73-1.01-9.02.71-2.08,1.09-1.86,2.46-3.88,4.16-1.64,1.38-4.49,2.76-9.75,2.44"/>
      <path class="cls-1" d="M523.97,450.26c.52.7,1.4,1.66,2.73,2.28,2.14.99,3.48.11,6.86.72,1.84.33,3.05.55,4.39,1.4,2.64,1.68,2.49,3.71,4.65,4.4,1.21.38,1.35-.22,4.15-.28,2.19-.05,3.73-.08,5.25.69,2.18,1.09,1.77,2.52,4.43,4.32.52.35,2.1,1.44,4.32,1.77,1.64.24,3.49.05,3.49.05h0s-.09.22-.26.65c-.37,1.14-.8,2.35-1.3,3.6-.49,1.22-1,2.35-1.5,3.4-.06,0-.15,0-.25,0,0,0-1.15.03-2.17-.08-1.28-.14-2.2-1.89-4.2-3.22-1.23-.82-2.51-1.04-5.05-1.49-4.76-.83-4.93.23-7-.58-3.64-1.42-3.32-4.78-6.86-5.91-2.1-.66-2.82.43-5.68.18-2.15-.19-5.18-1.24-8.64-5.33"/>
      <path class="cls-4" d="M533.6,441.58c3.33-3.88,6.08-7.13,8.05-9.48,0,0,3.56-4.24,13.54-16.38h0c3.62,1.52,7.23,3.04,10.85,4.56h0c-.89,12.36-1.79,24.72-2.68,37.09h0"/>
      <path class="cls-5" d="M492.66,543.97c9.8,3.81,19.61,7.61,29.41,11.42"/>
      <path class="cls-1" d="M493.32,526.66c.52.7,1.4,1.66,2.73,2.28,2.14.99,3.48.11,6.86.72,1.84.33,3.05.55,4.39,1.4,2.64,1.68,2.49,3.71,4.65,4.4,1.21.38,1.35-.22,4.15-.28,2.19-.05,3.73-.08,5.25.69,2.18,1.09,1.77,2.52,4.43,4.32.52.35,2.1,1.44,4.32,1.77,1.64.24,3.49.05,3.49.05h0s-.09.22-.26.65c-.37,1.14-.8,2.35-1.3,3.6-.49,1.22-1,2.35-1.5,3.4-.06,0-.15,0-.25,0,0,0-1.15.03-2.17-.08-1.28-.14-2.2-1.89-4.2-3.22-1.23-.82-2.51-1.04-5.05-1.49-4.76-.83-4.93.23-7-.58-3.64-1.42-3.32-4.78-6.86-5.91-2.1-.66-2.82.43-5.68.18-2.15-.19-5.18-1.24-8.64-5.33"/>
      <path class="cls-6" d="M557.88,481.53c2.52,5.82,5.89,15.67,5.7,28.05-.12,7.43-.51,31.02-18.98,44.56-1.9,1.39-19.03,13.53-38.5,6.67-17.6-6.2-27.6-24.46-26.92-40.72.56-13.57,8.52-24.61,14.32-28.64,4.43-3.08,9.23-4,9.23-4,1.73-.33,4.38-.81,7.65,0,2.47.61,4.29,1.72,5.41,2.51-3.21.97-8.27,2.94-13.31,7.08-2.99,2.45-8.33,6.84-10.77,14.4-3.38,10.47.84,20.73,2.47,24.67.13.33.25.59.41.97,1.38,3.07,5.52,10.92,14.07,13.55,12.67,3.9,24.37-6.96,25.47-8.01,12.78-12.22,14.3-35.11,14.3-35.11-.04-.8-.08-1.6-.12-2.4.22-.56.44-1.11.66-1.67,1.6-4.01,3.24-7.96,4.89-11.86"/>
      <path class="cls-5" d="M100.08,432.85c10.44-4.51,20.88-9.02,31.33-13.53"/>
      <path class="cls-5" d="M534.69,441.01c9.44,3.83,18.88,7.67,28.33,11.5"/>
    </g>
  </g>
</svg>