<?xml version="1.0" encoding="UTF-8"?>
<svg xmlns="http://www.w3.org/2000/svg" version="1.1" viewBox="0 0 612 792">
  <defs>
    <style>
      .cls-1 {
        fill: #fffef9;
      }

      .cls-2 {
        fill: #231f20;
        font-family: Crayonize-Regular, Crayonize;
        font-size: 21.71px;
      }

      .cls-3, .cls-4 {
        fill: #f3db6a;
      }

      .cls-5 {
        fill: #dbc5db;
      }

      .cls-6 {
        fill: #f8a791;
      }

      .cls-7 {
        fill: #e9d3e4;
      }

      .cls-8 {
        fill: #0b0d0d;
      }

      .cls-9 {
        fill: #96b8c6;
      }

      .cls-10 {
        fill: #fff;
      }

      .cls-4 {
        stroke: #231f20;
        stroke-miterlimit: 10;
      }

      .cls-11 {
        fill: #caaccb;
      }
    </style>
  </defs>
  <!-- Generator: Adobe Illustrator 28.7.1, SVG Export Plug-In . SVG Version: 1.2.0 Build 142)  -->
  <g>
    <g id="octopus-logo">
      <path class="cls-11" d="M331.75,255.42c-.15-.62-.56-2.28-1.85-2.92-3-1.48-8.93,3.48-11.69,8.81-2.86,5.52-2.18,11.1-1.54,12.47.05.1.82,1.72,1.88,3.85,0,.01,0,.02.02,0,13.56-16.57,13.69-20.14,13.19-22.22Z"/>
      <path class="cls-7" d="M446.52,315.69c-2.69-.47-7.35-.92-12.85.49-7.65,1.96-12.33,6.35-13.33,7.32-6.99,6.77-8.39,15.42-9.05,19.52-2.37,14.72,2.15,37.56,19.52,47.82,17.27,10.19,38.61,2.87,50.47-6.34,29.65-23.05,28.77-80.38,8.09-116.61-16.19-28.36-42.98-41.1-50.94-44.89-8.48-4.03-21.76-10.17-39.99-10.25-6.77-.03-28.02-.11-46.18,14.15-7.59,5.96-12.61,12.83-18.57,20.98-4.54,6.21-3.89,6.29-14.28,23.42-13.8,22.76-20.81,34.21-26.19,38.06-2.52,1.8-6.01,3.93-5.71,6.34.5,4.02,11.06,5.27,18.57,6.83,23.65,4.91,44.09,18.51,55.23,29.76,14.87,15.02,15.98,28.7,21.9,27.81,8.62-1.29,4.52-29.96,23.33-49.28,8.61-8.85,19.11-12.74,27.14-14.64"/>
      <path class="cls-5" d="M448,312.65c-.37-2.07-15.92-3.52-29.94,3.9-3.65,1.93-13.14,7.12-18.53,18.51-6.16,12.99-2.97,25.57-1.43,31.66,5.97,23.54,24.89,35.34,28.51,37.5,5.27,3.14,23.91,14.27,44.2,7.31,23.16-7.94,31.4-34.74,34.69-45.3,2.83-9.06,3.45-16.31,3.89-21.71.4-4.92,1.94-27.97-8.64-54.27-4.1-10.2-9.63-19.9-10.3-19.59-.49.22,1.57,5.45,3.39,11.56,4.17,13.95,4.74,25.3,5.45,31.58,1.04,9.16,3.28,28.87-5.67,49.03-3.57,8.04-8.19,18.47-19.49,24.84-11.29,6.36-26.22,7.06-38.02.49-22.09-12.32-26.09-46.21-15.21-61.37,8.91-12.41,27.5-11.85,27.09-14.12Z"/>
      <path class="cls-5" d="M510.62,288.79"/>
      <path class="cls-10" d="M352.4,260.53s-.02.03-.06.08c-2.04,2.68-3.58,4.98-3.97,5.59-1.2,1.88-3.13,6.03-3.85,11.25-.43,3.16-1.03,7.52,1.03,12.11.71,1.58,1.63,3.62,3.75,4.9,3.45,2.08,7.49.66,9.1.1,7.17-2.52,10.39-9.71,11.16-11.63,1.14-2.82,4.69-11.61-.47-18.07-3.66-4.58-10.31-6.26-16.69-4.33Z"/>
      <path class="cls-8" d="M345.71,275.46c.37-.62.56-.94.97-1.19,1.67-1,4.37.79,5.59,1.89,2.02,1.82,2.59,4.09,2.71,4.61.7,3.05-.43,5.48-.81,6.26-.31.64-2.34,4.84-5.24,4.61-1.86-.15-3.08-2.04-3.28-2.36-.66-1.03-.78-2.02-1.01-4.02-.04-.35-.23-2.01-.1-4.36.19-3.65.92-4.99,1.18-5.43Z"/>
      <ellipse class="cls-1" cx="352.23" cy="284.57" rx="1.1" ry="1.13"/>
      <path class="cls-11" d="M353.02,260.42c1.37.25,2.59,1.1,3.95,1.41,2.7.61,5.41,4.01,6.35,5.19,0,0,2.66,3.34,4.8,10.9.45,1.59.68,2.38.7,2.71.07.85-.02,1.49.41,1.86.45.39,1.17.21,1.29.18,1.44-.39,2.06-2.8,2.4-4.31,1.02-4.46,1.69-7.41,1.46-12.57-.26-5.93-1.43-8.27-1.8-8.97-.64-1.2-1.49-2.76-3.26-3.78-2.08-1.2-4.17-.92-6.43-.62-3.44.46-5.72,1.86-6.85,2.57,0,0-1.9,1.19-3.65,3.84-.16.24-.44.7-.28,1.07.16.39.72.48.92.52Z"/>
      <path class="cls-7" d="M393.91,410.75c4.29,2.32,10.04,6.34,13.59,13.16,3.57,6.89,1.14,9.65,3.6,19.91,3.87,16.16,13.68,27.67,16.55,30.97,3.67,4.21,4.32,3.96,7.55,8.11,2.11,2.71,8.01,10.73,10.79,20.64,5.3,18.92-3.11,36.33-5.76,41.29-2.17,4.06-10.35,18.83-28.06,26.17,0,0-21.82,9.04-46.13-2.11,0,0-7.26-3.33-18.07-12.27-1.13-.84-2.78-2.25-4.23-4.41-1.43-2.13-4.21-6.27-2.63-10.27,1.59-4.04,6.53-5.17,7.18-5.31-2.2,4.25-4.69,9.32-4.08,9.7.38.24,1.66-1.57,2.96-2.78,8.86-8.31,27.44-22.2,27.59-22.32,0,0,2.35,4.91,3.6,6.27,5.18,5.6,14.32,6.54,21.22,4.06,7.15-2.58,10.73-8.4,12.59-11.43,5.03-8.19,4.94-16.49,4.68-19.91-.5-6.6-2.82-11.02-6.83-18.43-2.82-5.21-7.34-12.49-14.39-20.28"/>
      <ellipse class="cls-9" cx="266.23" cy="436.52" rx="132.93" ry="132.27"/>
      <path class="cls-6" d="M185.4,503.77l-16.43,6.1c-2.42.9-5.09-.38-5.97-2.86l-17.07-48.29c-.88-2.48.37-5.22,2.79-6.11l16.43-6.1c2.42-.9,5.09.38,5.97,2.86l17.07,48.29c.88,2.48-.37,5.22-2.79,6.11Z"/>
      <ellipse class="cls-8" cx="169.34" cy="482.11" rx="7.58" ry="17.08" transform="translate(-140.34 75.66) rotate(-17.95)"/>
      <path class="cls-7" d="M189.41,471.32c10.65,6.39,13.31,23.63,11.18,36.11-.77,4.49-3.4,15.56-13.17,24.44-12.49,11.34-27.69,10.99-33.81,10.84-17.39-.4-29.31-9.05-33.17-12.12-10.76-8.56-15.53-18.87-17.42-23.73-1.5-5.81-2.84-13.28-2.96-22.02-.07-5.24.21-16.63,4.6-30.23,1.58-4.88,3.96-12.08,9.41-20.12,7.07-10.44,13.65-13.96,15.44-14.86,2.06-1.04,3.87-1.69,5.14-2.09-.07.55-.18,1.36-.32,2.35-.58,4.28-.87,6.43-.96,7.41-.27,2.8-.43,4.45-.27,6.68.2,2.67.79,4.59.89,5.1,2.42,12.11-5.22,17.98-3.74,33.56.5,5.25,1.71,16.59,8.72,28.24,2.74,4.55,7.14,11.66,15.56,15.95,2.86,1.46,7.4,3.69,13.39,2.99,7.67-.89,12.52-6.02,13.7-7.31,7.37-8.06,8.29-28.23,2.76-35.02,0,0,0,0,0,0-4.27-5.07-6.29-7.7-5.96-8.34.59-1.15,6.37-.61,10.98,2.16Z"/>
      <path class="cls-8" d="M163.91,507.37c.5.11,1.25.19,2.08-.06,1.32-.41,1.57-1.33,3.28-2.4.93-.58,1.55-.96,2.47-1.11,1.81-.3,2.53.68,3.74.13.68-.31.5-.63,1.71-1.77.94-.89,1.6-1.51,2.57-1.78,1.38-.38,1.75.43,3.61.18.36-.05,1.48-.19,2.58-.92.81-.54,1.55-1.36,1.55-1.36h0s.05.13.14.4c.28.66.56,1.37.82,2.13.26.74.47,1.45.65,2.12-.02.02-.06.06-.11.1,0,0-.49.47-.98.82-.62.44-1.7.03-3.09.22-.86.12-1.5.53-2.79,1.34-2.41,1.52-2.07,2.06-3.29,2.52-2.15.81-3.3-.83-5.29.08-1.18.54-1.07,1.31-2.42,2.33-1.02.77-2.75,1.5-5.85,1.04"/>
      <path class="cls-11" d="M177.45,467.66c.95.35,2.21.89,3.61,1.69,0,0,3.59,2.05,6.62,5.47,7.54,8.52,7.59,19.67,7.59,19.67,0,.83-.18,16.76-12.4,24.2-12.78,7.78-27.32-.68-30.58-2.57-7.48-4.35-11.54-10.4-14.51-14.82-1.06-1.58-6.21-9.41-8.97-21.42-2.54-11.05-1.75-19.91-1.11-26.41,0,0,.55-5.62,6.27-29.74,1.55,13.77,3.58,25.17,5.29,33.54,3.55,17.39,6.1,23.58,8.91,28.71,4.11,7.5,8.79,16.07,17.98,18.43,5.7,1.46,14.31.79,18.74-4.93,5.12-6.6,3.64-18.61-5.49-26.9"/>
      <path class="cls-7" d="M166.34,465.26c.32.94,1.11,3.67.07,6.75-.21.63-1.9,5.36-6.24,6.16-3.98.74-7.54-2.3-8.8-4.98-.01-.03-.03-.08-.12-.28-.89-2.11-1.17-2.66-1.5-3.49-.53-1.31-.81-2.39-.9-2.72-.55-2.13-.44-3.13-.77-3.2-.49-.1-1.48,1.92-1.92,3.63-.61,2.32-2.26,8.67,1.82,13.79,3.78,4.74,10.47,5.9,15.58,3.63,4.02-1.78,7.56-5.9,7.79-10.47.04-.84.18-3.46-1.52-5.91-1.18-1.71-2.71-2.55-3.51-2.92Z"/>
      <path class="cls-11" d="M151.12,472.6h0s.35,1.72,1.03,2.96c0,0,.59,1.08,1.7,1.97,2.15,1.72,6.25,1.74,9.29-.21,3.14-2.02,4.56-5.75,4.28-8.67-.15-1.59-.85-3.44-1.09-3.4-.15.03-.1.79-.13,1.64,0,0-.1,2.64-1.13,4.97-.26.58-1.76,4-5.21,4.86-2.27.57-4.64-.15-6.12-1.34-1.13-.9-2.63-2.79-2.63-2.79Z"/>
      <path class="cls-8" d="M188.46,338.17c-3.8-1.19-7.59,1.99-10.06,4.06-5.88,4.93-7.76,11.27-8.1,12.45-.31,1.11-1.24,4.69-.87,9.4.17,2.12.75,9.42,6.04,15.08,4.09,4.39,10.87,7.65,12.99,5.61,1.38-1.33-.23-3.96-.91-13.15-.62-8.33.42-9.91,1.28-10.64,1.73-1.47,5.06-1.5,6.59.19,1.68,1.87.48,5.04-2.56,17.79-1.99,8.32-2.24,10.19-1.29,12.4,1.45,3.37,5.02,5.94,8.61,6.55.96.16,2.48.42,4.21-.19,1.96-.7,4.02-2.45,6.4-8.32,2.68-6.6,3.31-12.32,3.48-13.92,1.06-10.31-.44-11.86.13-23.83.28-5.86.47-9.94,1.44-15.58,1.54-8.98,3.49-12.94,1.72-14.55-1.9-1.73-6.45.66-10.79,3.29-5.63,3.4-10.4,6.28-10.98,11.02-.06.53.32,2.48,1.1,6.38,1.25,6.28,1.9,8.07.91,10.25-.17.38-1.18,2.62-3.29,3.09-.18.04-2.04.43-3.03-.67-.74-.83-.57-2.03.1-6.2.87-5.34,1.07-6.32.52-7.53-.95-2.11-3.23-2.87-3.63-3Z"/>
      <path class="cls-8" d="M225.83,324.19c-2.28-.31-4.34,1.96-4.96,2.65-4.36,4.83-3.16,11.31-2.75,26.7.49,18.3-.85,22.82-1.8,25.02-1.25,2.88-2.07,5.94-3.28,8.84-.99,2.36-1.44,3.21-1.2,4.49.55,2.98,4.3,5.51,7.83,5.38.63-.02,2.29-.17,3.76-1.2,1.34-.93,4.52-3.97,2.86-21.08-1.1-11.34-3.1-16.11.15-21.23.23-.36,2.39-3.72,3.91-3.29,2.51.72,2.05,11.45.75,19.14-.52,3.09-2.53,13.75-3.46,23.18-.09.87-.26,2.96.9,4.93,1.92,3.25,6.85,5.1,10.08,3.59,2.38-1.11,3.39-3.82,4.21-7.63,1.27-5.84,2.47-15.89-1.23-33.2-.66-3.07-1.92-8.5-4.21-15.1-.72-2.06-2.53-6.01-6.15-13.9-2.06-4.49-3.27-7-5.42-7.29Z"/>
      <path class="cls-8" d="M236.68,309.66c-1.83.03-3.9,1.12-5.23,2.88-.26.34-1.22,1.69-1.52,3.78-.48,3.38,1.21,5.79,3.21,9.72.83,1.63,2.25,5.31,5.1,12.65,1.79,4.63,2.69,6.94,3.68,10.21,1.6,5.3,2.37,9.49,3.04,13.14,1.04,5.72,1.57,8.57,1.69,11.99.07,2.03-.31,6.29-1.07,14.81-.21,2.4-.54,5.94-.33,10.68.24,5.41.93,6.57,1.4,7.2,2.06,2.71,5.89,2.71,9.83,2.7,1.86,0,2.4-.19,4.95-.57.74-.11,2.12-.31,4.89-.63,2.32-.27,3.75-.44,4.83-.5,6.24-.36,7.79,2.36,12.42,1.42,1.2-.24,3.28-.67,5.02-2.41,3.8-3.78,2.92-10.68,1.55-14.49-.57-1.6-1.94-5.41-5.2-6.63-1.56-.58-2.98-.37-4.25-.18-2.9.43-3.49,1.56-6.69,2.68-1.66.59-4.24,1.5-7.27,1.01-3.17-.51-5.33-2.3-5.91-2.79-.92-.79-4.44-3.96-5.77-15.4-.61-5.26-.24-7.32-.34-12.5-.19-9.8-1.81-17.05-3.23-23.38-2.2-9.86-4.51-15.14-7.47-19.57-2.92-4.36-5.12-5.87-7.33-5.84Z"/>
      <path class="cls-8" d="M289.12,313.74c-5.52-2.67-13.03-2.06-19.25-2.34-10.81-.48-14.47-3.52-18.03-.26-2.15,1.96-2.65,4.76-2.79,5.58-1.13,6.33,3.92,9.46,7.42,17.56,5.4,12.52,4.04,27.57,3.65,30.94-.35,3-1.66,12.33,1.46,16.89.36.53,1.35,1.98,3.16,2.76,2.41,1.04,4.73.24,5.41,0,1.98-.71,2.18-1.58,4.7-3.18.35-.23,2.42-1.52,4.76-2.07.76-.18,6.15-1.37,9.26,1.62.67.64,1.48,1.71,2.73,9.88,1.15,7.48.85,9.06,2.45,10.77,2.71,2.9,7.15,2.19,7.36,2.16.63-.11,3.13-.58,5.01-2.76,1.99-2.3,1.32-4.2,2.67-12.34.27-1.6.77-4.17,1.78-9.33.98-4.99,1.13-5.52,1.06-6.8-.27-4.69-2.7-7.98-3.64-9.23-.92-1.22-3.13-4.06-6.98-5.51-6.79-2.56-13.07,1.34-13.51,1.62-2.35,1.51-2.57,2.64-6.53,5.18-3.81,2.46-5.29,2.5-6.36,2.14-1.99-.66-2.93-2.78-3.22-3.44-1.2-2.71-.84-6.22,1.02-8.51,1.61-1.98,3.81-2.39,5.6-2.72,2.9-.53,4.23.2,6.96.36,1.18.07,7.06.43,10.35-2.54,5.16-4.64,3.42-16.88.51-17.75-1.77-.53-2.77,3.52-8.49,6.88-1.45.85-7.7,4.53-10.86,1.99-.65-.52-.58-.84-1.27-3.43-.36-1.35-.37-.8-1.45-4.9-.97-3.69-.76-4.32-.51-4.71.56-.86,1.77-1.21,2.73-1,1.45.31,1.71,1.78,3.04,3,2.28,2.08,5.65,1.57,6.45,1.45.42-.07,5.85-1.02,7.64-6.34,1.27-3.78.04-7.75-2.04-9.96-.91-.97-1.84-1.45-2.28-1.66Z"/>
      <path class="cls-8" d="M318.68,320.96c-2.53-2.34-4.48-1.76-10.96-3.28-3.85-.91-4.83-1.5-6.46-.81-2.12.9-3.14,3.06-3.42,3.65-2.82,5.96,1.9,14.26,3.55,17.16,1.44,2.53,6.63,11.39,16.59,14.59,2.88.93,6.86,2.21,10.51.27,3.48-1.85,4.58-5.52,5.82-5.13,1.22.37,1.24,4.24.86,10.83-.81,13.81-2.48,23.46-7.19,28.76-.29.32-1.34,1.48-1.77,1.22-.89-.54,2.34-6.08,3.04-13.92.31-3.49.59-7.08-1.27-10.81-.47-.93-2.59-5.18-6.84-6.35-2.28-.63-4.44-.16-5.19,0-1.63.35-2.45.53-2.86,1.14-1.2,1.79,2.14,4.76,3.95,10.74.38,1.27,1.53,5.2,1.03,9.85-.54,4.97-2.39,5.44-3.4,10.78-.61,3.22-1.62,8.55.99,11.79,2.95,3.68,9.01,2.77,13.42,2.11,6.68-1,11.3-4.04,12.32-4.73,8.87-6,12.25-15.26,13.72-19.48,1.35-3.87,4.13-12.07,2.17-22.32-2.41-12.62-10.42-20.92-16.97-25.05-1.36-.86-10.38-6.56-14.11-3.27-3.1,2.73-.67,10-3.25,11.06-1.41.58-3.86-.87-4.69-2.92-1.72-4.21,4.26-8.86,2.32-13.5-.42-.99-1.01-1.54-1.9-2.37Z"/>
      <path class="cls-6" d="M166.4,447.32c-2.41-3.55-4.53-6.4-6.12-8.44,0,0-1.15-1.48-6.53-8.1h0c-2.23.86-4.45,1.71-6.68,2.57h0c.05,3.8.17,7.71.36,11.73.17,3.54.39,6.98.65,10.33"/>
      <path class="cls-3" d="M389.6,532.73l-10.8-4.44c-3.48-1.43-5.16-5.48-3.77-9.04l21.66-55.27c1.4-3.56,5.34-5.29,8.82-3.86l10.8,4.44c3.48,1.43,5.16,5.48,3.77,9.04l-21.66,55.27c-1.4,3.56-5.34,5.29-8.82,3.86Z"/>
      <ellipse class="cls-8" cx="397.56" cy="495.95" rx="17.06" ry="7.59" transform="translate(-215.45 664.01) rotate(-66.61)"/>
      <path class="cls-7" d="M376.2,530.47c-.48-.8-1.86-3.47-2.57-7.17-.86-4.51,1.09-6.32,2.48-14.75.93-5.66.27-5.47,1.19-8.33,1.79-5.56,5.5-10.1,8.36-10.55,2.78-.43,4.65-.19,4.65-.19.54.07.84.14.87.06.14-.34-3.84-2.91-8.42-3.95-3.25-.74-5.79-.48-9.26-.09-4.51.5-8.51,1.56-10.73,2.38-12.24,4.54-19.85,20.15-20.3,21.12-7.36,15.54-5.21,32.49-.84,39.74,2.88,4.77,10.56,11.75,10.85,11.95,0,0,.42.32.85.64,16.18,11.86,40.14,14.84,43.83,9.27,2.6-3.93-4.47-12.73-20.97-40.14Z"/>
      <path class="cls-8" d="M148.36,463.65c1.18.25,1.99.08,2.51-.12,1.27-.49,1.36-1.35,3.13-2.61.89-.64,1.48-1.06,2.39-1.27,1.78-.41,2.56.51,3.74-.12.66-.35.46-.67,1.59-1.88.88-.95,1.5-1.62,2.45-1.94,1.35-.47,1.77.31,3.62-.06.4-.08,1.48-.31,2.51-1.09.97-.73,1.9-1.94,1.9-1.94h0s1.59,4.85,1.59,4.85h0s-.68.8-1.16,1.15c-.91.66-1.67.13-3.07.42-.85.18-1.47.62-2.7,1.52-2.31,1.67-1.94,2.19-3.13,2.73-2.09.95-3.35-.61-5.27.42-1.21.65-1.09,1.47-2.27,2.49-.96.83-2.62,1.65-5.7,1.46"/>
      <path class="cls-8" d="M395.98,465.81c.3.42.82.99,1.6,1.36,1.25.59,2.03.07,4.01.43,1.07.2,1.78.33,2.57.84,1.54,1,1.46,2.22,2.72,2.63.71.23.79-.13,2.43-.17,1.28-.03,2.18-.05,3.07.41,1.28.65,1.03,1.51,2.59,2.58.3.21,1.23.86,2.53,1.06.96.14,2.04.03,2.04.03h0s-.05.13-.15.39c-.22.68-.47,1.4-.76,2.15-.29.73-.58,1.41-.88,2.03-.03,0-.09,0-.15,0,0,0-.67.02-1.27-.05-.75-.09-1.29-1.13-2.46-1.93-.72-.49-1.46-.62-2.95-.89-2.78-.5-2.88.14-4.09-.35-2.13-.85-1.94-2.86-4.01-3.53-1.23-.4-1.65.25-3.32.11-1.26-.11-3.03-.74-5.05-3.19"/>
      <path class="cls-3" d="M401.61,460.63c1.95-2.32,3.56-4.26,4.71-5.66,0,0,2.08-2.53,7.92-9.79h0c2.12.91,4.23,1.82,6.35,2.73h0c-.52,7.39-1.05,14.78-1.57,22.17h0"/>
      <path class="cls-4" d="M377.67,521.83c5.73,2.28,11.47,4.55,17.2,6.83"/>
      <path class="cls-8" d="M378.05,511.49c.3.42.82.99,1.6,1.36,1.25.59,2.03.07,4.01.43,1.07.2,1.78.33,2.57.84,1.54,1,1.46,2.22,2.72,2.63.71.23.79-.13,2.43-.17,1.28-.03,2.18-.05,3.07.41,1.28.65,1.03,1.51,2.59,2.58.3.21,1.23.86,2.53,1.06.96.14,2.04.03,2.04.03h0s-.05.13-.15.39c-.22.68-.47,1.4-.76,2.15-.29.73-.58,1.41-.88,2.03-.03,0-.09,0-.15,0,0,0-.67.02-1.27-.05-.75-.09-1.29-1.13-2.46-1.93-.72-.49-1.46-.62-2.95-.89-2.78-.5-2.88.14-4.09-.35-2.13-.85-1.94-2.86-4.01-3.53-1.23-.4-1.65.25-3.32.11-1.26-.11-3.03-.74-5.05-3.19"/>
      <path class="cls-11" d="M415.81,484.51c1.48,3.48,3.45,9.36,3.33,16.77-.07,4.44-.3,18.54-11.1,26.64-1.11.83-11.13,8.09-22.52,3.99-10.29-3.71-16.14-14.62-15.75-24.34.33-8.11,4.98-14.71,8.37-17.12,2.59-1.84,5.39-2.39,5.4-2.39,1.01-.2,2.56-.49,4.47,0,1.44.37,2.51,1.03,3.16,1.5-1.88.58-4.84,1.76-7.79,4.23-1.75,1.47-4.87,4.09-6.3,8.61-1.98,6.26.49,12.39,1.44,14.75.08.2.14.35.24.58.8,1.83,3.23,6.53,8.23,8.1,7.41,2.33,14.25-4.16,14.9-4.79,7.47-7.3,8.36-20.99,8.36-20.99-.02-.48-.05-.96-.07-1.44.13-.33.26-.66.39-1,.94-2.39,1.89-4.76,2.86-7.09"/>
      <path class="cls-4" d="M148.08,455.4l18.32-8.09"/>
      <path class="cls-4" d="M402.25,460.29c5.52,2.29,11.04,4.58,16.57,6.88"/>
    </g>
    <g id="text-title">
      <text class="cls-2" transform="translate(203.96 436.52) scale(1.17 1)"><tspan x="0" y="0">Artist and Teacher</tspan></text>
    </g>
    <g id="mail-icon">
      <path d="M209.81,484.32c0-7.1,0-14.19,0-21.29.03-.09.07-.18.1-.28.36-1.41,1.2-2.46,2.57-3.07.44-.2.93-.29,1.4-.43,12.85,0,25.7,0,38.54,0,.07.03.14.07.21.08,1.96.15,3.96,1.96,3.96,4.41-.01,6.62,0,13.25-.01,19.87,0,.49-.09,1-.25,1.46-.65,1.91-2.37,3.02-4.6,3.02-11.2,0-22.4,0-33.6,0-1.25,0-2.5.02-3.75,0-1.54-.03-2.83-.63-3.69-1.87-.39-.56-.59-1.26-.87-1.9ZM212.89,461.48c6.76,5.49,13.51,10.96,20.3,16.48,6.77-5.5,13.53-10.99,20.31-16.49-.58-.39-1.24-.44-1.9-.44-11.79,0-23.58,0-35.37,0-.59,0-1.18,0-1.76,0-.56,0-1.1.1-1.58.45ZM226.5,474.83c-4.56,3.7-9.08,7.36-13.61,11.04.54.38,1.14.45,1.76.45,6.81,0,13.63,0,20.44,0,5.52,0,11.03,0,16.55,0,.65,0,1.29-.06,1.86-.44-4.54-3.69-9.07-7.36-13.6-11.03-.1.08-.18.13-.24.18-1.88,1.54-3.76,3.08-5.64,4.61-.59.48-1.06.48-1.65,0-.61-.5-1.22-1-1.83-1.5-1.34-1.09-2.67-2.19-4.05-3.31ZM254.71,462.99s-.1-.03-.15-.05c-4.4,3.58-8.81,7.15-13.23,10.74,4.44,3.6,8.85,7.18,13.25,10.75.04-.02.08-.05.12-.07v-21.37ZM211.62,484.36c.07.01.14.03.2.04,4.41-3.58,8.81-7.15,13.23-10.73-4.44-3.6-8.85-7.18-13.26-10.75-.06.02-.12.04-.18.07,0,7.12,0,14.25,0,21.37Z"/>
    </g>
    <g id="portfolio-icon">
      <g id="FIT7du.tif">
        <g>
          <path d="M320.75,518.22c-.67.55-1.34,1.11-2.01,1.66-.81.68-1.62,1.37-2.43,2.05-.57.48-1.13.98-1.7,1.46-.79.67-1.59,1.33-2.38,2-.57.48-1.13.98-1.7,1.46-.82.7-1.64,1.38-2.46,2.08-.75.64-1.49,1.29-2.24,1.93-.88.76-1.75,1.54-2.66,2.25-.34.27-.82.23-1.23.06-1.79-.76-3.65-1.31-5.54-1.72-.81-.17-1.65-.33-2.48-.09-.28.08-.57.24-.78.45-.78.77-1.35,1.7-1.86,2.68-.3.58-.6,1.16-.97,1.7-.6.87-1.19,1.76-1.9,2.54-.76.84-1.72,1.45-2.71,2-1.08.6-2.22,1.09-3.43,1.41-1.01.27-2.04.46-3.09.44-1.25-.02-2.41-.33-3.41-1.1-.3-.23-.54-.56-.73-.89-.47-.81-.65-1.71-.54-2.63.13-1.04.46-2.03.94-2.98.69-1.36,1.62-2.54,2.74-3.58.9-.85,1.96-1.41,3.12-1.83,1.26-.46,2.52-.91,3.73-1.46.69-.31,1.25-.87,1.92-1.23.63-.33.79-.91.73-1.45-.11-.85-.42-1.68-.65-2.51-.12-.41-.22-.83-.39-1.21-.37-.86-.78-1.71-1.15-2.57-.12-.29-.22-.59.12-.88.86-.72,1.69-1.47,2.53-2.21.57-.5,1.15-.99,1.73-1.48.96-.82,1.93-1.63,2.89-2.44.6-.51,1.18-1.03,1.78-1.54.97-.83,1.95-1.64,2.92-2.47.75-.64,1.49-1.29,2.24-1.93.78-.66,1.57-1.31,2.35-1.97.37-.32.73-.65,1.1-.98.1,0,.2,0,.31,0,.18.17.36.35.55.51.79.67,1.59,1.33,2.37,2,.57.48,1.13.98,1.7,1.46.81.69,1.62,1.37,2.43,2.05.58.49,1.15.99,1.73,1.48.79.67,1.59,1.33,2.37,2,.57.48,1.13.97,1.7,1.46.81.69,1.62,1.37,2.43,2.05.67.56,1.34,1.11,2.01,1.66v.31ZM287.53,518.91c.3.72.61,1.43.89,2.16.3.78.63,1.55.81,2.35.19.84.24,1.72.3,2.58.03.53-.11,1.04-.5,1.44-.2.2-.4.4-.63.56-.75.51-1.48,1.1-2.29,1.48-1.32.62-2.69,1.14-4.07,1.63-1.45.52-2.61,1.38-3.51,2.62-.21.29-.4.6-.64.86-.63.68-.93,1.54-1.21,2.37-.21.6-.17,1.3-.18,1.95,0,.27.09.58.23.82.44.8,1.22,1.08,2.06,1.15,1.37.11,2.7-.14,3.95-.68,1.03-.45,2.04-.99,3.01-1.57.55-.33,1.07-.76,1.48-1.25.57-.7,1.05-1.49,1.53-2.26.53-.85,1.03-1.71,1.52-2.58.42-.74.96-1.37,1.56-1.97.57-.58,1.28-.8,2.01-.87,1.67-.16,3.3.14,4.9.61,1.06.31,2.11.7,3.16,1.05.31.1.57.05.81-.18.24-.24.5-.47.76-.69,1.1-.92,2.19-1.84,3.29-2.76-4.94-4.2-9.86-8.38-14.78-12.57-1.49,1.26-2.97,2.52-4.43,3.76ZM311.49,523.66c-.53-.25-1.04-.41-1.47-.71-.49-.34-.67-1.54-.4-2.08.32-.64.44-1.31.43-2.02,0-.39-.17-.58-.56-.55-.51.04-1.03.11-1.53.2-.78.14-1.54.35-2.35.19-.75-.15-1.33-.53-1.69-1.16-.58-1.02-.37-2.07.07-3.08.28-.64.59-1.26.86-1.9.14-.33.2-.7.32-1.15-.43.08-.76.09-1.06.2-.82.33-1.64.67-2.43,1.06-1.03.49-2.1.84-3.25.79-.75-.03-1.48-.21-1.98-.87-.19-.25-.41-.48-.62-.73-.82.7-1.64,1.4-2.47,2.11,4.95,4.21,9.87,8.39,14.78,12.56,1.15-.98,2.27-1.94,3.35-2.86ZM303.3,505.5c-.77.67-1.5,1.31-2.24,1.94-.59.5-1.19.97-1.77,1.48-.54.46-1.14.88-1.48,1.52-.12.22-.14.58-.04.79.11.23.4.48.65.53.62.12,1.23-.07,1.8-.32.89-.38,1.77-.81,2.66-1.2.9-.39,1.85-.6,2.83-.38.47.11.89.36,1.13.79.29.52.25,1.12.11,1.67-.18.73-.47,1.43-.74,2.13-.14.38-.3.76-.52,1.1-.21.33-.29.67-.12,1.01.19.4.5.64.99.53.23-.05.47-.08.7-.12,1.03-.19,2.06-.5,3.12-.19.73.21,1.26.63,1.56,1.34.25.6.14,1.2.02,1.79-.13.64-.35,1.25-.54,1.92.18.04.33.1.47.1,1.23-.02,2.28-.5,3.21-1.29.62-.52,1.24-1.04,1.85-1.56.38-.32.75-.66,1.14-1-4.93-4.19-9.83-8.36-14.78-12.56Z"/>
          <path d="M280.98,538.65c-.81.07-1.67-.49-1.82-1.05-.3-1.09.3-1.85,1.28-2.09.6-.15,1.19-.06,1.72.3.78.52.87,1.39.45,2.06-.34.53-.93.82-1.62.78Z"/>
        </g>
      </g>
    </g>
    <g id="resume-icon">
      <g id="Layer_1">
        <g>
          <path d="M253.77,522.87c0,6.07,0,12.14,0,18.21,0,.79-.3,1.44-.81,1.99-.54.58-1.25.89-2.05.9-.89.02-1.78,0-2.66,0-10.85,0-21.69,0-32.54,0-1.32,0-2.34-.54-2.85-1.82-.13-.33-.24-.7-.24-1.05-.01-12.15-.01-24.3,0-36.44,0-1.57,1.3-2.85,2.88-2.88,1.84-.03,3.69,0,5.53,0,9.89,0,19.78,0,29.67,0,1.27,0,2.24.53,2.81,1.72.19.39.26.78.26,1.2,0,6.06,0,12.12,0,18.18ZM216.07,504.98v35.8h34.28v-35.8h-34.28Z"/>
          <path d="M246.9,529.54v2.7c-.11,0-.22,0-.32,0-8.91,0-17.83,0-26.74,0-.31,0-.37-.09-.37-.38.02-.68.01-1.37,0-2.05,0-.22.04-.3.29-.3,8.96,0,17.92,0,26.89,0,.08,0,.15,0,.25.01Z"/>
          <path d="M246.9,535.32v2.72h-.32c-8.92,0-17.85,0-26.77,0-.27,0-.35-.07-.34-.34.02-.71.01-1.42,0-2.14,0-.19.06-.27.25-.25.06,0,.12,0,.18,0,8.86,0,17.73,0,26.59,0,.13,0,.25,0,.41,0Z"/>
          <path d="M219.5,526.87v-2.66h27.39v2.66h-27.39Z"/>
          <path d="M220.53,521c0-.98-.03-1.92,0-2.87.04-1.34,1.27-2.51,2.59-2.54,2.15-.05,4.31-.04,6.46,0,.87.02,1.57.48,2.1,1.2.37.5.49,1.04.48,1.63,0,.85,0,1.69,0,2.56h-11.64Z"/>
          <path d="M226.15,515.13c-.86-.04-1.69-.42-2.38-1.24-.69-.82-.74-2.29-.21-3.12.53-.84,1.3-1.39,2.31-1.5,1.32-.15,2.4.26,3.17,1.39.62.92.65,1.89.16,2.81-.59,1.1-1.59,1.66-3.04,1.66Z"/>
          <path d="M236.05,508.16h10.84v2.67h-10.84v-2.67Z"/>
          <path d="M236.05,513.53h10.84v2.66h-10.84v-2.66Z"/>
          <path d="M236.04,521.53v-2.65h10.86v2.65h-10.86Z"/>
        </g>
      </g>
    </g>
    <g id="philosophy-icon">
      <g id="YPrU0x.tif">
        <g>
          <path d="M284.06,453.11c.27.06.55.1.81.19,1.42.49,2.49,1.36,3.2,2.72.73,1.4.86,2.83.37,4.29-.21.64-.65,1.2-1.01,1.79-.41.66-1.07.99-1.72,1.35-1.33.74-2.71.76-4.08.26-1.16-.42-2.06-1.21-2.72-2.29-.94-1.55-1.03-3.17-.46-4.83.36-1.04,1.04-1.9,1.94-2.52.67-.46,1.39-.84,2.23-.9.04,0,.08-.04.13-.06.44,0,.88,0,1.32,0Z"/>
          <path d="M283.47,469.32c.22-.37.44-.74.65-1.1.35-.59.71-1.18,1.06-1.77.23-.39.44-.79.68-1.17.06-.1.22-.2.33-.2,1.26,0,2.52,0,3.77.07,1.33.07,2.55.52,3.7,1.21.79.47,1.38,1.11,1.89,1.87.7,1.04.95,2.19.98,3.41,0,.08,0,.16.02.3.23-.15.42-.28.6-.41.47-.32.94-.64,1.4-.97.43-.31.85-.64,1.29-.94.81-.56,1.67-.65,2.54-.14.2.12.32.09.48-.03.72-.53,1.44-1.06,2.17-1.57.31-.22.64-.4.95-.61.65-.44,1.3-.89,1.94-1.34.93-.65,1.85-1.33,2.78-1.98,1.15-.81,2.31-1.6,3.47-2.41.24-.17.47-.36.73-.56.2.32.36.59.54.88-.53.38-1.06.75-1.59,1.12-.86.61-1.71,1.23-2.56,1.83-.26.18-.54.33-.8.5-.69.47-1.38.94-2.06,1.42-.94.66-1.87,1.34-2.81,2-.78.55-1.56,1.09-2.28,1.6.08.46.21.87.23,1.29.02.65-.3,1.2-.78,1.61-.44.38-.95.66-1.42,1-.42.29-.82.61-1.24.9-1.29.89-2.58,1.77-3.87,2.65-.41.28-.8.59-1.25.78-.84.36-1.69.26-2.34-.4-.48-.48-.84-1.07-.83-1.83.03-1.38,0-2.76,0-4.17h-1.42v23.06h-6.32v-8.68h-1.32v8.67h-6.32v-23.02h-1.34c0,.16-.02.31-.02.47,0,4.03,0,8.06,0,12.09,0,.78-.22,1.51-.74,2.12-.55.65-1.76.84-2.61.43-.8-.38-1.23-1.03-1.31-1.91-.02-.24-.02-.49-.02-.73,0-4.41-.01-8.82.01-13.23,0-.66.12-1.33.25-1.98.17-.87.72-1.54,1.29-2.2.53-.61,1.2-.98,1.91-1.35,1.24-.65,2.57-.77,3.92-.84.96-.05,1.93-.02,2.9,0,.14,0,.32.11.39.22.45.74.86,1.5,1.3,2.24.35.59.73,1.17,1.11,1.77Z"/>
          <path d="M297.92,478.66v2.37h30.56v-22.39h-30.57c0,.13,0,.27,0,.41,0,2.81,0,5.62,0,8.43,0,.7-.05.77-.72,1.03-.28-.51-.54-1.03-.86-1.52-.22-.34-.53-.62-.78-.94-.1-.13-.2-.31-.2-.47-.01-2.72-.01-5.45,0-8.17,0-.93.46-1.37,1.41-1.37,2.17,0,4.35,0,6.52,0,8.69,0,17.37,0,26.06,0,.21,0,.42,0,.62.02.52.05.96.47,1.02.99.02.21.04.41.04.62,0,8.14,0,16.27,0,24.41,0,.54-.07,1.03-.53,1.37-.15.11-.33.2-.5.24-.17.04-.36.02-.55.02-10.84,0-21.68,0-32.51,0-.4,0-.79-.01-1.11-.32-.26-.25-.45-.51-.46-.88-.01-.63-.04-1.27,0-1.9.02-.2.25-.42.43-.56.51-.38,1.05-.73,1.58-1.09.15-.1.31-.18.54-.3Z"/>
        </g>
      </g>
    </g>
  </g>
</svg>