<?xml version="1.0" encoding="UTF-8"?>
<svg xmlns="http://www.w3.org/2000/svg" version="1.1" viewBox="0 0 205.17 126.41">
  <!-- Generator: Adobe Illustrator 28.7.1, SVG Export Plug-In . SVG Version: 1.2.0 Build 142)  -->
  <g>
    <g id="Layer_1">
      <path d="M8.94,102.03c0-26.96,0-53.93,0-80.89.13-.35.3-.7.4-1.06,1.47-5.38,4.87-9.37,10.43-11.67,1.8-.74,3.78-1.11,5.68-1.65,52.1,0,104.2,0,156.29,0,.28.1.55.27.84.3,7.94.58,16.06,7.44,16.05,16.77-.05,25.17,0,50.35-.06,75.52,0,1.85-.36,3.79-1,5.55-2.63,7.24-9.59,11.47-18.64,11.47-45.42,0-90.84,0-136.25,0-5.07,0-10.15.07-15.22-.02-6.25-.11-11.46-2.38-14.98-7.11-1.6-2.15-2.38-4.79-3.54-7.21ZM21.45,15.26c27.41,20.85,54.77,41.67,82.33,62.63,27.46-20.9,54.86-41.75,82.34-62.67-2.36-1.47-5.01-1.67-7.7-1.67-47.81,0-95.61,0-143.42,0-2.38,0-4.77-.03-7.15,0-2.28.04-4.47.38-6.4,1.7ZM76.62,65.97c-18.49,14.05-36.81,27.97-55.19,41.94,2.18,1.46,4.63,1.72,7.15,1.72,27.63,0,55.25,0,82.88,0,22.37,0,44.74,0,67.11,0,2.63,0,5.23-.23,7.55-1.67-18.43-14.01-36.79-27.96-55.15-41.92-.42.29-.71.49-.99.7-7.62,5.84-15.24,11.69-22.86,17.53-2.4,1.84-4.3,1.83-6.68,0-2.47-1.91-4.95-3.81-7.43-5.71-5.42-4.16-10.84-8.31-16.4-12.57ZM191.02,20.98c-.2-.07-.4-.13-.6-.2-17.86,13.59-35.72,27.17-53.64,40.81,18.02,13.7,35.88,27.28,53.74,40.87.17-.09.33-.18.5-.27V20.98ZM16.29,102.2c.28.05.55.11.83.16,17.87-13.59,35.74-27.17,53.64-40.78-18.01-13.69-35.89-27.27-53.76-40.85-.24.08-.48.17-.72.25,0,27.07-.02,54.15.02,81.22Z"/>
    </g>
  </g>
</svg>