<?xml version="1.0" encoding="UTF-8"?>
<svg xmlns="http://www.w3.org/2000/svg" version="1.1" viewBox="0 0 229.33 167.33">
  <!-- Generator: Adobe Illustrator 28.7.1, SVG Export Plug-In . SVG Version: 1.2.0 Build 142)  -->
  <g>
    <g id="Layer_1">
      <g id="YPrU0x.tif">
        <g>
          <path d="M30.49,156.04c.01-10.67.03-21.35.04-32.02,0-14.69.01-29.37.02-44.06,0-.51,0-1.02,0-1.63h-4.77c0,.59,0,1.13,0,1.67,0,13.53.03,27.07-.03,40.6-.01,2.82-.73,5.54-3.09,7.41-2.54,2.02-5.4,2.38-8.42,1.13-3.06-1.27-4.69-3.57-4.84-6.88-.05-1.19-.03-2.39-.03-3.59,0-14.17.08-28.35-.05-42.52-.04-3.78.53-7.36,2.33-10.59,1.68-3.02,4.22-5.39,7.2-7.27,5.05-3.18,10.69-3.96,16.46-4.18,3.33-.13,6.67-.06,10,0,.47,0,1.12.39,1.38.79,1.58,2.53,3.04,5.13,4.59,7.67,1.19,1.95,2.46,3.84,3.76,5.86.2-.25.42-.47.59-.73,1.55-2.47,3.11-4.94,4.62-7.44,1.08-1.78,2.06-3.63,3.17-5.39.26-.4.91-.78,1.38-.77,4.44.03,8.89,0,13.32.27,3.76.24,7.47,1.15,10.76,2.99,3.79,2.11,7.11,4.7,9.29,8.76,1.89,3.52,2.52,7.14,2.66,11.13,1.68-1.06,3.3-2.04,4.86-3.1,2.71-1.82,5.27-3.88,8.1-5.49,2.39-1.36,5.04-1.2,7.44.31.69.44,1.12.28,1.68-.11,2.39-1.68,4.78-3.37,7.22-4.98,2.73-1.8,5.53-3.51,8.28-5.29.66-.43,1.21-1.05,1.87-1.49,3.08-2.06,6.19-4.07,9.28-6.13,4.1-2.73,8.19-5.47,12.27-8.23,1.07-.73,2.07-1.55,3.24-2.43.69,1.13,1.28,2.09,1.87,3.05-14.2,9.58-28.35,19.11-42.51,28.66.31.94.76,1.9.92,2.9.51,3.26-1.11,5.76-3.53,7.53-3.39,2.48-7.07,4.58-10.61,6.86-.56.36-1,.91-1.55,1.27-3.7,2.43-7.43,4.83-11.14,7.25-.81.53-1.51,1.23-2.37,1.64-3.39,1.64-7.76,1.36-10.47-3.14-.94-1.57-1.34-3.13-1.32-4.91.05-4.39.02-8.78.02-13.28h-5.01c0,.58,0,1.12,0,1.66,0,24.93.02,49.87.03,74.8,0,.47.06.93.09,1.4h-22.31c.02-.25.07-.51.07-.76,0-9.25,0-18.5,0-27.75,0-.28-.04-.57-.06-.85h-4.57c0,3.16,0,6.23,0,9.29-.02,6.69-.04,13.38-.06,20.07h-22.06Z"/>
          <path d="M212.54,32.31h-106.92c0,.54,0,1.03,0,1.52,0,9.31-.09,18.62.07,27.92.04,2.16-.85,3.14-2.68,3.91-.36-.73-.64-1.54-1.12-2.21-1.52-2.13-3.13-4.19-4.65-6.32-.32-.44-.59-1.05-.59-1.57-.04-9.01-.04-18.02-.02-27.03,0-3.45,1.56-5.01,5.01-5.02,38.3,0,76.6,0,114.9,0,3.19,0,4.68,1.45,4.88,4.64.03.43.01.85.01,1.28,0,27.2,0,54.4,0,81.6,0,.6,0,1.2-.08,1.79-.3,2.68-1.75,4-4.48,4.07-.34,0-.68,0-1.03,0-37.87,0-75.74,0-113.62,0-.77,0-1.56.03-2.29-.15-2.1-.5-3.17-1.8-3.26-4.01-.09-2.13-.05-4.27-.03-6.4,0-.3.12-.74.34-.88,2.72-1.74,5.47-3.44,8.21-5.15.06-.04.16-.03.38-.06v7.81h106.97V32.31Z"/>
          <path d="M36.31,32.14c-.21-9.58,8.27-18.13,18.13-18.33,10.82-.22,19.03,8.65,19.05,18.36.03,10.17-8.08,18.16-18.12,18.5-10.21.35-19.29-8.12-19.07-18.53Z"/>
        </g>
      </g>
    </g>
  </g>
</svg>