<?xml version="1.0" encoding="UTF-8"?>
<svg xmlns="http://www.w3.org/2000/svg" version="1.1" viewBox="0 0 201.17 226.67">
  <!-- Generator: Adobe Illustrator 28.7.1, SVG Export Plug-In . SVG Version: 1.2.0 Build 142)  -->
  <g>
    <g id="Layer_1">
      <g id="FIT7du.tif">
        <g>
          <path d="M196.36,87.24c-2.24,2.42-4.51,4.81-6.71,7.27-2.36,2.64-4.62,5.37-6.97,8.02-4.78,5.41-9.58,10.8-14.38,16.19-2.2,2.47-4.45,4.91-6.64,7.39-4.59,5.17-9.15,10.37-13.74,15.53-2.32,2.61-4.71,5.16-7.03,7.78-4.59,5.17-9.15,10.37-13.74,15.53-2.63,2.96-3.85,3.35-9.06.98-4.69-2.13-9.34-4.38-14.18-6.1-4.24-1.51-8.51-3.06-13.21-3.03-3.43.02-5.51,1.84-6.98,4.37-2.08,3.58-3.82,7.36-5.57,11.11-1.78,3.82-3.31,7.76-5.11,11.57-2.69,5.68-5.31,11.36-9.86,15.98-3.88,3.95-7.89,7.64-12.79,10.27-2.32,1.24-4.68,2.4-7,3.64-4.85,2.61-10.12,3.39-15.49,3.19-2.68-.1-5.51-.68-7.93-1.81-3.3-1.54-5.79-4.12-7.59-7.51-2.43-4.6-3.2-9.46-2.72-14.41.45-4.58,1.6-9.12,2.8-13.58,1.81-6.71,5.16-12.73,9.15-18.37,3.96-5.59,8.61-10.41,15.13-13.2,4.2-1.8,8.27-3.93,12.23-6.2,3.77-2.15,7.06-4.96,10.4-7.78,4.49-3.78,3.62-8.34,2.87-12.82-.94-5.6-2.38-11.14-3.9-16.62-1.14-4.1-2.76-8.07-4.18-12.09-.78-2.21-.7-4.46,1.12-6.45,5.39-5.9,10.59-11.97,15.88-17.96,2.15-2.44,4.35-4.83,6.51-7.26,4.76-5.35,9.49-10.71,14.26-16.05,2.32-2.61,4.71-5.16,7.03-7.78,4.47-5.04,8.9-10.11,13.36-15.15,2.15-2.43,4.35-4.83,6.51-7.26,1.76-1.97,3.52-3.95,5.23-5.96,1.48-1.73,2.24-1.72,3.73,0,3.72,4.26,7.5,8.46,11.23,12.7,5.24,5.95,10.45,11.93,15.72,17.87,3.44,3.87,6.97,7.66,10.41,11.53,4.43,4.98,8.82,10.02,13.23,15.02,1.95,2.21,3.91,4.42,5.88,6.6,4.02,4.46,8.05,8.9,12.08,13.35v1.46ZM80.22,70.89c-1.26,1.35-2.44,2.55-3.55,3.81-4.55,5.13-9.04,10.3-13.64,15.38-.68.76-.71,1.34-.46,2.18,2.03,6.81,4.16,13.6,6.04,20.46,1.48,5.4,2.13,10.94,1.89,16.56-.15,3.35-1.14,6.54-3.27,9.04-2.09,2.45-4.62,4.57-7.17,6.58-5.49,4.31-11.8,7.2-18.04,10.22-2.86,1.39-5.97,2.72-8.18,4.89-3.32,3.27-6.34,7-8.76,10.97-2.69,4.42-4.78,9.23-6.09,14.34-1.32,5.17-2,10.28-.7,15.57,1.11,4.53,5.39,7.07,9.27,7.38,3.03.24,6.01,0,8.88-1.17,2.37-.96,4.95-1.5,7.12-2.78,3.82-2.25,7.48-4.73,10.88-7.7,4-3.5,7.15-7.52,9.38-12.21,3.13-6.59,5.89-13.36,8.94-19.99,1.93-4.21,4.02-8.37,7.24-11.8,1.02-1.09,2.13-2.26,3.44-2.88,3.91-1.86,8.2-1.61,12.27-1.1,3.86.48,7.66,1.75,11.35,3.05,4.32,1.52,8.53,3.39,12.74,5.22,1.39.6,2.41.84,3.58-.5,4.36-4.98,8.85-9.86,13.27-14.79,1.11-1.23,2.15-2.53,3.35-3.94-.96-.9-1.93-1.66-2.73-2.56-4.73-5.29-9.42-10.61-14.13-15.92-2.12-2.38-4.27-4.74-6.39-7.13-4.59-5.17-9.15-10.37-13.74-15.53-2.32-2.61-4.71-5.16-7.03-7.78-5.25-5.94-10.48-11.91-15.74-17.9ZM159.13,116.2c-1.58-.78-3.05-1.32-4.31-2.18-2.45-1.67-3.95-4.04-3.65-7.07.36-3.55,1.1-7.05,1.58-10.59.28-2.02.51-4.05.52-6.09.01-1.87-.98-2.8-2.83-2.64-1.59.14-3.13.71-4.71,1.04-2.04.43-4.09.79-6.13,1.2-4.21.84-7.36-.6-9.62-3.74-3.51-4.9-3.73-10.35-2.06-15.93,1.07-3.58,2.51-7.04,3.6-10.61.82-2.69,1.34-5.47,1.98-8.17-2.34-.72-3.83.11-5.36,1.12-1.55,1.03-3.24,1.86-4.86,2.79-2.49,1.43-4.89,3.08-7.5,4.24-2.25,1-4.72,1.79-7.15,2.03-3.98.4-7.77-.26-10.14-4.12-.85-1.37-1.79-2.69-2.74-4.11-3.32,3.72-6.6,7.4-9.95,11.16,3.64,4.1,7.26,8.19,10.91,12.27,2.33,2.61,4.71,5.17,7.03,7.77,4.68,5.25,9.33,10.54,14,15.79,2.24,2.52,4.53,5,6.77,7.52,4.68,5.26,9.33,10.53,14,15.8,2.31,2.61,4.61,5.23,6.94,7.87,4.58-5.15,9.16-10.3,13.67-15.37ZM125.89,19.52c-1.04,1.22-1.95,2.32-2.9,3.38-5.47,6.09-10.99,12.13-16.4,18.27-1.95,2.21-3.53,4.67-3.28,7.87.2,2.59,1.54,3.92,4.09,3.93,3.91.02,6.96-2.25,9.95-4.21,4.01-2.63,7.93-5.36,12.72-6.2,5.64-.99,10.68,1.31,10.88,8.34.13,4.54-1.07,8.73-2.39,12.94-1.24,3.95-2.58,7.87-3.72,11.85-.86,2.99,1.59,5.84,4.46,5.32,3.28-.58,6.54-1.27,9.81-1.88,2.89-.54,5.6.02,7.91,1.82,2.96,2.3,4.45,5.62,4.21,9.19-.36,5.38-1.39,10.72-2.17,16.35.29.08.88.38,1.48.41,4.71.22,8.33-2.31,11.53-5.19,2.88-2.6,5.22-5.8,7.79-8.73,1.89-2.16,3.78-4.31,5.73-6.55-2.2-2.44-4.3-4.75-6.39-7.08-2.09-2.33-4.18-4.65-6.26-6.99-4.71-5.3-9.41-10.62-14.12-15.92-2.2-2.47-4.44-4.91-6.64-7.38-4.67-5.26-9.34-10.52-13.99-15.8-2.34-2.66-4.61-5.37-6.96-8.02-1.67-1.88-3.43-3.7-5.32-5.74Z"/>
          <path d="M28.17,187.89c0-4.54,2.39-7.64,6.47-8.41,4.38-.83,7.75,2.47,8.47,6.28.61,3.22-.18,6.01-2.26,8.56-2,2.45-8.37,2.64-10.28.09-1.65-2.19-2.42-3.16-2.4-6.53Z"/>
        </g>
      </g>
    </g>
  </g>
</svg>