<?xml version="1.0" encoding="UTF-8"?>
<svg xmlns="http://www.w3.org/2000/svg" version="1.1" viewBox="0 0 493 502.5">
  <!-- Generator: Adobe Illustrator 28.7.1, SVG Export Plug-In . SVG Version: 1.2.0 Build 142)  -->
  <g>
    <g id="Layer_1">
      <path d="M432.01,34.99c-27.16-30.45-148.19,103.5-161.9,118.87-11.47,12.85-96.83,109.76-108.66,158.96-23.35-10.21-57.02,1.65-83.96,31.84-31.81,35.65-22.16,101.91-21.74,104.71.56,3.71,3.15,6.6,6.46,7.23.96.19,10.35,1.91,23.35,1.91,20.7,0,50.55-4.37,70.09-26.26,15.21-17.04,25.8-37.4,29.81-57.33,2.74-13.59,2.24-26-1.28-36.4,9.52-3.05,23.15-10.76,43.37-26.71,28.83-22.73,63.76-56.61,98.38-95.39,13.71-15.37,133.21-151.02,106.08-181.43ZM170.06,371.01c-3.37,16.7-12.45,34.01-25.58,48.71-20.93,23.44-59.37,21.81-73.87,20.22-1.42-16.28-2.88-59.34,18.04-82.78,25.73-28.81,60.25-38.85,75.37-21.89,6.96,7.8,9.11,20.49,6.03,35.74ZM314.77,203.9c-73.64,82.5-127.74,119.7-139.3,118.55-.86-13.11,32.19-73.6,105.8-156.09,14.18-15.88,27.59-30.03,40.15-42.6l31.36,35.15c-11.21,14.07-23.85,29.11-38.02,44.99ZM363.21,145.58l-29.89-33.5c45.51-43.8,77.43-64.29,86.78-64.29.16,0,.32,0,.47.02.64,9.77-17.59,45.88-57.36,97.77Z"/>
    </g>
  </g>
</svg>