<?xml version="1.0" encoding="UTF-8"?>
<svg xmlns="http://www.w3.org/2000/svg" version="1.1" viewBox="0 0 210 207">
  <defs>
    <style>
      .cls-1 {
        fill: #3d92aa;
      }

      .cls-2 {
        fill: #090c0c;
      }

      .cls-3 {
        fill: #dac3da;
      }

      .cls-4, .cls-5 {
        fill: #f3db6a;
      }

      .cls-5 {
        stroke: #231f20;
        stroke-miterlimit: 10;
      }

      .cls-6 {
        fill: #f7983e;
      }

      .cls-7 {
        display: none;
      }

      .cls-8 {
        fill: #f7a690;
      }
    </style>
  </defs>
  <!-- Generator: Adobe Illustrator 28.7.1, SVG Export Plug-In . SVG Version: 1.2.0 Build 142)  -->
  <g>
    <g id="Layer_1" class="cls-7">
      <rect class="cls-1" x="45.48" y="106.82" width="71.89" height="24.47" rx="4.13" ry="4.13" transform="translate(102.92 -23.57) rotate(42.94)"/>
      <path class="cls-1" d="M119.83,160.33c-6.58-3.46-13.16-6.93-19.74-10.39l12.54-13.93c3.92,6.24,7.83,12.47,11.75,18.71-1.51,1.87-3.03,3.74-4.54,5.61Z"/>
      <path class="cls-1" d="M50.32,121.88"/>
      <path class="cls-5" d="M112.53,135.52c-3.94,4.55-7.87,9.1-11.81,13.65"/>
      <path class="cls-5" d="M51.72,107.42c5.07-5.95,10.14-11.9,15.22-17.85"/>
      <ellipse class="cls-2" cx="83.37" cy="120.87" rx="6.53" ry="14.44" transform="translate(-61.91 99.57) rotate(-47.06)"/>
      <path class="cls-2" d="M109.13,128.12c-.52.12-1.24.37-1.85.95-.91.87-.74,1.7-1.73,3.31-.53.87-.88,1.44-1.59,1.98-1.39,1.07-2.4.71-3.19,1.69-.44.55-.15.7-.68,2.1-.41,1.09-.7,1.86-1.39,2.51-1,.93-1.65.52-3.1,1.59-.32.23-1.16.87-1.76,1.9-.57.97-.92,2.28-.92,2.28,0,0-3.19-2.99-3.19-2.99,0,0,.29-.9.58-1.37.54-.89,1.39-.81,2.49-1.63.67-.5,1.03-1.1,1.76-2.3,1.37-2.25.86-2.48,1.68-3.4,1.45-1.61,3.12-.97,4.4-2.57.18-.23.3-.43.39-.63.47-1.1.62-2,.65-2.22.1-.78,1.02-1.97,4.74-3.73"/>
      <path class="cls-2" d="M72.94,94.54c-.52.12-1.24.37-1.85.95-.91.87-.74,1.7-1.73,3.31-.53.87-.88,1.44-1.59,1.98-1.39,1.07-2.4.71-3.19,1.69-.44.55-.15.7-.68,2.1-.41,1.09-.7,1.86-1.39,2.51-1,.93-1.65.52-3.1,1.59-.32.23-1.16.87-1.76,1.9-.57.97-.92,2.28-.92,2.28,0,0-3.19-2.99-3.19-2.99,0,0,.29-.9.58-1.37.54-.89,1.39-.81,2.49-1.63.67-.5,1.03-1.1,1.76-2.3,1.37-2.25.86-2.48,1.68-3.4,1.45-1.61,3.12-.97,4.4-2.57.18-.23.3-.43.39-.63.47-1.1.62-2,.65-2.22.1-.78,1.02-1.97,4.74-3.73"/>
      <rect class="cls-4" x="65.83" y="89.2" width="71.89" height="24.47" rx="4.13" ry="4.13" transform="translate(96.37 -42.15) rotate(42.94)"/>
      <path class="cls-4" d="M140.18,142.71c-6.58-3.46-13.16-6.93-19.74-10.39l12.54-13.93c3.92,6.24,7.83,12.47,11.75,18.71-1.51,1.87-3.03,3.74-4.54,5.61Z"/>
      <path class="cls-1" d="M7.28,125.33"/>
      <path class="cls-5" d="M132.88,117.9c-3.94,4.55-7.87,9.1-11.81,13.65"/>
      <path class="cls-5" d="M72.07,89.8c5.07-5.95,10.14-11.9,15.22-17.85"/>
      <ellipse class="cls-2" cx="103.72" cy="103.25" rx="6.53" ry="14.44" transform="translate(-42.52 108.84) rotate(-47.06)"/>
      <path class="cls-2" d="M129.47,110.5c-.52.12-1.24.37-1.85.95-.91.87-.74,1.7-1.73,3.31-.53.87-.88,1.44-1.59,1.98-1.39,1.07-2.4.71-3.19,1.69-.44.55-.15.7-.68,2.1-.41,1.09-.7,1.86-1.39,2.51-1,.93-1.65.52-3.1,1.59-.32.23-1.16.87-1.76,1.9-.57.97-.92,2.28-.92,2.28,0,0-3.19-2.99-3.19-2.99,0,0,.29-.9.58-1.37.54-.89,1.39-.81,2.49-1.63.67-.5,1.03-1.1,1.76-2.3,1.37-2.25.86-2.48,1.68-3.4,1.45-1.61,3.12-.97,4.4-2.57.18-.23.3-.43.39-.63.47-1.1.62-2,.65-2.22.1-.78,1.02-1.97,4.74-3.73"/>
      <path class="cls-2" d="M93.29,76.92c-.52.12-1.24.37-1.85.95-.91.87-.74,1.7-1.73,3.31-.53.87-.88,1.44-1.59,1.98-1.39,1.07-2.4.71-3.19,1.69-.44.55-.15.7-.68,2.1-.41,1.09-.7,1.86-1.39,2.51-1,.93-1.65.52-3.1,1.59-.32.23-1.16.87-1.76,1.9-.57.97-.92,2.28-.92,2.28,0,0-3.19-2.99-3.19-2.99,0,0,.29-.9.58-1.37.54-.89,1.39-.81,2.49-1.63.67-.5,1.03-1.1,1.76-2.3,1.37-2.25.86-2.48,1.68-3.4,1.45-1.61,3.12-.97,4.4-2.57.18-.23.3-.43.39-.63.47-1.1.62-2,.65-2.22.1-.78,1.02-1.97,4.74-3.73"/>
      <rect class="cls-8" x="30.23" y="129.42" width="71.89" height="24.47" rx="4.13" ry="4.13" transform="translate(114.23 -7.13) rotate(42.94)"/>
      <path class="cls-8" d="M104.58,182.93c-6.58-3.46-13.16-6.93-19.74-10.39l12.54-13.93c3.92,6.24,7.83,12.47,11.75,18.71-1.51,1.87-3.03,3.74-4.54,5.61Z"/>
      <path class="cls-5" d="M97.28,158.12c-3.94,4.55-7.87,9.1-11.81,13.65"/>
      <path class="cls-5" d="M36.47,130.02c5.07-5.95,10.14-11.9,15.22-17.85"/>
      <ellipse class="cls-2" cx="68.12" cy="143.47" rx="6.53" ry="14.44" transform="translate(-83.31 95.61) rotate(-47.06)"/>
      <path class="cls-2" d="M93.88,150.72c-.52.12-1.24.37-1.85.95-.91.87-.74,1.7-1.73,3.31-.53.87-.88,1.44-1.59,1.98-1.39,1.07-2.4.71-3.19,1.69-.44.55-.15.7-.68,2.1-.41,1.09-.7,1.86-1.39,2.51-1,.93-1.65.52-3.1,1.59-.32.23-1.16.87-1.76,1.9-.57.97-.92,2.28-.92,2.28,0,0-3.19-2.99-3.19-2.99,0,0,.29-.9.58-1.37.54-.89,1.39-.81,2.49-1.63.67-.5,1.03-1.1,1.76-2.3,1.37-2.25.86-2.48,1.68-3.4,1.45-1.61,3.12-.97,4.4-2.57.18-.23.3-.43.39-.63.47-1.1.62-2,.65-2.22.1-.78,1.02-1.97,4.74-3.73"/>
      <path class="cls-2" d="M57.69,117.14c-.52.12-1.24.37-1.85.95-.91.87-.74,1.7-1.73,3.31-.53.87-.88,1.44-1.59,1.98-1.39,1.07-2.4.71-3.19,1.69-.44.55-.15.7-.68,2.1-.41,1.09-.7,1.86-1.39,2.51-1,.93-1.65.52-3.1,1.59-.32.23-1.16.87-1.76,1.9-.57.97-.92,2.28-.92,2.28,0,0-3.19-2.99-3.19-2.99,0,0,.29-.9.58-1.37.54-.89,1.39-.81,2.49-1.63.67-.5,1.03-1.1,1.76-2.3,1.37-2.25.86-2.48,1.68-3.4,1.45-1.61,3.12-.97,4.4-2.57.18-.23.3-.43.39-.63.47-1.1.62-2,.65-2.22.1-.78,1.02-1.97,4.74-3.73"/>
      <rect class="cls-4" x="14.46" y="151.04" width="71.89" height="24.47" rx="4.13" ry="4.13" transform="translate(124.73 9.41) rotate(42.94)"/>
      <path class="cls-4" d="M88.81,204.55c-6.58-3.46-13.16-6.93-19.74-10.39l12.54-13.93c3.92,6.24,7.83,12.47,11.75,18.71-1.51,1.87-3.03,3.74-4.54,5.61Z"/>
      <path class="cls-5" d="M81.5,179.74c-3.94,4.55-7.87,9.1-11.81,13.65"/>
      <path class="cls-5" d="M20.69,151.64c5.07-5.95,10.14-11.9,15.22-17.85"/>
      <ellipse class="cls-2" cx="52.34" cy="165.09" rx="6.53" ry="14.44" transform="translate(-104.17 90.95) rotate(-47.06)"/>
      <path class="cls-2" d="M78.1,172.34c-.52.12-1.24.37-1.85.95-.91.87-.74,1.7-1.73,3.31-.53.87-.88,1.44-1.59,1.98-1.39,1.07-2.4.71-3.19,1.69-.44.55-.15.7-.68,2.1-.41,1.09-.7,1.86-1.39,2.51-1,.93-1.65.52-3.1,1.59-.32.23-1.16.87-1.76,1.9-.57.97-.92,2.28-.92,2.28,0,0-3.19-2.99-3.19-2.99,0,0,.29-.9.58-1.37.54-.89,1.39-.81,2.49-1.63.67-.5,1.03-1.1,1.76-2.3,1.37-2.25.86-2.48,1.68-3.4,1.45-1.61,3.12-.97,4.4-2.57.18-.23.3-.43.39-.63.47-1.1.62-2,.65-2.22.1-.78,1.02-1.97,4.74-3.73"/>
      <path class="cls-2" d="M41.91,138.77c-.52.12-1.24.37-1.85.95-.91.87-.74,1.7-1.73,3.31-.53.87-.88,1.44-1.59,1.98-1.39,1.07-2.4.71-3.19,1.69-.44.55-.15.7-.68,2.1-.41,1.09-.7,1.86-1.39,2.51-1,.93-1.65.52-3.1,1.59-.32.23-1.16.87-1.76,1.9-.57.97-.92,2.28-.92,2.28,0,0-3.19-2.99-3.19-2.99,0,0,.29-.9.58-1.37.54-.89,1.39-.81,2.49-1.63.67-.5,1.03-1.1,1.76-2.3,1.37-2.25.86-2.48,1.68-3.4,1.45-1.61,3.12-.97,4.4-2.57.18-.23.3-.43.39-.63.47-1.1.62-2,.65-2.22.1-.78,1.02-1.97,4.74-3.73"/>
      <rect class="cls-6" x="88.33" y="69.08" width="71.89" height="24.47" rx="4.13" ry="4.13" transform="translate(102.71 -65.63) rotate(48.45)"/>
      <path class="cls-6" d="M158.54,126.08c-6.22-4.08-12.43-8.16-18.65-12.24l13.82-12.66c3.3,6.58,6.6,13.17,9.9,19.75-1.69,1.72-3.37,3.43-5.06,5.15Z"/>
      <path class="cls-5" d="M153.65,100.69c-4.36,4.15-8.71,8.3-13.07,12.45"/>
      <ellipse class="cls-2" cx="126.04" cy="83.3" rx="6.53" ry="14.44" transform="translate(-23.54 104.54) rotate(-41.55)"/>
      <path class="cls-2" d="M150.97,92.99c-.53.07-1.27.25-1.93.77-.99.78-.9,1.62-2.04,3.12-.61.81-1.02,1.34-1.77,1.82-1.48.94-2.46.47-3.33,1.37-.49.5-.22.68-.87,2.03-.51,1.05-.87,1.79-1.63,2.37-1.08.83-1.69.36-3.24,1.28-.34.2-1.24.75-1.94,1.72-.66.91-1.13,2.18-1.13,2.18,0,0-2.89-3.28-2.89-3.28,0,0,.37-.86.7-1.31.62-.83,1.46-.68,2.63-1.38.71-.43,1.13-.99,1.98-2.12,1.58-2.11,1.09-2.39,2-3.22,1.6-1.46,3.2-.66,4.62-2.13.2-.21.34-.4.44-.59.57-1.05.81-1.94.86-2.15.17-.77,1.2-1.86,5.08-3.26"/>
      <path class="cls-2" d="M118.19,56.09c-.53.07-1.27.25-1.93.77-.99.78-.9,1.62-2.04,3.12-.61.81-1.02,1.34-1.77,1.82-1.48.94-2.46.47-3.33,1.37-.49.5-.22.68-.87,2.03-.51,1.05-.87,1.79-1.63,2.37-1.08.83-1.69.36-3.24,1.28-.34.2-1.24.75-1.94,1.72-.66.91-1.13,2.18-1.13,2.18,0,0-2.89-3.28-2.89-3.28,0,0,.37-.86.7-1.31.62-.83,1.46-.68,2.63-1.38.71-.43,1.13-.99,1.98-2.12,1.58-2.11,1.09-2.39,2-3.22,1.6-1.46,3.2-.66,4.62-2.13.2-.21.34-.4.44-.59.57-1.05.81-1.94.86-2.15.17-.77,1.2-1.86,5.08-3.26"/>
      <rect class="cls-8" x="112.56" y="52.37" width="71.89" height="24.47" rx="4.13" ry="4.13" transform="translate(109.55 -92.58) rotate(52.57)"/>
      <path class="cls-8" d="M179.46,111.72c-5.91-4.52-11.82-9.03-17.73-13.55l14.69-11.63c2.82,6.8,5.64,13.61,8.45,20.41-1.81,1.59-3.61,3.18-5.42,4.77Z"/>
      <path class="cls-5" d="M176.42,86.05c-4.64,3.83-9.28,7.65-13.93,11.48"/>
      <ellipse class="cls-2" cx="150.12" cy="66.72" rx="6.53" ry="14.44" transform="translate(-9.64 104.98) rotate(-37.43)"/>
      <path class="cls-2" d="M174.3,78.18c-.53.03-1.28.15-1.98.63-1.04.7-1.01,1.55-2.26,2.97-.67.76-1.11,1.27-1.9,1.69-1.55.83-2.49.3-3.42,1.13-.52.47-.27.67-1.02,1.96-.59,1.01-1,1.72-1.79,2.25-1.14.75-1.71.24-3.32,1.05-.35.18-1.29.66-2.06,1.58-.72.86-1.29,2.09-1.29,2.09,0,0-2.64-3.48-2.64-3.48,0,0,.44-.83.8-1.25.68-.79,1.51-.57,2.73-1.19.74-.38,1.2-.91,2.12-1.97,1.73-1.99,1.26-2.31,2.23-3.07,1.7-1.34,3.24-.43,4.76-1.8.22-.19.37-.38.49-.56.65-1.01.95-1.87,1.01-2.08.23-.75,1.33-1.77,5.3-2.88"/>
      <path class="cls-2" d="M144.24,39.02c-.53.03-1.28.15-1.98.63-1.04.7-1.01,1.55-2.26,2.97-.67.76-1.11,1.27-1.9,1.69-1.55.83-2.49.3-3.42,1.13-.52.47-.27.67-1.02,1.96-.59,1.01-1,1.72-1.79,2.25-1.14.75-1.71.24-3.32,1.05-.35.18-1.29.66-2.06,1.58-.72.86-1.29,2.09-1.29,2.09,0,0-2.64-3.48-2.64-3.48,0,0,.44-.83.8-1.25.68-.79,1.51-.57,2.73-1.19.74-.38,1.2-.91,2.12-1.97,1.73-1.99,1.26-2.31,2.23-3.07,1.7-1.34,3.24-.43,4.76-1.8.22-.19.37-.38.49-.56.65-1.01.95-1.87,1.01-2.08.23-.75,1.33-1.77,5.3-2.88"/>
      <rect class="cls-1" x="148.94" y="33.27" width="71.89" height="24.47" rx="4.13" ry="4.13" transform="translate(168.72 -144.2) rotate(71.3)"/>
      <path class="cls-1" d="M199.07,100.07c-4.15-6.17-8.29-12.35-12.44-18.52l17.65-6.3c.48,7.35.97,14.69,1.45,22.04-2.22.93-4.44,1.85-6.66,2.78Z"/>
      <path class="cls-5" d="M204.43,74.77c-5.62,2.13-11.25,4.27-16.87,6.4"/>
      <ellipse class="cls-2" cx="185.73" cy="48.03" rx="6.53" ry="14.44" transform="translate(-5.59 62.08) rotate(-18.7)"/>
      <path class="cls-2" d="M204.95,66.64c-.51-.14-1.26-.26-2.08-.04-1.21.33-1.46,1.14-3.09,2.09-.88.51-1.46.84-2.34.99-1.73.29-2.45-.52-3.6-.03-.64.27-.47.55-1.59,1.53-.88.77-1.5,1.31-2.42,1.55-1.32.35-1.7-.33-3.48-.08-.39.05-1.43.21-2.45.83-.96.58-1.89,1.57-1.89,1.57,0,0-1.39-4.15-1.39-4.15,0,0,.68-.65,1.16-.93.9-.53,1.61-.05,2.96-.25.82-.12,1.43-.47,2.64-1.18,2.27-1.33,1.93-1.78,3.09-2.19,2.04-.72,3.21.63,5.09-.17.27-.11.47-.24.64-.37.94-.74,1.5-1.47,1.62-1.65.46-.64,1.83-1.25,5.94-1.03"/>
      <path class="cls-2" d="M189.06,19.91c-.51-.14-1.26-.26-2.08-.04-1.21.33-1.46,1.14-3.09,2.09-.88.51-1.46.84-2.34.99-1.73.29-2.45-.52-3.6-.03-.64.27-.47.55-1.59,1.53-.88.77-1.5,1.31-2.42,1.55-1.32.35-1.7-.33-3.48-.08-.39.05-1.43.21-2.45.83-.96.58-1.89,1.57-1.89,1.57,0,0-1.39-4.15-1.39-4.15,0,0,.68-.65,1.16-.93.9-.53,1.61-.05,2.96-.25.82-.12,1.43-.47,2.64-1.18,2.27-1.33,1.93-1.78,3.09-2.19,2.04-.72,3.21.63,5.09-.17.27-.11.47-.24.64-.37.94-.74,1.5-1.47,1.62-1.65.46-.64,1.83-1.25,5.94-1.03"/>
    </g>
    <g id="Layer_2">
      <path class="cls-3" d="M51.71,183.31"/>
      <path class="cls-1" d="M124.75,145.04l45.17-45.98c1.62-1.65,1.5-4.2-.26-5.7l-12.52-10.69c-1.76-1.5-4.5-1.39-6.12.26l-45.17,45.98c-1.62,1.65-1.5,4.2.26,5.7l12.52,10.69c1.76,1.5,4.5,1.39,6.12-.26Z"/>
      <path class="cls-1" d="M101.1,157.29c6.6-3.9,13.2-7.81,19.8-11.71l-14.25-12.57c-3.58,6.39-7.17,12.78-10.75,19.17,1.74,1.7,3.47,3.41,5.21,5.11Z"/>
      <path class="cls-1" d="M170.65,114.24"/>
      <path class="cls-5" d="M106.7,132.52c4.49,4.12,8.98,8.24,13.47,12.36"/>
      <path class="cls-5" d="M168,100.26c-5.79-5.39-11.58-10.79-17.37-16.18"/>
      <path class="cls-2" d="M141.05,120.21c5.66-5.76,7.99-12.36,5.2-14.74-2.79-2.38-9.63.37-15.3,6.13-5.66,5.76-7.99,12.36-5.2,14.74,2.79,2.38,9.63-.37,15.3-6.13Z"/>
      <path class="cls-2" d="M109.66,125.03c.55.07,1.32.26,2.01.78,1.02.77.91,1.6,2.08,3.08.63.8,1.04,1.33,1.83,1.81,1.54.94,2.57.5,3.47,1.39.5.5.22.67.88,1.99.52,1.03.88,1.76,1.66,2.34,1.12.83,1.77.37,3.37,1.3.35.2,1.28.75,2,1.71.67.9,1.15,2.15,1.15,2.15,0,0,3.09-3.17,3.09-3.17,0,0-.38-.85-.71-1.29-.64-.82-1.52-.68-2.74-1.39-.74-.43-1.17-.99-2.03-2.1-1.62-2.08-1.1-2.35-2.04-3.18-1.65-1.45-3.34-.7-4.81-2.15-.21-.21-.35-.4-.45-.58-.58-1.03-.81-1.9-.86-2.11-.17-.75-1.23-1.84-5.26-3.26"/>
      <path class="cls-2" d="M144.75,89.41c.55.07,1.32.26,2.01.78,1.02.77.91,1.6,2.08,3.08.63.8,1.04,1.33,1.83,1.81,1.54.94,2.57.5,3.47,1.39.5.5.22.67.88,1.99.52,1.03.88,1.76,1.66,2.34,1.12.83,1.77.37,3.37,1.3.35.2,1.28.75,2,1.71.67.9,1.15,2.15,1.15,2.15,0,0,3.09-3.17,3.09-3.17,0,0-.38-.85-.71-1.29-.64-.82-1.52-.68-2.74-1.39-.74-.43-1.17-.99-2.03-2.1-1.62-2.08-1.1-2.35-2.04-3.18-1.65-1.45-3.34-.7-4.81-2.15-.21-.21-.35-.4-.45-.58-.58-1.03-.81-1.9-.86-2.11-.17-.75-1.23-1.84-5.26-3.26"/>
      <path class="cls-4" d="M102.03,129.49l45.17-45.98c1.62-1.65,1.5-4.2-.26-5.7l-12.52-10.69c-1.76-1.5-4.5-1.39-6.12.26l-45.17,45.98c-1.62,1.65-1.5,4.2.26,5.7l12.52,10.69c1.76,1.5,4.5,1.39,6.12-.26Z"/>
      <path class="cls-4" d="M78.38,141.74c6.6-3.9,13.2-7.81,19.8-11.71-4.75-4.19-9.5-8.38-14.25-12.57-3.58,6.39-7.17,12.78-10.75,19.17,1.74,1.7,3.47,3.41,5.21,5.11Z"/>
      <path class="cls-1" d="M348.16,100.63"/>
      <path class="cls-5" d="M83.99,116.97c4.49,4.12,8.98,8.24,13.47,12.36"/>
      <path class="cls-5" d="M145.28,84.71c-5.79-5.39-11.58-10.79-17.37-16.18"/>
      <path class="cls-2" d="M118.33,104.66c5.66-5.76,7.99-12.36,5.2-14.74s-9.63.37-15.3,6.13c-5.66,5.76-7.99,12.36-5.2,14.74,2.79,2.38,9.63-.37,15.3-6.13Z"/>
      <path class="cls-2" d="M86.94,109.48c.55.07,1.32.26,2.01.78,1.02.77.91,1.6,2.08,3.08.63.8,1.04,1.33,1.83,1.81,1.54.94,2.57.5,3.47,1.39.5.5.22.67.88,1.99.52,1.03.88,1.76,1.66,2.34,1.12.83,1.77.37,3.37,1.3.35.2,1.28.75,2,1.71.67.9,1.15,2.15,1.15,2.15,0,0,3.09-3.17,3.09-3.17,0,0-.38-.85-.71-1.29-.64-.82-1.52-.68-2.74-1.39-.74-.43-1.17-.99-2.03-2.1-1.62-2.08-1.1-2.35-2.04-3.18-1.65-1.45-3.34-.7-4.81-2.15-.21-.21-.35-.4-.45-.58-.58-1.03-.81-1.9-.86-2.11-.17-.75-1.23-1.84-5.26-3.26"/>
      <path class="cls-2" d="M122.03,73.86c.55.07,1.32.26,2.01.78,1.02.77.91,1.6,2.08,3.08.63.8,1.04,1.33,1.83,1.81,1.54.94,2.57.5,3.47,1.39.5.5.22.67.88,1.99.52,1.03.88,1.76,1.66,2.34,1.12.83,1.77.37,3.37,1.3.35.2,1.28.75,2,1.71.67.9,1.15,2.15,1.15,2.15,0,0,3.09-3.17,3.09-3.17,0,0-.38-.85-.71-1.29-.64-.82-1.52-.68-2.74-1.39-.74-.43-1.17-.99-2.03-2.1-1.62-2.08-1.1-2.35-2.04-3.18-1.65-1.45-3.34-.7-4.81-2.15-.21-.21-.35-.4-.45-.58-.58-1.03-.81-1.9-.86-2.11-.17-.75-1.23-1.84-5.26-3.26"/>
      <path class="cls-8" d="M142.55,165.84l45.17-45.98c1.62-1.65,1.5-4.2-.26-5.7l-12.52-10.69c-1.76-1.5-4.5-1.39-6.12.26l-45.17,45.98c-1.62,1.65-1.5,4.2.26,5.7l12.52,10.69c1.76,1.5,4.5,1.39,6.12-.26Z"/>
      <path class="cls-8" d="M118.9,178.09c6.6-3.9,13.2-7.81,19.8-11.71-4.75-4.19-9.5-8.38-14.25-12.57-3.58,6.39-7.17,12.78-10.75,19.17,1.74,1.7,3.47,3.41,5.21,5.11Z"/>
      <path class="cls-5" d="M124.5,153.33c4.49,4.12,8.98,8.24,13.47,12.36"/>
      <path class="cls-5" d="M185.8,121.07c-5.79-5.39-11.58-10.79-17.37-16.18"/>
      <path class="cls-2" d="M158.84,141.02c5.66-5.76,7.99-12.36,5.2-14.74s-9.63.37-15.3,6.13c-5.66,5.76-7.99,12.36-5.2,14.74s9.63-.37,15.3-6.13Z"/>
      <path class="cls-2" d="M127.46,145.84c.55.07,1.32.26,2.01.78,1.02.77.91,1.6,2.08,3.08.63.8,1.04,1.33,1.83,1.81,1.54.94,2.57.5,3.47,1.39.5.5.22.67.88,1.99.52,1.03.88,1.76,1.66,2.34,1.12.83,1.77.37,3.37,1.3.35.2,1.28.75,2,1.71.67.9,1.15,2.15,1.15,2.15,0,0,3.09-3.17,3.09-3.17,0,0-.38-.85-.71-1.29-.64-.82-1.52-.68-2.74-1.39-.74-.43-1.17-.99-2.03-2.1-1.62-2.08-1.1-2.35-2.04-3.18-1.65-1.45-3.34-.7-4.81-2.15-.21-.21-.35-.4-.45-.58-.58-1.03-.81-1.9-.86-2.11-.17-.75-1.23-1.84-5.26-3.26"/>
      <path class="cls-2" d="M162.55,110.21c.55.07,1.32.26,2.01.78,1.02.77.91,1.6,2.08,3.08.63.8,1.04,1.33,1.83,1.81,1.54.94,2.57.5,3.47,1.39.5.5.22.67.88,1.99.52,1.03.88,1.76,1.66,2.34,1.12.83,1.77.37,3.37,1.3.35.2,1.28.75,2,1.71.67.9,1.15,2.15,1.15,2.15,0,0,3.09-3.17,3.09-3.17,0,0-.38-.85-.71-1.29-.64-.82-1.52-.68-2.74-1.39-.74-.43-1.17-.99-2.03-2.1-1.62-2.08-1.1-2.35-2.04-3.18-1.65-1.45-3.34-.7-4.81-2.15-.21-.21-.35-.4-.45-.58-.58-1.03-.81-1.9-.86-2.11-.17-.75-1.23-1.84-5.26-3.26"/>
      <path class="cls-4" d="M160.82,185.66l45.17-45.98c1.62-1.65,1.5-4.2-.26-5.7l-12.52-10.69c-1.76-1.5-4.5-1.39-6.12.26l-45.17,45.98c-1.62,1.65-1.5,4.2.26,5.7l12.52,10.69c1.76,1.5,4.5,1.39,6.12-.26Z"/>
      <path class="cls-4" d="M137.17,197.91c6.6-3.9,13.2-7.81,19.8-11.71l-14.25-12.57c-3.58,6.39-7.17,12.78-10.75,19.17,1.74,1.7,3.47,3.41,5.21,5.11Z"/>
      <path class="cls-5" d="M142.77,173.14c4.49,4.12,8.98,8.24,13.47,12.36"/>
      <path class="cls-5" d="M204.07,140.88c-5.79-5.39-11.58-10.79-17.37-16.18"/>
      <path class="cls-2" d="M177.11,160.83c5.66-5.76,7.99-12.36,5.2-14.74s-9.63.37-15.3,6.13c-5.66,5.76-7.99,12.36-5.2,14.74s9.63-.37,15.3-6.13Z"/>
      <path class="cls-2" d="M145.73,165.65c.55.07,1.32.26,2.01.78,1.02.77.91,1.6,2.08,3.08.63.8,1.04,1.33,1.83,1.81,1.54.94,2.57.5,3.47,1.39.5.5.22.67.88,1.99.52,1.03.88,1.76,1.66,2.34,1.12.83,1.77.37,3.37,1.3.35.2,1.28.75,2,1.71.67.9,1.15,2.15,1.15,2.15,0,0,3.09-3.17,3.09-3.17,0,0-.38-.85-.71-1.29-.64-.82-1.52-.68-2.74-1.39-.74-.43-1.17-.99-2.03-2.1-1.62-2.08-1.1-2.35-2.04-3.18-1.65-1.45-3.34-.7-4.81-2.15-.21-.21-.35-.4-.45-.58-.58-1.03-.81-1.9-.86-2.11-.17-.75-1.23-1.84-5.26-3.26"/>
      <path class="cls-2" d="M180.82,130.03c.55.07,1.32.26,2.01.78,1.02.77.91,1.6,2.08,3.08.63.8,1.04,1.33,1.83,1.81,1.54.94,2.57.5,3.47,1.39.5.5.22.67.88,1.99.52,1.03.88,1.76,1.66,2.34,1.12.83,1.77.37,3.37,1.3.35.2,1.28.75,2,1.71.67.9,1.15,2.15,1.15,2.15,0,0,3.09-3.17,3.09-3.17,0,0-.38-.85-.71-1.29-.64-.82-1.52-.68-2.74-1.39-.74-.43-1.17-.99-2.03-2.1-1.62-2.08-1.1-2.35-2.04-3.18-1.65-1.45-3.34-.7-4.81-2.15-.21-.21-.35-.4-.45-.58-.58-1.03-.81-1.9-.86-2.11-.17-.75-1.23-1.84-5.26-3.26"/>
      <path class="cls-6" d="M80.11,112.69l40.23-49.8c1.44-1.78,1.06-4.32-.84-5.65l-13.57-9.51c-1.91-1.34-4.62-.98-6.07.81l-40.23,49.8c-1.44,1.78-1.06,4.32.84,5.65l13.57,9.51c1.91,1.34,4.62.98,6.07-.81Z"/>
      <path class="cls-6" d="M57.82,127c6.17-4.48,12.34-8.95,18.5-13.43-5.16-3.74-10.32-7.49-15.49-11.23-2.91,6.68-5.82,13.36-8.73,20.04,1.9,1.54,3.81,3.08,5.71,4.62Z"/>
      <path class="cls-5" d="M60.85,101.86c4.89,3.7,9.79,7.39,14.68,11.09"/>
      <path class="cls-2" d="M93.78,86.53c5.04-6.24,6.68-13.02,3.66-15.13s-9.56,1.23-14.6,7.47c-5.04,6.24-6.68,13.02-3.66,15.13s9.56-1.23,14.6-7.47Z"/>
      <path class="cls-2" d="M63.02,94.14c.56.02,1.34.14,2.08.59,1.1.68,1.07,1.51,2.39,2.88.71.74,1.17,1.23,2,1.63,1.63.79,2.61.27,3.6,1.07.55.45.28.65,1.08,1.91.62.98,1.06,1.67,1.9,2.18,1.2.72,1.8.21,3.49.99.37.17,1.36.63,2.17,1.52.76.83,1.36,2.03,1.36,2.03,0,0,2.75-3.43,2.75-3.43,0,0-.46-.81-.84-1.22-.72-.76-1.59-.54-2.87-1.14-.78-.36-1.27-.88-2.24-1.91-1.82-1.93-1.34-2.24-2.36-2.98-1.79-1.29-3.4-.39-5.01-1.71-.23-.19-.39-.37-.51-.54-.69-.98-1-1.82-1.07-2.02-.24-.73-1.41-1.72-5.58-2.77"/>
      <path class="cls-2" d="M94.29,55.55c.56.02,1.34.14,2.08.59,1.1.68,1.07,1.51,2.39,2.88.71.74,1.17,1.23,2,1.63,1.63.79,2.61.27,3.6,1.07.55.45.28.65,1.08,1.91.62.98,1.06,1.67,1.9,2.18,1.2.72,1.8.21,3.49.99.37.17,1.36.63,2.17,1.52.76.83,1.36,2.03,1.36,2.03,0,0,2.75-3.43,2.75-3.43,0,0-.46-.81-.84-1.22-.72-.76-1.59-.54-2.87-1.14-.78-.36-1.27-.88-2.24-1.91-1.82-1.93-1.34-2.24-2.36-2.98-1.79-1.29-3.4-.39-5.01-1.71-.23-.19-.39-.37-.51-.54-.69-.98-1-1.82-1.07-2.02-.24-.73-1.41-1.72-5.58-2.77"/>
      <path class="cls-8" d="M55.9,98.92l36.31-52.35c1.3-1.88.73-4.37-1.28-5.58l-14.27-8.58c-2.01-1.21-4.69-.66-5.99,1.21l-36.31,52.35c-1.3,1.88-.73,4.37,1.28,5.58l14.27,8.58c2.01,1.21,4.69.66,5.99-1.21Z"/>
      <path class="cls-8" d="M34.76,114.68c5.81-4.88,11.62-9.75,17.43-14.63-5.44-3.39-10.88-6.78-16.31-10.16-2.39,6.86-4.78,13.71-7.17,20.57,2.02,1.41,4.04,2.81,6.06,4.22Z"/>
      <path class="cls-5" d="M35.85,89.41c5.17,3.36,10.34,6.72,15.5,10.08"/>
      <path class="cls-2" d="M67.52,71.92c4.55-6.56,5.66-13.43,2.49-15.33-3.18-1.91-9.44,1.86-13.99,8.42-4.55,6.56-5.66,13.43-2.49,15.33,3.18,1.91,9.44-1.86,13.99-8.42Z"/>
      <path class="cls-2" d="M37.42,81.57c.56-.01,1.35.05,2.12.45,1.14.6,1.19,1.43,2.6,2.71.76.69,1.27,1.15,2.12,1.49,1.69.68,2.63.09,3.67.83.58.41.33.63,1.22,1.83.7.94,1.19,1.6,2.06,2.04,1.25.64,1.81.09,3.56.75.38.14,1.4.54,2.28,1.37.82.78,1.52,1.94,1.52,1.94,0,0,2.48-3.61,2.48-3.61,0,0-.52-.78-.94-1.16-.78-.71-1.62-.43-2.95-.94-.81-.31-1.33-.79-2.38-1.75-1.97-1.8-1.51-2.15-2.58-2.81-1.89-1.17-3.42-.16-5.13-1.37-.24-.17-.42-.34-.55-.5-.76-.93-1.14-1.75-1.22-1.95-.3-.71-1.54-1.62-5.78-2.39"/>
      <path class="cls-2" d="M65.65,40.99c.56-.01,1.35.05,2.12.45,1.14.6,1.19,1.43,2.6,2.71.76.69,1.27,1.15,2.12,1.49,1.69.68,2.63.09,3.67.83.58.41.33.63,1.22,1.83.7.94,1.19,1.6,2.06,2.04,1.25.64,1.81.09,3.56.75.38.14,1.4.54,2.28,1.37.82.78,1.52,1.94,1.52,1.94,0,0,2.48-3.61,2.48-3.61,0,0-.52-.78-.94-1.16-.78-.71-1.62-.43-2.95-.94-.81-.31-1.33-.79-2.38-1.75-1.97-1.8-1.51-2.15-2.58-2.81-1.89-1.17-3.42-.16-5.13-1.37-.24-.17-.42-.34-.55-.5-.76-.93-1.14-1.75-1.22-1.95-.3-.71-1.54-1.62-5.78-2.39"/>
      <path class="cls-1" d="M27.92,83.66l16.4-60.38c.59-2.16-.82-4.36-3.13-4.9l-16.49-3.84c-2.32-.54-4.67.78-5.26,2.94L3.04,77.87c-.59,2.16.82,4.36,3.13,4.9l16.49,3.84c2.32.54,4.67-.78,5.26-2.94Z"/>
      <path class="cls-1" d="M13.3,104.89c3.83-6.35,7.66-12.7,11.49-19.05-6.32-1.58-12.65-3.15-18.97-4.73.1,7.2.19,14.4.29,21.6,2.4.73,4.8,1.45,7.2,2.18Z"/>
      <path class="cls-5" d="M5.63,80.66c6.06,1.63,12.11,3.26,18.17,4.89"/>
      <ellipse class="cls-2" cx="22.99" cy="53.09" rx="14.2" ry="6.82" transform="translate(-34.35 60.74) rotate(-74.18)"/>
      <path class="cls-2" d="M4.42,72.77c.52-.18,1.3-.36,2.17-.21,1.29.23,1.62,1,3.4,1.79.96.43,1.6.71,2.53.78,1.83.14,2.52-.7,3.77-.32.7.22.53.49,1.79,1.36.98.68,1.67,1.16,2.66,1.32,1.41.23,1.75-.45,3.64-.35.41.02,1.51.09,2.63.61,1.05.49,2.1,1.38,2.1,1.38,0,0,1.11-4.15,1.11-4.15,0,0-.76-.58-1.29-.81-.98-.44-1.69.08-3.12,0-.87-.05-1.53-.35-2.86-.94-2.48-1.11-2.17-1.58-3.42-1.89-2.19-.54-3.3.87-5.34.24-.29-.09-.51-.19-.7-.31-1.04-.65-1.69-1.31-1.83-1.47-.53-.59-2.02-1.07-6.3-.53"/>
      <path class="cls-2" d="M17.21,25.95c.52-.18,1.3-.36,2.17-.21,1.29.23,1.62,1,3.4,1.79.96.43,1.6.71,2.53.78,1.83.14,2.52-.7,3.77-.32.7.22.53.49,1.79,1.36.98.68,1.67,1.16,2.66,1.32,1.41.23,1.75-.45,3.64-.35.41.02,1.51.09,2.63.61,1.05.49,2.1,1.38,2.1,1.38,0,0,1.11-4.15,1.11-4.15,0,0-.76-.58-1.29-.81-.98-.44-1.69.08-3.12,0-.87-.05-1.53-.35-2.86-.94-2.48-1.11-2.17-1.58-3.42-1.89-2.19-.54-3.3.87-5.34.24-.29-.09-.51-.19-.7-.31-1.04-.65-1.69-1.31-1.83-1.47-.53-.59-2.02-1.07-6.3-.53"/>
    </g>
    <g id="Layer_3" class="cls-7">
      <path class="cls-1" d="M103.25,54.25l60.92,20.6c2.18.74,3.33,3.1,2.57,5.27l-5.44,15.45c-.77,2.17-3.16,3.33-5.34,2.6l-60.92-20.6c-2.18-.74-3.33-3.1-2.57-5.27l5.44-15.45c.77-2.17,3.16-3.33,5.34-2.6Z"/>
      <path class="cls-1" d="M77.13,54.15c7.53.47,15.05.94,22.58,1.41-2,5.98-4,11.97-5.99,17.95-6.17-4.11-12.35-8.22-18.52-12.33.65-2.34,1.29-4.68,1.94-7.02Z"/>
      <path class="cls-1" d="M157.38,60.81"/>
      <path class="cls-5" d="M94,73.91c1.81-5.8,3.62-11.6,5.43-17.39"/>
      <path class="cls-5" d="M161.95,74.66c-2.3,7.55-4.6,15.1-6.89,22.65"/>
      <ellipse class="cls-2" cx="127.06" cy="75.35" rx="6.6" ry="14.59" transform="translate(15.29 171.94) rotate(-71.5)"/>
      <path class="cls-2" d="M100.17,79.31c.43-.32,1-.85,1.33-1.63.49-1.17,0-1.86.26-3.75.14-1.01.24-1.68.67-2.48.85-1.56,1.95-1.64,2.28-2.86.18-.68-.14-.71-.23-2.21-.06-1.17-.11-2,.27-2.88.55-1.26,1.32-1.15,2.24-2.74.2-.35.73-1.27.87-2.47.13-1.12-.07-2.47-.07-2.47,0,0,4.18,1.43,4.18,1.43,0,0,.09.94.02,1.49-.14,1.04-.96,1.32-1.65,2.52-.42.73-.52,1.43-.71,2.84-.36,2.63.21,2.63-.18,3.81-.7,2.07-2.51,2.17-3.04,4.17-.08.28-.1.52-.1.74.01,1.2.24,2.1.3,2.3.22.76-.15,2.23-2.89,5.38"/>
      <path class="cls-2" d="M147.46,95.23c.43-.32,1-.85,1.33-1.63.49-1.17,0-1.86.26-3.75.14-1.01.24-1.68.67-2.48.85-1.56,1.95-1.64,2.28-2.86.18-.68-.14-.71-.23-2.21-.06-1.17-.11-2,.27-2.88.55-1.26,1.32-1.15,2.24-2.74.2-.35.73-1.27.87-2.47.13-1.12-.07-2.47-.07-2.47,0,0,4.18,1.43,4.18,1.43,0,0,.09.94.02,1.49-.14,1.04-.96,1.32-1.65,2.52-.42.73-.52,1.43-.71,2.84-.36,2.63.21,2.63-.18,3.81-.7,2.07-2.51,2.17-3.04,4.17-.08.28-.1.52-.1.74.01,1.2.24,2.1.3,2.3.22.76-.15,2.23-2.89,5.38"/>
      <path class="cls-4" d="M91.5,78.81l60.92,20.6c2.18.74,3.33,3.1,2.57,5.27l-5.44,15.45c-.77,2.17-3.16,3.33-5.34,2.6l-60.92-20.6c-2.18-.74-3.33-3.1-2.57-5.27l5.44-15.45c.77-2.17,3.16-3.33,5.34-2.6Z"/>
      <path class="cls-4" d="M65.37,78.71c7.53.47,15.05.94,22.58,1.41-2,5.98-4,11.97-5.99,17.95-6.17-4.11-12.35-8.22-18.52-12.33.65-2.34,1.29-4.68,1.94-7.02Z"/>
      <path class="cls-1" d="M64.71,290.71"/>
      <path class="cls-5" d="M82.24,98.47c1.81-5.8,3.62-11.6,5.43-17.39"/>
      <path class="cls-5" d="M150.2,99.22c-2.3,7.55-4.6,15.1-6.89,22.65"/>
      <ellipse class="cls-2" cx="115.31" cy="99.91" rx="6.6" ry="14.59" transform="translate(-16.02 177.57) rotate(-71.5)"/>
      <path class="cls-2" d="M88.42,103.87c.43-.32,1-.85,1.33-1.63.49-1.17,0-1.86.26-3.75.14-1.01.24-1.68.67-2.48.85-1.56,1.95-1.64,2.28-2.86.18-.68-.14-.71-.23-2.21-.06-1.17-.11-2,.27-2.88.55-1.26,1.32-1.15,2.24-2.74.2-.35.73-1.27.87-2.47.13-1.12-.07-2.47-.07-2.47,0,0,4.18,1.43,4.18,1.43,0,0,.09.94.02,1.49-.14,1.04-.96,1.32-1.65,2.52-.42.73-.52,1.43-.71,2.84-.36,2.63.21,2.63-.18,3.81-.7,2.07-2.51,2.17-3.04,4.17-.08.28-.1.52-.1.74.01,1.2.24,2.1.3,2.3.22.76-.15,2.23-2.89,5.38"/>
      <path class="cls-2" d="M135.7,119.78c.43-.32,1-.85,1.33-1.63.49-1.17,0-1.86.26-3.75.14-1.01.24-1.68.67-2.48.85-1.56,1.95-1.64,2.28-2.86.18-.68-.14-.71-.23-2.21-.06-1.17-.11-2,.27-2.88.55-1.26,1.32-1.15,2.24-2.74.2-.35.73-1.27.87-2.47.13-1.12-.07-2.47-.07-2.47,0,0,4.18,1.43,4.18,1.43,0,0,.09.94.02,1.49-.14,1.04-.96,1.32-1.65,2.52-.42.73-.52,1.43-.71,2.84-.36,2.63.21,2.63-.18,3.81-.7,2.07-2.51,2.17-3.04,4.17-.08.28-.1.52-.1.74.01,1.2.24,2.1.3,2.3.22.76-.15,2.23-2.89,5.38"/>
      <path class="cls-8" d="M108.25,27.23l60.92,20.6c2.18.74,3.33,3.1,2.57,5.27l-5.44,15.45c-.77,2.17-3.16,3.33-5.34,2.6l-60.92-20.6c-2.18-.74-3.33-3.1-2.57-5.27l5.44-15.45c.77-2.17,3.16-3.33,5.34-2.6Z"/>
      <path class="cls-8" d="M82.12,27.12c7.53.47,15.05.94,22.58,1.41-2,5.98-4,11.97-5.99,17.95-6.17-4.11-12.35-8.22-18.52-12.33.65-2.34,1.29-4.68,1.94-7.02Z"/>
      <path class="cls-5" d="M98.99,46.89c1.81-5.8,3.62-11.6,5.43-17.39"/>
      <path class="cls-5" d="M166.95,47.63c-2.3,7.55-4.6,15.1-6.89,22.65"/>
      <ellipse class="cls-2" cx="132.06" cy="48.33" rx="6.6" ry="14.59" transform="translate(44.33 158.23) rotate(-71.5)"/>
      <path class="cls-2" d="M105.17,52.28c.43-.32,1-.85,1.33-1.63.49-1.17,0-1.86.26-3.75.14-1.01.24-1.68.67-2.48.85-1.56,1.95-1.64,2.28-2.86.18-.68-.14-.71-.23-2.21-.06-1.17-.11-2,.27-2.88.55-1.26,1.32-1.15,2.24-2.74.2-.35.73-1.27.87-2.47.13-1.12-.07-2.47-.07-2.47,0,0,4.18,1.43,4.18,1.43,0,0,.09.94.02,1.49-.14,1.04-.96,1.32-1.65,2.52-.42.73-.52,1.43-.71,2.84-.36,2.63.21,2.63-.18,3.81-.7,2.07-2.51,2.17-3.04,4.17-.08.28-.1.52-.1.74.01,1.2.24,2.1.3,2.3.22.76-.15,2.23-2.89,5.38"/>
      <path class="cls-2" d="M152.45,68.2c.43-.32,1-.85,1.33-1.63.49-1.17,0-1.86.26-3.75.14-1.01.24-1.68.67-2.48.85-1.56,1.95-1.64,2.28-2.86.18-.68-.14-.71-.23-2.21-.06-1.17-.11-2,.27-2.88.55-1.26,1.32-1.15,2.24-2.74.2-.35.73-1.27.87-2.47.13-1.12-.07-2.47-.07-2.47,0,0,4.18,1.43,4.18,1.43,0,0,.09.94.02,1.49-.14,1.04-.96,1.32-1.65,2.52-.42.73-.52,1.43-.71,2.84-.36,2.63.21,2.63-.18,3.81-.7,2.07-2.51,2.17-3.04,4.17-.08.28-.1.52-.1.74.01,1.2.24,2.1.3,2.3.22.76-.15,2.23-2.89,5.38"/>
      <path class="cls-4" d="M114.13.87l60.92,20.6c2.18.74,3.33,3.1,2.57,5.27l-5.44,15.45c-.77,2.17-3.16,3.33-5.34,2.6l-60.92-20.6c-2.18-.74-3.33-3.1-2.57-5.27l5.44-15.45c.77-2.17,3.16-3.33,5.34-2.6Z"/>
      <path class="cls-4" d="M88,.77c7.53.47,15.05.94,22.58,1.41-2,5.98-4,11.97-5.99,17.95-6.17-4.11-12.35-8.22-18.52-12.33.65-2.34,1.29-4.68,1.94-7.02Z"/>
      <path class="cls-5" d="M104.87,20.53c1.81-5.8,3.62-11.6,5.43-17.39"/>
      <path class="cls-5" d="M172.82,21.28c-2.3,7.55-4.6,15.1-6.89,22.65"/>
      <ellipse class="cls-2" cx="137.93" cy="21.97" rx="6.6" ry="14.59" transform="translate(73.33 145.81) rotate(-71.5)"/>
      <path class="cls-2" d="M111.05,25.93c.43-.32,1-.85,1.33-1.63.49-1.17,0-1.86.26-3.75.14-1.01.24-1.68.67-2.48.85-1.56,1.95-1.64,2.28-2.86.18-.68-.14-.71-.23-2.21-.06-1.17-.11-2,.27-2.88.55-1.26,1.32-1.15,2.24-2.74.2-.35.73-1.27.87-2.47.13-1.12-.07-2.47-.07-2.47,0,0,4.18,1.43,4.18,1.43,0,0,.09.94.02,1.49-.14,1.04-.96,1.32-1.65,2.52-.42.73-.52,1.43-.71,2.84-.36,2.63.21,2.63-.18,3.81-.7,2.07-2.51,2.17-3.04,4.17-.08.28-.1.52-.1.74.01,1.2.24,2.1.3,2.3.22.76-.15,2.23-2.89,5.38"/>
      <path class="cls-2" d="M158.33,41.85c.43-.32,1-.85,1.33-1.63.49-1.17,0-1.86.26-3.75.14-1.01.24-1.68.67-2.48.85-1.56,1.95-1.64,2.28-2.86.18-.68-.14-.71-.23-2.21-.06-1.17-.11-2,.27-2.88.55-1.26,1.32-1.15,2.24-2.74.2-.35.73-1.27.87-2.47.13-1.12-.07-2.47-.07-2.47,0,0,4.18,1.43,4.18,1.43,0,0,.09.94.02,1.49-.14,1.04-.96,1.32-1.65,2.52-.42.73-.52,1.43-.71,2.84-.36,2.63.21,2.63-.18,3.81-.7,2.07-2.51,2.17-3.04,4.17-.08.28-.1.52-.1.74.01,1.2.24,2.1.3,2.3.22.76-.15,2.23-2.89,5.38"/>
      <path class="cls-6" d="M81.04,104.13l58.59,26.33c2.1.94,3.01,3.4,2.04,5.5l-6.91,14.87c-.97,2.09-3.46,3.02-5.56,2.08l-58.59-26.33c-2.1-.94-3.01-3.4-2.04-5.5l6.91-14.87c.97-2.09,3.46-3.02,5.56-2.08Z"/>
      <path class="cls-6" d="M55.06,101.53c7.44,1.19,14.88,2.37,22.32,3.56-2.57,5.77-5.13,11.54-7.7,17.31-5.74-4.68-11.48-9.37-17.23-14.05.87-2.27,1.74-4.54,2.61-6.81Z"/>
      <path class="cls-5" d="M69.93,122.83c2.36-5.6,4.72-11.21,7.09-16.81"/>
      <ellipse class="cls-2" cx="102.67" cy="127.42" rx="6.61" ry="14.58" transform="translate(-55.5 169.34) rotate(-65.98)"/>
      <path class="cls-2" d="M75.54,128.79c.46-.28,1.08-.75,1.48-1.5.6-1.12.18-1.86.62-3.71.24-1,.4-1.65.91-2.4,1-1.47,2.09-1.45,2.54-2.63.25-.66-.08-.72-.01-2.22.05-1.18.09-2,.55-2.85.67-1.21,1.43-1.02,2.49-2.51.23-.32.85-1.2,1.1-2.38.24-1.1.17-2.47.17-2.47,0,0,4.02,1.83,4.02,1.83,0,0,0,.95-.12,1.49-.24,1.02-1.09,1.22-1.89,2.35-.49.69-.65,1.38-.98,2.76-.61,2.58-.04,2.64-.55,3.78-.9,2-2.7,1.93-3.43,3.86-.1.28-.15.51-.17.72-.11,1.2.04,2.11.08,2.32.15.77-.36,2.2-3.4,5.08"/>
      <path class="cls-2" d="M121.02,149.16c.46-.28,1.08-.75,1.48-1.5.6-1.12.18-1.86.62-3.71.24-1,.4-1.65.91-2.4,1-1.47,2.09-1.45,2.54-2.63.25-.66-.08-.72-.01-2.22.05-1.18.09-2,.55-2.85.67-1.21,1.43-1.02,2.49-2.51.23-.32.85-1.2,1.1-2.38.24-1.1.17-2.47.17-2.47,0,0,4.02,1.83,4.02,1.83,0,0,0,.95-.12,1.49-.24,1.02-1.09,1.22-1.89,2.35-.49.69-.65,1.38-.98,2.76-.61,2.58-.04,2.64-.55,3.78-.9,2-2.7,1.93-3.43,3.86-.1.28-.15.51-.17.72-.11,1.2.04,2.11.08,2.32.15.77-.36,2.2-3.4,5.08"/>
      <path class="cls-8" d="M67.14,127.77l56.49,30.45c2.02,1.09,2.76,3.61,1.64,5.63l-7.97,14.35c-1.12,2.02-3.67,2.77-5.69,1.68l-56.49-30.45c-2.02-1.09-2.76-3.61-1.64-5.63l7.97-14.35c1.12-2.02,3.67-2.77,5.69-1.68Z"/>
      <path class="cls-8" d="M41.44,123.33c7.33,1.71,14.66,3.42,21.99,5.14-2.98,5.58-5.95,11.15-8.93,16.73-5.38-5.08-10.77-10.17-16.15-15.25,1.03-2.2,2.06-4.41,3.1-6.61Z"/>
      <path class="cls-5" d="M54.71,145.65c2.76-5.43,5.52-10.85,8.28-16.28"/>
      <ellipse class="cls-2" cx="87.02" cy="152.56" rx="6.61" ry="14.56" transform="translate(-88.55 157.31) rotate(-61.85)"/>
      <path class="cls-2" d="M59.88,152c.48-.25,1.13-.67,1.59-1.39.68-1.07.31-1.84.89-3.66.31-.98.52-1.62,1.08-2.33,1.1-1.4,2.19-1.3,2.72-2.45.3-.64-.02-.72.15-2.22.13-1.17.23-1.99.76-2.8.75-1.16,1.49-.92,2.67-2.33.26-.31.93-1.14,1.27-2.29.32-1.08.34-2.45.34-2.45,0,0,3.87,2.11,3.87,2.11,0,0-.07.95-.23,1.48-.31,1-1.17,1.14-2.05,2.21-.54.65-.75,1.33-1.17,2.68-.8,2.54-.23,2.64-.82,3.73-1.04,1.93-2.83,1.73-3.7,3.61-.12.27-.19.5-.23.71-.19,1.19-.12,2.11-.09,2.32.09.78-.52,2.17-3.75,4.83"/>
      <path class="cls-2" d="M103.74,175.57c.48-.25,1.13-.67,1.59-1.39.68-1.07.31-1.84.89-3.66.31-.98.52-1.62,1.08-2.33,1.1-1.4,2.19-1.3,2.72-2.45.3-.64-.02-.72.15-2.22.13-1.17.23-1.99.76-2.8.75-1.16,1.49-.92,2.67-2.33.26-.31.93-1.14,1.27-2.29.32-1.08.34-2.45.34-2.45,0,0,3.87,2.11,3.87,2.11,0,0-.07.95-.23,1.48-.31,1-1.17,1.14-2.05,2.21-.54.65-.75,1.33-1.17,2.68-.8,2.54-.23,2.64-.82,3.73-1.04,1.93-2.83,1.73-3.7,3.61-.12.27-.19.5-.23.71-.19,1.19-.12,2.11-.09,2.32.09.78-.52,2.17-3.75,4.83"/>
      <path class="cls-1" d="M50.77,154.51l43.46,46.93c1.56,1.68,1.43,4.31-.28,5.87l-12.17,11.1c-1.71,1.56-4.36,1.46-5.92-.22l-43.46-46.93c-1.56-1.68-1.43-4.31.28-5.87l12.17-11.1c1.71-1.56,4.36-1.46,5.92.22Z"/>
      <path class="cls-1" d="M27.95,142.11c6.36,3.96,12.73,7.92,19.09,11.88-4.62,4.35-9.23,8.7-13.85,13.05-3.44-6.55-6.87-13.09-10.31-19.64,1.69-1.77,3.38-3.53,5.06-5.3Z"/>
      <path class="cls-5" d="M33.25,167.54c4.36-4.28,8.72-8.55,13.09-12.83"/>
      <ellipse class="cls-2" cx="61.51" cy="184.39" rx="6.64" ry="14.51" transform="translate(-109.1 91.24) rotate(-42.92)"/>
      <path class="cls-2" d="M36.07,175.22c.53-.08,1.28-.28,1.95-.82.99-.8.89-1.65,2.02-3.19.61-.83,1.01-1.38,1.77-1.87,1.49-.98,2.49-.53,3.36-1.46.49-.52.21-.69.86-2.06.51-1.07.86-1.82,1.62-2.42,1.08-.86,1.71-.4,3.27-1.37.34-.21,1.25-.78,1.94-1.77.65-.93,1.12-2.22,1.12-2.22,0,0,2.97,3.24,2.97,3.24,0,0-.37.88-.7,1.33-.62.85-1.48.71-2.65,1.45-.72.45-1.14,1.02-1.98,2.18-1.57,2.16-1.07,2.43-1.99,3.29-1.6,1.51-3.24.74-4.66,2.25-.2.22-.34.41-.44.6-.57,1.07-.79,1.97-.84,2.18-.17.77-1.2,1.9-5.11,3.39"/>
      <path class="cls-2" d="M69.84,211.58c.53-.08,1.28-.28,1.95-.82.99-.8.89-1.65,2.02-3.19.61-.83,1.01-1.38,1.77-1.87,1.49-.98,2.49-.53,3.36-1.46.49-.52.21-.69.86-2.06.51-1.07.86-1.82,1.62-2.42,1.08-.86,1.71-.4,3.27-1.37.34-.21,1.25-.78,1.94-1.77.65-.93,1.12-2.22,1.12-2.22,0,0,2.97,3.24,2.97,3.24,0,0-.37.88-.7,1.33-.62.85-1.48.71-2.65,1.45-.72.45-1.14,1.02-1.98,2.18-1.57,2.16-1.07,2.43-1.99,3.29-1.6,1.51-3.24.74-4.66,2.25-.2.22-.34.41-.44.6-.57,1.07-.79,1.97-.84,2.18-.17.77-1.2,1.9-5.11,3.39"/>
    </g>
  </g>
</svg>