<?xml version="1.0" encoding="UTF-8"?>
<svg xmlns="http://www.w3.org/2000/svg" version="1.1" viewBox="0 0 210 207">
  <defs>
    <style>
      .cls-1 {
        fill: #3d92aa;
      }

      .cls-2 {
        fill: #090c0c;
      }

      .cls-3 {
        fill: #dac3da;
      }

      .cls-4, .cls-5 {
        fill: #f3db6a;
      }

      .cls-5 {
        stroke: #231f20;
        stroke-miterlimit: 10;
      }

      .cls-6 {
        fill: #f7983e;
      }

      .cls-7 {
        display: none;
      }

      .cls-8 {
        fill: #f7a690;
      }
    </style>
  </defs>
  <!-- Generator: Adobe Illustrator 28.7.1, SVG Export Plug-In . SVG Version: 1.2.0 Build 142)  -->
  <g>
    <g id="Layer_1" class="cls-7">
      <rect class="cls-1" x="45.48" y="106.82" width="71.89" height="24.47" rx="4.13" ry="4.13" transform="translate(102.92 -23.57) rotate(42.94)"/>
      <path class="cls-1" d="M119.83,160.33c-6.58-3.46-13.16-6.93-19.74-10.39l12.54-13.93c3.92,6.24,7.83,12.47,11.75,18.71-1.51,1.87-3.03,3.74-4.54,5.61Z"/>
      <path class="cls-1" d="M50.32,121.88"/>
      <path class="cls-5" d="M112.53,135.52c-3.94,4.55-7.87,9.1-11.81,13.65"/>
      <path class="cls-5" d="M51.72,107.42c5.07-5.95,10.14-11.9,15.22-17.85"/>
      <ellipse class="cls-2" cx="83.37" cy="120.87" rx="6.53" ry="14.44" transform="translate(-61.91 99.57) rotate(-47.06)"/>
      <path class="cls-2" d="M109.13,128.12c-.52.12-1.24.37-1.85.95-.91.87-.74,1.7-1.73,3.31-.53.87-.88,1.44-1.59,1.98-1.39,1.07-2.4.71-3.19,1.69-.44.55-.15.7-.68,2.1-.41,1.09-.7,1.86-1.39,2.51-1,.93-1.65.52-3.1,1.59-.32.23-1.16.87-1.76,1.9-.57.97-.92,2.28-.92,2.28,0,0-3.19-2.99-3.19-2.99,0,0,.29-.9.58-1.37.54-.89,1.39-.81,2.49-1.63.67-.5,1.03-1.1,1.76-2.3,1.37-2.25.86-2.48,1.68-3.4,1.45-1.61,3.12-.97,4.4-2.57.18-.23.3-.43.39-.63.47-1.1.62-2,.65-2.22.1-.78,1.02-1.97,4.74-3.73"/>
      <path class="cls-2" d="M72.94,94.54c-.52.12-1.24.37-1.85.95-.91.87-.74,1.7-1.73,3.31-.53.87-.88,1.44-1.59,1.98-1.39,1.07-2.4.71-3.19,1.69-.44.55-.15.7-.68,2.1-.41,1.09-.7,1.86-1.39,2.51-1,.93-1.65.52-3.1,1.59-.32.23-1.16.87-1.76,1.9-.57.97-.92,2.28-.92,2.28,0,0-3.19-2.99-3.19-2.99,0,0,.29-.9.58-1.37.54-.89,1.39-.81,2.49-1.63.67-.5,1.03-1.1,1.76-2.3,1.37-2.25.86-2.48,1.68-3.4,1.45-1.61,3.12-.97,4.4-2.57.18-.23.3-.43.39-.63.47-1.1.62-2,.65-2.22.1-.78,1.02-1.97,4.74-3.73"/>
      <rect class="cls-4" x="65.83" y="89.2" width="71.89" height="24.47" rx="4.13" ry="4.13" transform="translate(96.37 -42.15) rotate(42.94)"/>
      <path class="cls-4" d="M140.18,142.71c-6.58-3.46-13.16-6.93-19.74-10.39l12.54-13.93c3.92,6.24,7.83,12.47,11.75,18.71-1.51,1.87-3.03,3.74-4.54,5.61Z"/>
      <path class="cls-1" d="M7.28,125.33"/>
      <path class="cls-5" d="M132.88,117.9c-3.94,4.55-7.87,9.1-11.81,13.65"/>
      <path class="cls-5" d="M72.07,89.8c5.07-5.95,10.14-11.9,15.22-17.85"/>
      <ellipse class="cls-2" cx="103.72" cy="103.25" rx="6.53" ry="14.44" transform="translate(-42.52 108.84) rotate(-47.06)"/>
      <path class="cls-2" d="M129.47,110.5c-.52.12-1.24.37-1.85.95-.91.87-.74,1.7-1.73,3.31-.53.87-.88,1.44-1.59,1.98-1.39,1.07-2.4.71-3.19,1.69-.44.55-.15.7-.68,2.1-.41,1.09-.7,1.86-1.39,2.51-1,.93-1.65.52-3.1,1.59-.32.23-1.16.87-1.76,1.9-.57.97-.92,2.28-.92,2.28,0,0-3.19-2.99-3.19-2.99,0,0,.29-.9.58-1.37.54-.89,1.39-.81,2.49-1.63.67-.5,1.03-1.1,1.76-2.3,1.37-2.25.86-2.48,1.68-3.4,1.45-1.61,3.12-.97,4.4-2.57.18-.23.3-.43.39-.63.47-1.1.62-2,.65-2.22.1-.78,1.02-1.97,4.74-3.73"/>
      <path class="cls-2" d="M93.29,76.92c-.52.12-1.24.37-1.85.95-.91.87-.74,1.7-1.73,3.31-.53.87-.88,1.44-1.59,1.98-1.39,1.07-2.4.71-3.19,1.69-.44.55-.15.7-.68,2.1-.41,1.09-.7,1.86-1.39,2.51-1,.93-1.65.52-3.1,1.59-.32.23-1.16.87-1.76,1.9-.57.97-.92,2.28-.92,2.28,0,0-3.19-2.99-3.19-2.99,0,0,.29-.9.58-1.37.54-.89,1.39-.81,2.49-1.63.67-.5,1.03-1.1,1.76-2.3,1.37-2.25.86-2.48,1.68-3.4,1.45-1.61,3.12-.97,4.4-2.57.18-.23.3-.43.39-.63.47-1.1.62-2,.65-2.22.1-.78,1.02-1.97,4.74-3.73"/>
      <rect class="cls-8" x="30.23" y="129.42" width="71.89" height="24.47" rx="4.13" ry="4.13" transform="translate(114.23 -7.13) rotate(42.94)"/>
      <path class="cls-8" d="M104.58,182.93c-6.58-3.46-13.16-6.93-19.74-10.39l12.54-13.93c3.92,6.24,7.83,12.47,11.75,18.71-1.51,1.87-3.03,3.74-4.54,5.61Z"/>
      <path class="cls-5" d="M97.28,158.12c-3.94,4.55-7.87,9.1-11.81,13.65"/>
      <path class="cls-5" d="M36.47,130.02c5.07-5.95,10.14-11.9,15.22-17.85"/>
      <ellipse class="cls-2" cx="68.12" cy="143.47" rx="6.53" ry="14.44" transform="translate(-83.31 95.61) rotate(-47.06)"/>
      <path class="cls-2" d="M93.88,150.72c-.52.12-1.24.37-1.85.95-.91.87-.74,1.7-1.73,3.31-.53.87-.88,1.44-1.59,1.98-1.39,1.07-2.4.71-3.19,1.69-.44.55-.15.7-.68,2.1-.41,1.09-.7,1.86-1.39,2.51-1,.93-1.65.52-3.1,1.59-.32.23-1.16.87-1.76,1.9-.57.97-.92,2.28-.92,2.28,0,0-3.19-2.99-3.19-2.99,0,0,.29-.9.58-1.37.54-.89,1.39-.81,2.49-1.63.67-.5,1.03-1.1,1.76-2.3,1.37-2.25.86-2.48,1.68-3.4,1.45-1.61,3.12-.97,4.4-2.57.18-.23.3-.43.39-.63.47-1.1.62-2,.65-2.22.1-.78,1.02-1.97,4.74-3.73"/>
      <path class="cls-2" d="M57.69,117.14c-.52.12-1.24.37-1.85.95-.91.87-.74,1.7-1.73,3.31-.53.87-.88,1.44-1.59,1.98-1.39,1.07-2.4.71-3.19,1.69-.44.55-.15.7-.68,2.1-.41,1.09-.7,1.86-1.39,2.51-1,.93-1.65.52-3.1,1.59-.32.23-1.16.87-1.76,1.9-.57.97-.92,2.28-.92,2.28,0,0-3.19-2.99-3.19-2.99,0,0,.29-.9.58-1.37.54-.89,1.39-.81,2.49-1.63.67-.5,1.03-1.1,1.76-2.3,1.37-2.25.86-2.48,1.68-3.4,1.45-1.61,3.12-.97,4.4-2.57.18-.23.3-.43.39-.63.47-1.1.62-2,.65-2.22.1-.78,1.02-1.97,4.74-3.73"/>
      <rect class="cls-4" x="14.46" y="151.04" width="71.89" height="24.47" rx="4.13" ry="4.13" transform="translate(124.73 9.41) rotate(42.94)"/>
      <path class="cls-4" d="M88.81,204.55c-6.58-3.46-13.16-6.93-19.74-10.39l12.54-13.93c3.92,6.24,7.83,12.47,11.75,18.71-1.51,1.87-3.03,3.74-4.54,5.61Z"/>
      <path class="cls-5" d="M81.5,179.74c-3.94,4.55-7.87,9.1-11.81,13.65"/>
      <path class="cls-5" d="M20.69,151.64c5.07-5.95,10.14-11.9,15.22-17.85"/>
      <ellipse class="cls-2" cx="52.34" cy="165.09" rx="6.53" ry="14.44" transform="translate(-104.17 90.95) rotate(-47.06)"/>
      <path class="cls-2" d="M78.1,172.34c-.52.12-1.24.37-1.85.95-.91.87-.74,1.7-1.73,3.31-.53.87-.88,1.44-1.59,1.98-1.39,1.07-2.4.71-3.19,1.69-.44.55-.15.7-.68,2.1-.41,1.09-.7,1.86-1.39,2.51-1,.93-1.65.52-3.1,1.59-.32.23-1.16.87-1.76,1.9-.57.97-.92,2.28-.92,2.28,0,0-3.19-2.99-3.19-2.99,0,0,.29-.9.58-1.37.54-.89,1.39-.81,2.49-1.63.67-.5,1.03-1.1,1.76-2.3,1.37-2.25.86-2.48,1.68-3.4,1.45-1.61,3.12-.97,4.4-2.57.18-.23.3-.43.39-.63.47-1.1.62-2,.65-2.22.1-.78,1.02-1.97,4.74-3.73"/>
      <path class="cls-2" d="M41.91,138.77c-.52.12-1.24.37-1.85.95-.91.87-.74,1.7-1.73,3.31-.53.87-.88,1.44-1.59,1.98-1.39,1.07-2.4.71-3.19,1.69-.44.55-.15.7-.68,2.1-.41,1.09-.7,1.86-1.39,2.51-1,.93-1.65.52-3.1,1.59-.32.23-1.16.87-1.76,1.9-.57.97-.92,2.28-.92,2.28,0,0-3.19-2.99-3.19-2.99,0,0,.29-.9.58-1.37.54-.89,1.39-.81,2.49-1.63.67-.5,1.03-1.1,1.76-2.3,1.37-2.25.86-2.48,1.68-3.4,1.45-1.61,3.12-.97,4.4-2.57.18-.23.3-.43.39-.63.47-1.1.62-2,.65-2.22.1-.78,1.02-1.97,4.74-3.73"/>
      <rect class="cls-6" x="88.33" y="69.08" width="71.89" height="24.47" rx="4.13" ry="4.13" transform="translate(102.71 -65.63) rotate(48.45)"/>
      <path class="cls-6" d="M158.54,126.08c-6.22-4.08-12.43-8.16-18.65-12.24l13.82-12.66c3.3,6.58,6.6,13.17,9.9,19.75-1.69,1.72-3.37,3.43-5.06,5.15Z"/>
      <path class="cls-5" d="M153.65,100.69c-4.36,4.15-8.71,8.3-13.07,12.45"/>
      <ellipse class="cls-2" cx="126.04" cy="83.3" rx="6.53" ry="14.44" transform="translate(-23.54 104.54) rotate(-41.55)"/>
      <path class="cls-2" d="M150.97,92.99c-.53.07-1.27.25-1.93.77-.99.78-.9,1.62-2.04,3.12-.61.81-1.02,1.34-1.77,1.82-1.48.94-2.46.47-3.33,1.37-.49.5-.22.68-.87,2.03-.51,1.05-.87,1.79-1.63,2.37-1.08.83-1.69.36-3.24,1.28-.34.2-1.24.75-1.94,1.72-.66.91-1.13,2.18-1.13,2.18,0,0-2.89-3.28-2.89-3.28,0,0,.37-.86.7-1.31.62-.83,1.46-.68,2.63-1.38.71-.43,1.13-.99,1.98-2.12,1.58-2.11,1.09-2.39,2-3.22,1.6-1.46,3.2-.66,4.62-2.13.2-.21.34-.4.44-.59.57-1.05.81-1.94.86-2.15.17-.77,1.2-1.86,5.08-3.26"/>
      <path class="cls-2" d="M118.19,56.09c-.53.07-1.27.25-1.93.77-.99.78-.9,1.62-2.04,3.12-.61.81-1.02,1.34-1.77,1.82-1.48.94-2.46.47-3.33,1.37-.49.5-.22.68-.87,2.03-.51,1.05-.87,1.79-1.63,2.37-1.08.83-1.69.36-3.24,1.28-.34.2-1.24.75-1.94,1.72-.66.91-1.13,2.18-1.13,2.18,0,0-2.89-3.28-2.89-3.28,0,0,.37-.86.7-1.31.62-.83,1.46-.68,2.63-1.38.71-.43,1.13-.99,1.98-2.12,1.58-2.11,1.09-2.39,2-3.22,1.6-1.46,3.2-.66,4.62-2.13.2-.21.34-.4.44-.59.57-1.05.81-1.94.86-2.15.17-.77,1.2-1.86,5.08-3.26"/>
      <rect class="cls-8" x="112.56" y="52.37" width="71.89" height="24.47" rx="4.13" ry="4.13" transform="translate(109.55 -92.58) rotate(52.57)"/>
      <path class="cls-8" d="M179.46,111.72c-5.91-4.52-11.82-9.03-17.73-13.55l14.69-11.63c2.82,6.8,5.64,13.61,8.45,20.41-1.81,1.59-3.61,3.18-5.42,4.77Z"/>
      <path class="cls-5" d="M176.42,86.05c-4.64,3.83-9.28,7.65-13.93,11.48"/>
      <ellipse class="cls-2" cx="150.12" cy="66.72" rx="6.53" ry="14.44" transform="translate(-9.64 104.98) rotate(-37.43)"/>
      <path class="cls-2" d="M174.3,78.18c-.53.03-1.28.15-1.98.63-1.04.7-1.01,1.55-2.26,2.97-.67.76-1.11,1.27-1.9,1.69-1.55.83-2.49.3-3.42,1.13-.52.47-.27.67-1.02,1.96-.59,1.01-1,1.72-1.79,2.25-1.14.75-1.71.24-3.32,1.05-.35.18-1.29.66-2.06,1.58-.72.86-1.29,2.09-1.29,2.09,0,0-2.64-3.48-2.64-3.48,0,0,.44-.83.8-1.25.68-.79,1.51-.57,2.73-1.19.74-.38,1.2-.91,2.12-1.97,1.73-1.99,1.26-2.31,2.23-3.07,1.7-1.34,3.24-.43,4.76-1.8.22-.19.37-.38.49-.56.65-1.01.95-1.87,1.01-2.08.23-.75,1.33-1.77,5.3-2.88"/>
      <path class="cls-2" d="M144.24,39.02c-.53.03-1.28.15-1.98.63-1.04.7-1.01,1.55-2.26,2.97-.67.76-1.11,1.27-1.9,1.69-1.55.83-2.49.3-3.42,1.13-.52.47-.27.67-1.02,1.96-.59,1.01-1,1.72-1.79,2.25-1.14.75-1.71.24-3.32,1.05-.35.18-1.29.66-2.06,1.58-.72.86-1.29,2.09-1.29,2.09,0,0-2.64-3.48-2.64-3.48,0,0,.44-.83.8-1.25.68-.79,1.51-.57,2.73-1.19.74-.38,1.2-.91,2.12-1.97,1.73-1.99,1.26-2.31,2.23-3.07,1.7-1.34,3.24-.43,4.76-1.8.22-.19.37-.38.49-.56.65-1.01.95-1.87,1.01-2.08.23-.75,1.33-1.77,5.3-2.88"/>
      <rect class="cls-1" x="148.94" y="33.27" width="71.89" height="24.47" rx="4.13" ry="4.13" transform="translate(168.72 -144.2) rotate(71.3)"/>
      <path class="cls-1" d="M199.07,100.07c-4.15-6.17-8.29-12.35-12.44-18.52l17.65-6.3c.48,7.35.97,14.69,1.45,22.04-2.22.93-4.44,1.85-6.66,2.78Z"/>
      <path class="cls-5" d="M204.43,74.77c-5.62,2.13-11.25,4.27-16.87,6.4"/>
      <ellipse class="cls-2" cx="185.73" cy="48.03" rx="6.53" ry="14.44" transform="translate(-5.59 62.08) rotate(-18.7)"/>
      <path class="cls-2" d="M204.95,66.64c-.51-.14-1.26-.26-2.08-.04-1.21.33-1.46,1.14-3.09,2.09-.88.51-1.46.84-2.34.99-1.73.29-2.45-.52-3.6-.03-.64.27-.47.55-1.59,1.53-.88.77-1.5,1.31-2.42,1.55-1.32.35-1.7-.33-3.48-.08-.39.05-1.43.21-2.45.83-.96.58-1.89,1.57-1.89,1.57,0,0-1.39-4.15-1.39-4.15,0,0,.68-.65,1.16-.93.9-.53,1.61-.05,2.96-.25.82-.12,1.43-.47,2.64-1.18,2.27-1.33,1.93-1.78,3.09-2.19,2.04-.72,3.21.63,5.09-.17.27-.11.47-.24.64-.37.94-.74,1.5-1.47,1.62-1.65.46-.64,1.83-1.25,5.94-1.03"/>
      <path class="cls-2" d="M189.06,19.91c-.51-.14-1.26-.26-2.08-.04-1.21.33-1.46,1.14-3.09,2.09-.88.51-1.46.84-2.34.99-1.73.29-2.45-.52-3.6-.03-.64.27-.47.55-1.59,1.53-.88.77-1.5,1.31-2.42,1.55-1.32.35-1.7-.33-3.48-.08-.39.05-1.43.21-2.45.83-.96.58-1.89,1.57-1.89,1.57,0,0-1.39-4.15-1.39-4.15,0,0,.68-.65,1.16-.93.9-.53,1.61-.05,2.96-.25.82-.12,1.43-.47,2.64-1.18,2.27-1.33,1.93-1.78,3.09-2.19,2.04-.72,3.21.63,5.09-.17.27-.11.47-.24.64-.37.94-.74,1.5-1.47,1.62-1.65.46-.64,1.83-1.25,5.94-1.03"/>
    </g>
    <g id="Layer_2">
      <path class="cls-3" d="M31.46,46.03"/>
      <path class="cls-1" d="M64.96,121.38l42.98,48.03c1.54,1.72,4.1,1.77,5.71.11l11.47-11.81c1.61-1.66,1.67-4.4.13-6.12l-42.98-48.03c-1.54-1.72-4.1-1.77-5.71-.11l-11.47,11.81c-1.61,1.66-1.67,4.4-.13,6.12Z"/>
      <path class="cls-1" d="M54.25,96.99c3.47,6.84,6.94,13.67,10.41,20.51l13.46-13.41c-6.15-3.99-12.3-7.98-18.44-11.97-1.81,1.62-3.62,3.25-5.43,4.87Z"/>
      <path class="cls-1" d="M92.74,169.17"/>
      <path class="cls-5" d="M78.61,104.17c-4.4,4.21-8.8,8.43-13.2,12.64"/>
      <path class="cls-5" d="M106.86,167.42c5.75-5.43,11.51-10.86,17.26-16.3"/>
      <path class="cls-2" d="M88.69,139.24c5.39,6.02,11.82,8.77,14.38,6.14s.26-9.64-5.13-15.66c-5.39-6.02-11.82-8.77-14.38-6.14-2.55,2.63-.26,9.64,5.13,15.66Z"/>
      <path class="cls-2" d="M85.89,107.61c-.11.55-.34,1.3-.91,1.96-.84.97-1.65.81-3.21,1.87-.84.58-1.39.95-1.92,1.71-1.03,1.47-.66,2.53-1.61,3.37-.53.47-.68.17-2.05.75-1.07.45-1.81.77-2.44,1.51-.9,1.06-.49,1.74-1.51,3.28-.22.34-.83,1.23-1.83,1.89-.94.61-2.22,1.01-2.22,1.01,0,0,2.97,3.29,2.97,3.29,0,0,.87-.32,1.33-.63.86-.58.78-1.48,1.56-2.64.48-.71,1.06-1.1,2.22-1.89,2.18-1.48,2.42-.94,3.3-1.83,1.55-1.55.91-3.29,2.46-4.66.22-.2.42-.32.61-.42,1.07-.51,1.95-.69,2.16-.72.76-.12,1.91-1.11,3.59-5.04"/>
      <path class="cls-2" d="M119.19,144.92c-.11.55-.34,1.3-.91,1.96-.84.97-1.65.81-3.21,1.87-.84.58-1.39.95-1.92,1.71-1.03,1.47-.66,2.53-1.61,3.37-.53.47-.68.17-2.05.75-1.07.45-1.81.77-2.44,1.51-.9,1.06-.49,1.74-1.51,3.28-.22.34-.83,1.23-1.83,1.89-.94.61-2.22,1.01-2.22,1.01,0,0,2.97,3.29,2.97,3.29,0,0,.87-.32,1.33-.63.86-.58.78-1.48,1.56-2.64.48-.71,1.06-1.1,2.22-1.89,2.18-1.48,2.42-.94,3.3-1.83,1.55-1.55.91-3.29,2.46-4.66.22-.2.42-.32.61-.42,1.07-.51,1.95-.69,2.16-.72.76-.12,1.91-1.11,3.59-5.04"/>
      <path class="cls-4" d="M81.93,99.71l42.98,48.03c1.54,1.72,4.1,1.77,5.71.11l11.47-11.81c1.61-1.66,1.67-4.4.13-6.12l-42.98-48.03c-1.54-1.72-4.1-1.77-5.71-.11l-11.47,11.81c-1.61,1.66-1.67,4.4-.13,6.12Z"/>
      <path class="cls-4" d="M71.23,75.32c3.47,6.84,6.94,13.67,10.41,20.51,4.49-4.47,8.98-8.94,13.46-13.41-6.15-3.99-12.3-7.98-18.44-11.97-1.81,1.62-3.62,3.25-5.43,4.87Z"/>
      <path class="cls-1" d="M348.16,100.63"/>
      <path class="cls-5" d="M95.59,82.5c-4.4,4.21-8.8,8.43-13.2,12.64"/>
      <path class="cls-5" d="M123.84,145.75c5.75-5.43,11.51-10.86,17.26-16.3"/>
      <path class="cls-2" d="M105.66,117.57c5.39,6.02,11.82,8.77,14.38,6.14s.26-9.64-5.13-15.66c-5.39-6.02-11.82-8.77-14.38-6.14s-.26,9.64,5.13,15.66Z"/>
      <path class="cls-2" d="M102.87,85.94c-.11.55-.34,1.3-.91,1.96-.84.97-1.65.81-3.21,1.87-.84.58-1.39.95-1.92,1.71-1.03,1.47-.66,2.53-1.61,3.37-.53.47-.68.17-2.05.75-1.07.45-1.81.77-2.44,1.51-.9,1.06-.49,1.74-1.51,3.28-.22.34-.83,1.23-1.83,1.89-.94.61-2.22,1.01-2.22,1.01,0,0,2.97,3.29,2.97,3.29,0,0,.87-.32,1.33-.63.86-.58.78-1.48,1.56-2.64.48-.71,1.06-1.1,2.22-1.89,2.18-1.48,2.42-.94,3.3-1.83,1.55-1.55.91-3.29,2.46-4.66.22-.2.42-.32.61-.42,1.07-.51,1.95-.69,2.16-.72.76-.12,1.91-1.11,3.59-5.04"/>
      <path class="cls-2" d="M136.16,123.25c-.11.55-.34,1.3-.91,1.96-.84.97-1.65.81-3.21,1.87-.84.58-1.39.95-1.92,1.71-1.03,1.47-.66,2.53-1.61,3.37-.53.47-.68.17-2.05.75-1.07.45-1.81.77-2.44,1.51-.9,1.06-.49,1.74-1.51,3.28-.22.34-.83,1.23-1.83,1.89-.94.61-2.22,1.01-2.22,1.01,0,0,2.97,3.29,2.97,3.29,0,0,.87-.32,1.33-.63.86-.58.78-1.48,1.56-2.64.48-.71,1.06-1.1,2.22-1.89,2.18-1.48,2.42-.94,3.3-1.83,1.55-1.55.91-3.29,2.46-4.66.22-.2.42-.32.61-.42,1.07-.51,1.95-.69,2.16-.72.76-.12,1.91-1.11,3.59-5.04"/>
      <path class="cls-8" d="M43.05,137.8l42.98,48.03c1.54,1.72,4.1,1.77,5.71.11l11.47-11.81c1.61-1.66,1.67-4.4.13-6.12l-42.98-48.03c-1.54-1.72-4.1-1.77-5.71-.11l-11.47,11.81c-1.61,1.66-1.67,4.4-.13,6.12Z"/>
      <path class="cls-8" d="M32.35,113.41c3.47,6.84,6.94,13.67,10.41,20.51,4.49-4.47,8.98-8.94,13.46-13.41-6.15-3.99-12.3-7.98-18.44-11.97-1.81,1.62-3.62,3.25-5.43,4.87Z"/>
      <path class="cls-5" d="M56.7,120.6c-4.4,4.21-8.8,8.43-13.2,12.64"/>
      <path class="cls-5" d="M84.95,183.84c5.75-5.43,11.51-10.86,17.26-16.3"/>
      <path class="cls-2" d="M66.78,155.66c5.39,6.02,11.82,8.77,14.38,6.14s.26-9.64-5.13-15.66c-5.39-6.02-11.82-8.77-14.38-6.14-2.55,2.63-.26,9.64,5.13,15.66Z"/>
      <path class="cls-2" d="M63.98,124.03c-.11.55-.34,1.3-.91,1.96-.84.97-1.65.81-3.21,1.87-.84.58-1.39.95-1.92,1.71-1.03,1.47-.66,2.53-1.61,3.37-.53.47-.68.17-2.05.75-1.07.45-1.81.77-2.44,1.51-.9,1.06-.49,1.74-1.51,3.28-.22.34-.83,1.23-1.83,1.89-.94.61-2.22,1.01-2.22,1.01,0,0,2.97,3.29,2.97,3.29,0,0,.87-.32,1.33-.63.86-.58.78-1.48,1.56-2.64.48-.71,1.06-1.1,2.22-1.89,2.18-1.48,2.42-.94,3.3-1.83,1.55-1.55.91-3.29,2.46-4.66.22-.2.42-.32.61-.42,1.07-.51,1.95-.69,2.16-.72.76-.12,1.91-1.11,3.59-5.04"/>
      <path class="cls-2" d="M97.28,161.34c-.11.55-.34,1.3-.91,1.96-.84.97-1.65.81-3.21,1.87-.84.58-1.39.95-1.92,1.71-1.03,1.47-.66,2.53-1.61,3.37-.53.47-.68.17-2.05.75-1.07.45-1.81.77-2.44,1.51-.9,1.06-.49,1.74-1.51,3.28-.22.34-.83,1.23-1.83,1.89-.94.61-2.22,1.01-2.22,1.01,0,0,2.97,3.29,2.97,3.29,0,0,.87-.32,1.33-.63.86-.58.78-1.48,1.56-2.64.48-.71,1.06-1.1,2.22-1.89,2.18-1.48,2.42-.94,3.3-1.83,1.55-1.55.91-3.29,2.46-4.66.22-.2.42-.32.61-.42,1.07-.51,1.95-.69,2.16-.72.76-.12,1.91-1.11,3.59-5.04"/>
      <path class="cls-4" d="M22.1,154.76l42.98,48.03c1.54,1.72,4.1,1.77,5.71.11l11.47-11.81c1.61-1.66,1.67-4.4.13-6.12l-42.98-48.03c-1.54-1.72-4.1-1.77-5.71-.11l-11.47,11.81c-1.61,1.66-1.67,4.4-.13,6.12Z"/>
      <path class="cls-4" d="M11.39,130.37c3.47,6.84,6.94,13.67,10.41,20.51,4.49-4.47,8.98-8.94,13.46-13.41-6.15-3.99-12.3-7.98-18.44-11.97-1.81,1.62-3.62,3.25-5.43,4.87Z"/>
      <path class="cls-5" d="M35.75,137.56c-4.4,4.21-8.8,8.43-13.2,12.64"/>
      <path class="cls-5" d="M64,200.8c5.75-5.43,11.51-10.86,17.26-16.3"/>
      <path class="cls-2" d="M45.83,172.62c5.39,6.02,11.82,8.77,14.38,6.14s.26-9.64-5.13-15.66-11.82-8.77-14.38-6.14-.26,9.64,5.13,15.66Z"/>
      <path class="cls-2" d="M43.03,140.99c-.11.55-.34,1.3-.91,1.96-.84.97-1.65.81-3.21,1.87-.84.58-1.39.95-1.92,1.71-1.03,1.47-.66,2.53-1.61,3.37-.53.47-.68.17-2.05.75-1.07.45-1.81.77-2.44,1.51-.9,1.06-.49,1.74-1.51,3.28-.22.34-.83,1.23-1.83,1.89-.94.61-2.22,1.01-2.22,1.01,0,0,2.97,3.29,2.97,3.29,0,0,.87-.32,1.33-.63.86-.58.78-1.48,1.56-2.64.48-.71,1.06-1.1,2.22-1.89,2.18-1.48,2.42-.94,3.3-1.83,1.55-1.55.91-3.29,2.46-4.66.22-.2.42-.32.61-.42,1.07-.51,1.95-.69,2.16-.72.76-.12,1.91-1.11,3.59-5.04"/>
      <path class="cls-2" d="M76.33,178.3c-.11.55-.34,1.3-.91,1.96-.84.97-1.65.81-3.21,1.87-.84.58-1.39.95-1.92,1.71-1.03,1.47-.66,2.53-1.61,3.37-.53.47-.68.17-2.05.75-1.07.45-1.81.77-2.44,1.51-.9,1.06-.49,1.74-1.51,3.28-.22.34-.83,1.23-1.83,1.89-.94.61-2.22,1.01-2.22,1.01,0,0,2.97,3.29,2.97,3.29,0,0,.87-.32,1.33-.63.86-.58.78-1.48,1.56-2.64.48-.71,1.06-1.1,2.22-1.89,2.18-1.48,2.42-.94,3.3-1.83,1.55-1.55.91-3.29,2.46-4.66.22-.2.42-.32.61-.42,1.07-.51,1.95-.69,2.16-.72.76-.12,1.91-1.11,3.59-5.04"/>
      <path class="cls-6" d="M100.1,78.91l47.11,43.35c1.69,1.55,4.24,1.34,5.7-.48l10.36-12.93c1.46-1.82,1.27-4.55-.42-6.11l-47.11-43.35c-1.69-1.55-4.24-1.34-5.7.48l-10.36,12.93c-1.46,1.82-1.27,4.55.42,6.11Z"/>
      <path class="cls-6" d="M87.26,55.75c4.07,6.44,8.14,12.89,12.21,19.33l12.2-14.73c-6.48-3.33-12.96-6.67-19.44-10-1.66,1.8-3.32,3.6-4.97,5.4Z"/>
      <path class="cls-5" d="M112.16,60.39c-4,4.65-8.01,9.29-12.01,13.94"/>
      <path class="cls-2" d="M125.34,94.23c5.9,5.43,12.56,7.51,14.87,4.63s-.61-9.62-6.51-15.05c-5.9-5.43-12.56-7.51-14.87-4.63s.61,9.62,6.51,15.05Z"/>
      <path class="cls-2" d="M119.72,63.05c-.06.55-.22,1.33-.73,2.04-.75,1.05-1.57.97-3.03,2.2-.78.66-1.3,1.09-1.76,1.89-.9,1.57-.43,2.59-1.3,3.52-.49.52-.67.24-1.97.96-1.02.56-1.74.95-2.3,1.75-.8,1.15-.33,1.78-1.21,3.42-.19.36-.72,1.31-1.66,2.07-.88.71-2.12,1.23-2.12,1.23,0,0,3.25,2.96,3.25,2.96,0,0,.84-.41,1.27-.76.81-.67.64-1.55,1.32-2.79.41-.76.96-1.21,2.05-2.11,2.04-1.7,2.32-1.19,3.12-2.16,1.41-1.71.61-3.37,2.03-4.89.2-.22.39-.37.57-.48,1.02-.62,1.88-.88,2.09-.94.75-.2,1.8-1.3,3.12-5.39"/>
      <path class="cls-2" d="M156.22,96.74c-.06.55-.22,1.33-.73,2.04-.75,1.05-1.57.97-3.03,2.2-.78.66-1.3,1.09-1.76,1.89-.9,1.57-.43,2.59-1.3,3.52-.49.52-.67.24-1.97.96-1.02.56-1.74.95-2.3,1.75-.8,1.15-.33,1.78-1.21,3.42-.19.36-.72,1.31-1.66,2.07-.88.71-2.12,1.23-2.12,1.23,0,0,3.25,2.96,3.25,2.96,0,0,.84-.41,1.27-.76.81-.67.64-1.55,1.32-2.79.41-.76.96-1.21,2.05-2.11,2.04-1.7,2.32-1.19,3.12-2.16,1.41-1.71.61-3.37,2.03-4.89.2-.22.39-.37.57-.48,1.02-.62,1.88-.88,2.09-.94.75-.2,1.8-1.3,3.12-5.39"/>
      <path class="cls-8" d="M115.4,55.64l49.91,39.6c1.79,1.42,4.32,1.01,5.65-.92l9.48-13.69c1.33-1.93.96-4.64-.83-6.06l-49.91-39.6c-1.79-1.42-4.32-1.01-5.65.92l-9.48,13.69c-1.33,1.93-.96,4.64.83,6.06Z"/>
      <path class="cls-8" d="M101.04,33.53c4.49,6.11,8.98,12.22,13.48,18.33,3.73-5.21,7.46-10.42,11.19-15.63-6.69-2.83-13.38-5.65-20.07-8.48-1.53,1.92-3.07,3.85-4.6,5.77Z"/>
      <path class="cls-5" d="M126.19,36.24c-3.68,4.94-7.37,9.88-11.05,14.82"/>
      <path class="cls-2" d="M141.6,68.97c6.25,4.96,13.03,6.52,15.14,3.47,2.11-3.05-1.25-9.54-7.51-14.5s-13.03-6.52-15.14-3.47,1.25,9.54,7.51,14.5Z"/>
      <path class="cls-2" d="M133.91,38.31c-.02.56-.14,1.35-.59,2.09-.67,1.1-1.5,1.09-2.88,2.42-.74.72-1.23,1.19-1.63,2.02-.79,1.64-.26,2.62-1.06,3.61-.45.56-.65.29-1.9,1.1-.98.63-1.67,1.08-2.17,1.93-.72,1.21-.21,1.8-.98,3.51-.17.37-.63,1.36-1.52,2.19-.83.77-2.03,1.39-2.03,1.39,0,0,3.44,2.71,3.44,2.71,0,0,.81-.47,1.22-.86.76-.73.54-1.59,1.13-2.88.36-.78.87-1.28,1.9-2.26,1.92-1.85,2.24-1.36,2.97-2.39,1.29-1.81.38-3.4,1.7-5.03.19-.23.36-.4.54-.52.98-.7,1.82-1.03,2.02-1.1.73-.25,1.71-1.43,2.75-5.61"/>
      <path class="cls-2" d="M172.59,69.09c-.02.56-.14,1.35-.59,2.09-.67,1.1-1.5,1.09-2.88,2.42-.74.72-1.23,1.19-1.63,2.02-.79,1.64-.26,2.62-1.06,3.61-.45.56-.65.29-1.9,1.1-.98.63-1.67,1.08-2.17,1.93-.72,1.21-.21,1.8-.98,3.51-.17.37-.63,1.36-1.52,2.19-.83.77-2.03,1.39-2.03,1.39,0,0,3.44,2.71,3.44,2.71,0,0,.81-.47,1.22-.86.76-.73.54-1.59,1.13-2.88.36-.78.87-1.28,1.9-2.26,1.92-1.85,2.24-1.36,2.97-2.39,1.29-1.81.38-3.4,1.7-5.03.19-.23.36-.4.54-.52.98-.7,1.82-1.03,2.02-1.1.73-.25,1.71-1.43,2.75-5.61"/>
      <path class="cls-1" d="M132.44,28.7l59.2,20.25c2.12.73,4.4-.53,5.09-2.81l4.89-16.21c.69-2.28-.47-4.72-2.6-5.44l-59.2-20.25c-2.12-.73-4.4.53-5.09,2.81l-4.89,16.21c-.69,2.28.47,4.72,2.6,5.44Z"/>
      <path class="cls-1" d="M112.19,12.74c6.09,4.23,12.18,8.46,18.27,12.69,1.98-6.21,3.96-12.42,5.94-18.63-7.19-.37-14.38-.74-21.58-1.1-.88,2.35-1.76,4.69-2.64,7.04Z"/>
      <path class="cls-5" d="M136.86,6.64c-2.02,5.94-4.03,11.88-6.05,17.82"/>
      <ellipse class="cls-2" cx="163.26" cy="25.75" rx="6.82" ry="14.2" transform="translate(84.47 171.03) rotate(-70.49)"/>
      <path class="cls-2" d="M144.81,5.94c.14.53.27,1.32.07,2.18-.31,1.28-1.1,1.55-2,3.28-.49.93-.81,1.55-.94,2.47-.26,1.82.54,2.56.07,3.78-.26.68-.53.5-1.48,1.7-.74.94-1.26,1.6-1.49,2.57-.32,1.39.34,1.77.12,3.65-.05.41-.19,1.51-.78,2.59-.56,1.01-1.51,2.01-1.51,2.01,0,0,4.07,1.37,4.07,1.37,0,0,.63-.73.9-1.23.5-.95.03-1.69.21-3.11.11-.87.45-1.51,1.12-2.8,1.27-2.41,1.72-2.06,2.1-3.29.68-2.16-.66-3.35.1-5.34.11-.28.23-.5.35-.68.72-1,1.42-1.6,1.59-1.73.62-.49,1.2-1.94.93-6.25"/>
      <path class="cls-2" d="M190.72,21.72c.14.53.27,1.32.07,2.18-.31,1.28-1.1,1.55-2,3.28-.49.93-.81,1.55-.94,2.47-.26,1.82.54,2.56.07,3.78-.26.68-.53.5-1.48,1.7-.74.94-1.26,1.6-1.49,2.57-.32,1.39.34,1.77.12,3.65-.05.41-.19,1.51-.78,2.59-.56,1.01-1.51,2.01-1.51,2.01,0,0,4.07,1.37,4.07,1.37,0,0,.63-.73.9-1.23.5-.95.03-1.69.21-3.11.11-.87.45-1.51,1.12-2.8,1.27-2.41,1.72-2.06,2.1-3.29.68-2.16-.66-3.35.1-5.34.11-.28.23-.5.35-.68.72-1,1.42-1.6,1.59-1.73.62-.49,1.2-1.94.93-6.25"/>
    </g>
    <g id="Layer_3" class="cls-7">
      <path class="cls-1" d="M103.25,54.25l60.92,20.6c2.18.74,3.33,3.1,2.57,5.27l-5.44,15.45c-.77,2.17-3.16,3.33-5.34,2.6l-60.92-20.6c-2.18-.74-3.33-3.1-2.57-5.27l5.44-15.45c.77-2.17,3.16-3.33,5.34-2.6Z"/>
      <path class="cls-1" d="M77.13,54.15c7.53.47,15.05.94,22.58,1.41-2,5.98-4,11.97-5.99,17.95-6.17-4.11-12.35-8.22-18.52-12.33.65-2.34,1.29-4.68,1.94-7.02Z"/>
      <path class="cls-1" d="M157.38,60.81"/>
      <path class="cls-5" d="M94,73.91c1.81-5.8,3.62-11.6,5.43-17.39"/>
      <path class="cls-5" d="M161.95,74.66c-2.3,7.55-4.6,15.1-6.89,22.65"/>
      <ellipse class="cls-2" cx="127.06" cy="75.35" rx="6.6" ry="14.59" transform="translate(15.29 171.94) rotate(-71.5)"/>
      <path class="cls-2" d="M100.17,79.31c.43-.32,1-.85,1.33-1.63.49-1.17,0-1.86.26-3.75.14-1.01.24-1.68.67-2.48.85-1.56,1.95-1.64,2.28-2.86.18-.68-.14-.71-.23-2.21-.06-1.17-.11-2,.27-2.88.55-1.26,1.32-1.15,2.24-2.74.2-.35.73-1.27.87-2.47.13-1.12-.07-2.47-.07-2.47,0,0,4.18,1.43,4.18,1.43,0,0,.09.94.02,1.49-.14,1.04-.96,1.32-1.65,2.52-.42.73-.52,1.43-.71,2.84-.36,2.63.21,2.63-.18,3.81-.7,2.07-2.51,2.17-3.04,4.17-.08.28-.1.52-.1.74.01,1.2.24,2.1.3,2.3.22.76-.15,2.23-2.89,5.38"/>
      <path class="cls-2" d="M147.46,95.23c.43-.32,1-.85,1.33-1.63.49-1.17,0-1.86.26-3.75.14-1.01.24-1.68.67-2.48.85-1.56,1.95-1.64,2.28-2.86.18-.68-.14-.71-.23-2.21-.06-1.17-.11-2,.27-2.88.55-1.26,1.32-1.15,2.24-2.74.2-.35.73-1.27.87-2.47.13-1.12-.07-2.47-.07-2.47,0,0,4.18,1.43,4.18,1.43,0,0,.09.94.02,1.49-.14,1.04-.96,1.32-1.65,2.52-.42.73-.52,1.43-.71,2.84-.36,2.63.21,2.63-.18,3.81-.7,2.07-2.51,2.17-3.04,4.17-.08.28-.1.52-.1.74.01,1.2.24,2.1.3,2.3.22.76-.15,2.23-2.89,5.38"/>
      <path class="cls-4" d="M91.5,78.81l60.92,20.6c2.18.74,3.33,3.1,2.57,5.27l-5.44,15.45c-.77,2.17-3.16,3.33-5.34,2.6l-60.92-20.6c-2.18-.74-3.33-3.1-2.57-5.27l5.44-15.45c.77-2.17,3.16-3.33,5.34-2.6Z"/>
      <path class="cls-4" d="M65.37,78.71c7.53.47,15.05.94,22.58,1.41-2,5.98-4,11.97-5.99,17.95-6.17-4.11-12.35-8.22-18.52-12.33.65-2.34,1.29-4.68,1.94-7.02Z"/>
      <path class="cls-1" d="M64.71,290.71"/>
      <path class="cls-5" d="M82.24,98.47c1.81-5.8,3.62-11.6,5.43-17.39"/>
      <path class="cls-5" d="M150.2,99.22c-2.3,7.55-4.6,15.1-6.89,22.65"/>
      <ellipse class="cls-2" cx="115.31" cy="99.91" rx="6.6" ry="14.59" transform="translate(-16.02 177.57) rotate(-71.5)"/>
      <path class="cls-2" d="M88.42,103.87c.43-.32,1-.85,1.33-1.63.49-1.17,0-1.86.26-3.75.14-1.01.24-1.68.67-2.48.85-1.56,1.95-1.64,2.28-2.86.18-.68-.14-.71-.23-2.21-.06-1.17-.11-2,.27-2.88.55-1.26,1.32-1.15,2.24-2.74.2-.35.73-1.27.87-2.47.13-1.12-.07-2.47-.07-2.47,0,0,4.18,1.43,4.18,1.43,0,0,.09.94.02,1.49-.14,1.04-.96,1.32-1.65,2.52-.42.73-.52,1.43-.71,2.84-.36,2.63.21,2.63-.18,3.81-.7,2.07-2.51,2.17-3.04,4.17-.08.28-.1.52-.1.74.01,1.2.24,2.1.3,2.3.22.76-.15,2.23-2.89,5.38"/>
      <path class="cls-2" d="M135.7,119.78c.43-.32,1-.85,1.33-1.63.49-1.17,0-1.86.26-3.75.14-1.01.24-1.68.67-2.48.85-1.56,1.95-1.64,2.28-2.86.18-.68-.14-.71-.23-2.21-.06-1.17-.11-2,.27-2.88.55-1.26,1.32-1.15,2.24-2.74.2-.35.73-1.27.87-2.47.13-1.12-.07-2.47-.07-2.47,0,0,4.18,1.43,4.18,1.43,0,0,.09.94.02,1.49-.14,1.04-.96,1.32-1.65,2.52-.42.73-.52,1.43-.71,2.84-.36,2.63.21,2.63-.18,3.81-.7,2.07-2.51,2.17-3.04,4.17-.08.28-.1.52-.1.74.01,1.2.24,2.1.3,2.3.22.76-.15,2.23-2.89,5.38"/>
      <path class="cls-8" d="M108.25,27.23l60.92,20.6c2.18.74,3.33,3.1,2.57,5.27l-5.44,15.45c-.77,2.17-3.16,3.33-5.34,2.6l-60.92-20.6c-2.18-.74-3.33-3.1-2.57-5.27l5.44-15.45c.77-2.17,3.16-3.33,5.34-2.6Z"/>
      <path class="cls-8" d="M82.12,27.12c7.53.47,15.05.94,22.58,1.41-2,5.98-4,11.97-5.99,17.95-6.17-4.11-12.35-8.22-18.52-12.33.65-2.34,1.29-4.68,1.94-7.02Z"/>
      <path class="cls-5" d="M98.99,46.89c1.81-5.8,3.62-11.6,5.43-17.39"/>
      <path class="cls-5" d="M166.95,47.63c-2.3,7.55-4.6,15.1-6.89,22.65"/>
      <ellipse class="cls-2" cx="132.06" cy="48.33" rx="6.6" ry="14.59" transform="translate(44.33 158.23) rotate(-71.5)"/>
      <path class="cls-2" d="M105.17,52.28c.43-.32,1-.85,1.33-1.63.49-1.17,0-1.86.26-3.75.14-1.01.24-1.68.67-2.48.85-1.56,1.95-1.64,2.28-2.86.18-.68-.14-.71-.23-2.21-.06-1.17-.11-2,.27-2.88.55-1.26,1.32-1.15,2.24-2.74.2-.35.73-1.27.87-2.47.13-1.12-.07-2.47-.07-2.47,0,0,4.18,1.43,4.18,1.43,0,0,.09.94.02,1.49-.14,1.04-.96,1.32-1.65,2.52-.42.73-.52,1.43-.71,2.84-.36,2.63.21,2.63-.18,3.81-.7,2.07-2.51,2.17-3.04,4.17-.08.28-.1.52-.1.74.01,1.2.24,2.1.3,2.3.22.76-.15,2.23-2.89,5.38"/>
      <path class="cls-2" d="M152.45,68.2c.43-.32,1-.85,1.33-1.63.49-1.17,0-1.86.26-3.75.14-1.01.24-1.68.67-2.48.85-1.56,1.95-1.64,2.28-2.86.18-.68-.14-.71-.23-2.21-.06-1.17-.11-2,.27-2.88.55-1.26,1.32-1.15,2.24-2.74.2-.35.73-1.27.87-2.47.13-1.12-.07-2.47-.07-2.47,0,0,4.18,1.43,4.18,1.43,0,0,.09.94.02,1.49-.14,1.04-.96,1.32-1.65,2.52-.42.73-.52,1.43-.71,2.84-.36,2.63.21,2.63-.18,3.81-.7,2.07-2.51,2.17-3.04,4.17-.08.28-.1.52-.1.74.01,1.2.24,2.1.3,2.3.22.76-.15,2.23-2.89,5.38"/>
      <path class="cls-4" d="M114.13.87l60.92,20.6c2.18.74,3.33,3.1,2.57,5.27l-5.44,15.45c-.77,2.17-3.16,3.33-5.34,2.6l-60.92-20.6c-2.18-.74-3.33-3.1-2.57-5.27l5.44-15.45c.77-2.17,3.16-3.33,5.34-2.6Z"/>
      <path class="cls-4" d="M88,.77c7.53.47,15.05.94,22.58,1.41-2,5.98-4,11.97-5.99,17.95-6.17-4.11-12.35-8.22-18.52-12.33.65-2.34,1.29-4.68,1.94-7.02Z"/>
      <path class="cls-5" d="M104.87,20.53c1.81-5.8,3.62-11.6,5.43-17.39"/>
      <path class="cls-5" d="M172.82,21.28c-2.3,7.55-4.6,15.1-6.89,22.65"/>
      <ellipse class="cls-2" cx="137.93" cy="21.97" rx="6.6" ry="14.59" transform="translate(73.33 145.81) rotate(-71.5)"/>
      <path class="cls-2" d="M111.05,25.93c.43-.32,1-.85,1.33-1.63.49-1.17,0-1.86.26-3.75.14-1.01.24-1.68.67-2.48.85-1.56,1.95-1.64,2.28-2.86.18-.68-.14-.71-.23-2.21-.06-1.17-.11-2,.27-2.88.55-1.26,1.32-1.15,2.24-2.74.2-.35.73-1.27.87-2.47.13-1.12-.07-2.47-.07-2.47,0,0,4.18,1.43,4.18,1.43,0,0,.09.94.02,1.49-.14,1.04-.96,1.32-1.65,2.52-.42.73-.52,1.43-.71,2.84-.36,2.63.21,2.63-.18,3.81-.7,2.07-2.51,2.17-3.04,4.17-.08.28-.1.52-.1.74.01,1.2.24,2.1.3,2.3.22.76-.15,2.23-2.89,5.38"/>
      <path class="cls-2" d="M158.33,41.85c.43-.32,1-.85,1.33-1.63.49-1.17,0-1.86.26-3.75.14-1.01.24-1.68.67-2.48.85-1.56,1.95-1.64,2.28-2.86.18-.68-.14-.71-.23-2.21-.06-1.17-.11-2,.27-2.88.55-1.26,1.32-1.15,2.24-2.74.2-.35.73-1.27.87-2.47.13-1.12-.07-2.47-.07-2.47,0,0,4.18,1.43,4.18,1.43,0,0,.09.94.02,1.49-.14,1.04-.96,1.32-1.65,2.52-.42.73-.52,1.43-.71,2.84-.36,2.63.21,2.63-.18,3.81-.7,2.07-2.51,2.17-3.04,4.17-.08.28-.1.52-.1.74.01,1.2.24,2.1.3,2.3.22.76-.15,2.23-2.89,5.38"/>
      <path class="cls-6" d="M81.04,104.13l58.59,26.33c2.1.94,3.01,3.4,2.04,5.5l-6.91,14.87c-.97,2.09-3.46,3.02-5.56,2.08l-58.59-26.33c-2.1-.94-3.01-3.4-2.04-5.5l6.91-14.87c.97-2.09,3.46-3.02,5.56-2.08Z"/>
      <path class="cls-6" d="M55.06,101.53c7.44,1.19,14.88,2.37,22.32,3.56-2.57,5.77-5.13,11.54-7.7,17.31-5.74-4.68-11.48-9.37-17.23-14.05.87-2.27,1.74-4.54,2.61-6.81Z"/>
      <path class="cls-5" d="M69.93,122.83c2.36-5.6,4.72-11.21,7.09-16.81"/>
      <ellipse class="cls-2" cx="102.67" cy="127.42" rx="6.61" ry="14.58" transform="translate(-55.5 169.34) rotate(-65.98)"/>
      <path class="cls-2" d="M75.54,128.79c.46-.28,1.08-.75,1.48-1.5.6-1.12.18-1.86.62-3.71.24-1,.4-1.65.91-2.4,1-1.47,2.09-1.45,2.54-2.63.25-.66-.08-.72-.01-2.22.05-1.18.09-2,.55-2.85.67-1.21,1.43-1.02,2.49-2.51.23-.32.85-1.2,1.1-2.38.24-1.1.17-2.47.17-2.47,0,0,4.02,1.83,4.02,1.83,0,0,0,.95-.12,1.49-.24,1.02-1.09,1.22-1.89,2.35-.49.69-.65,1.38-.98,2.76-.61,2.58-.04,2.64-.55,3.78-.9,2-2.7,1.93-3.43,3.86-.1.28-.15.51-.17.72-.11,1.2.04,2.11.08,2.32.15.77-.36,2.2-3.4,5.08"/>
      <path class="cls-2" d="M121.02,149.16c.46-.28,1.08-.75,1.48-1.5.6-1.12.18-1.86.62-3.71.24-1,.4-1.65.91-2.4,1-1.47,2.09-1.45,2.54-2.63.25-.66-.08-.72-.01-2.22.05-1.18.09-2,.55-2.85.67-1.21,1.43-1.02,2.49-2.51.23-.32.85-1.2,1.1-2.38.24-1.1.17-2.47.17-2.47,0,0,4.02,1.83,4.02,1.83,0,0,0,.95-.12,1.49-.24,1.02-1.09,1.22-1.89,2.35-.49.69-.65,1.38-.98,2.76-.61,2.58-.04,2.64-.55,3.78-.9,2-2.7,1.93-3.43,3.86-.1.28-.15.51-.17.72-.11,1.2.04,2.11.08,2.32.15.77-.36,2.2-3.4,5.08"/>
      <path class="cls-8" d="M67.14,127.77l56.49,30.45c2.02,1.09,2.76,3.61,1.64,5.63l-7.97,14.35c-1.12,2.02-3.67,2.77-5.69,1.68l-56.49-30.45c-2.02-1.09-2.76-3.61-1.64-5.63l7.97-14.35c1.12-2.02,3.67-2.77,5.69-1.68Z"/>
      <path class="cls-8" d="M41.44,123.33c7.33,1.71,14.66,3.42,21.99,5.14-2.98,5.58-5.95,11.15-8.93,16.73-5.38-5.08-10.77-10.17-16.15-15.25,1.03-2.2,2.06-4.41,3.1-6.61Z"/>
      <path class="cls-5" d="M54.71,145.65c2.76-5.43,5.52-10.85,8.28-16.28"/>
      <ellipse class="cls-2" cx="87.02" cy="152.56" rx="6.61" ry="14.56" transform="translate(-88.55 157.31) rotate(-61.85)"/>
      <path class="cls-2" d="M59.88,152c.48-.25,1.13-.67,1.59-1.39.68-1.07.31-1.84.89-3.66.31-.98.52-1.62,1.08-2.33,1.1-1.4,2.19-1.3,2.72-2.45.3-.64-.02-.72.15-2.22.13-1.17.23-1.99.76-2.8.75-1.16,1.49-.92,2.67-2.33.26-.31.93-1.14,1.27-2.29.32-1.08.34-2.45.34-2.45,0,0,3.87,2.11,3.87,2.11,0,0-.07.95-.23,1.48-.31,1-1.17,1.14-2.05,2.21-.54.65-.75,1.33-1.17,2.68-.8,2.54-.23,2.64-.82,3.73-1.04,1.93-2.83,1.73-3.7,3.61-.12.27-.19.5-.23.71-.19,1.19-.12,2.11-.09,2.32.09.78-.52,2.17-3.75,4.83"/>
      <path class="cls-2" d="M103.74,175.57c.48-.25,1.13-.67,1.59-1.39.68-1.07.31-1.84.89-3.66.31-.98.52-1.62,1.08-2.33,1.1-1.4,2.19-1.3,2.72-2.45.3-.64-.02-.72.15-2.22.13-1.17.23-1.99.76-2.8.75-1.16,1.49-.92,2.67-2.33.26-.31.93-1.14,1.27-2.29.32-1.08.34-2.45.34-2.45,0,0,3.87,2.11,3.87,2.11,0,0-.07.95-.23,1.48-.31,1-1.17,1.14-2.05,2.21-.54.65-.75,1.33-1.17,2.68-.8,2.54-.23,2.64-.82,3.73-1.04,1.93-2.83,1.73-3.7,3.61-.12.27-.19.5-.23.71-.19,1.19-.12,2.11-.09,2.32.09.78-.52,2.17-3.75,4.83"/>
      <path class="cls-1" d="M50.77,154.51l43.46,46.93c1.56,1.68,1.43,4.31-.28,5.87l-12.17,11.1c-1.71,1.56-4.36,1.46-5.92-.22l-43.46-46.93c-1.56-1.68-1.43-4.31.28-5.87l12.17-11.1c1.71-1.56,4.36-1.46,5.92.22Z"/>
      <path class="cls-1" d="M27.95,142.11c6.36,3.96,12.73,7.92,19.09,11.88-4.62,4.35-9.23,8.7-13.85,13.05-3.44-6.55-6.87-13.09-10.31-19.64,1.69-1.77,3.38-3.53,5.06-5.3Z"/>
      <path class="cls-5" d="M33.25,167.54c4.36-4.28,8.72-8.55,13.09-12.83"/>
      <ellipse class="cls-2" cx="61.51" cy="184.39" rx="6.64" ry="14.51" transform="translate(-109.1 91.24) rotate(-42.92)"/>
      <path class="cls-2" d="M36.07,175.22c.53-.08,1.28-.28,1.95-.82.99-.8.89-1.65,2.02-3.19.61-.83,1.01-1.38,1.77-1.87,1.49-.98,2.49-.53,3.36-1.46.49-.52.21-.69.86-2.06.51-1.07.86-1.82,1.62-2.42,1.08-.86,1.71-.4,3.27-1.37.34-.21,1.25-.78,1.94-1.77.65-.93,1.12-2.22,1.12-2.22,0,0,2.97,3.24,2.97,3.24,0,0-.37.88-.7,1.33-.62.85-1.48.71-2.65,1.45-.72.45-1.14,1.02-1.98,2.18-1.57,2.16-1.07,2.43-1.99,3.29-1.6,1.51-3.24.74-4.66,2.25-.2.22-.34.41-.44.6-.57,1.07-.79,1.97-.84,2.18-.17.77-1.2,1.9-5.11,3.39"/>
      <path class="cls-2" d="M69.84,211.58c.53-.08,1.28-.28,1.95-.82.99-.8.89-1.65,2.02-3.19.61-.83,1.01-1.38,1.77-1.87,1.49-.98,2.49-.53,3.36-1.46.49-.52.21-.69.86-2.06.51-1.07.86-1.82,1.62-2.42,1.08-.86,1.71-.4,3.27-1.37.34-.21,1.25-.78,1.94-1.77.65-.93,1.12-2.22,1.12-2.22,0,0,2.97,3.24,2.97,3.24,0,0-.37.88-.7,1.33-.62.85-1.48.71-2.65,1.45-.72.45-1.14,1.02-1.98,2.18-1.57,2.16-1.07,2.43-1.99,3.29-1.6,1.51-3.24.74-4.66,2.25-.2.22-.34.41-.44.6-.57,1.07-.79,1.97-.84,2.18-.17.77-1.2,1.9-5.11,3.39"/>
    </g>
  </g>
</svg>