<?xml version="1.0" encoding="UTF-8"?>
<svg xmlns="http://www.w3.org/2000/svg" version="1.1" viewBox="0 0 224 261">
  <defs>
    <style>
      .cls-1 {
        fill: #3d92aa;
      }

      .cls-2 {
        fill: #090c0c;
      }

      .cls-3 {
        fill: #dac3da;
      }

      .cls-4, .cls-5 {
        fill: #f3db6a;
      }

      .cls-5 {
        stroke: #231f20;
        stroke-miterlimit: 10;
      }

      .cls-6 {
        fill: #f7983e;
      }

      .cls-7 {
        fill: #f7a690;
      }
    </style>
  </defs>
  <!-- Generator: Adobe Illustrator 28.7.1, SVG Export Plug-In . SVG Version: 1.2.0 Build 142)  -->
  <g>
    <g id="Layer_1">
      <path class="cls-3" d="M37.9,84.97"/>
      <path class="cls-1" d="M71.4,160.32l42.98,48.03c1.54,1.72,4.1,1.77,5.71.11l11.47-11.81c1.61-1.66,1.67-4.4.13-6.12l-42.98-48.03c-1.54-1.72-4.1-1.77-5.71-.11l-11.47,11.81c-1.61,1.66-1.67,4.4-.13,6.12Z"/>
      <path class="cls-1" d="M60.7,135.93c3.47,6.84,6.94,13.67,10.41,20.51l13.46-13.41c-6.15-3.99-12.3-7.98-18.44-11.97-1.81,1.62-3.62,3.25-5.43,4.87Z"/>
      <path class="cls-1" d="M99.18,208.11"/>
      <path class="cls-5" d="M85.05,143.11c-4.4,4.21-8.8,8.43-13.2,12.64"/>
      <path class="cls-5" d="M113.3,206.36c5.75-5.43,11.51-10.86,17.26-16.3"/>
      <path class="cls-2" d="M95.13,178.18c5.39,6.02,11.82,8.77,14.38,6.14,2.55-2.63.26-9.64-5.13-15.66-5.39-6.02-11.82-8.77-14.38-6.14-2.55,2.63-.26,9.64,5.13,15.66Z"/>
      <path class="cls-2" d="M92.34,146.55c-.11.55-.34,1.3-.91,1.96-.84.97-1.65.81-3.21,1.87-.84.58-1.39.95-1.92,1.71-1.03,1.47-.66,2.53-1.61,3.37-.53.47-.68.17-2.05.75-1.07.45-1.81.77-2.44,1.51-.9,1.06-.49,1.74-1.51,3.28-.22.34-.83,1.23-1.83,1.89-.94.61-2.22,1.01-2.22,1.01,0,0,2.97,3.29,2.97,3.29,0,0,.87-.32,1.33-.63.86-.58.78-1.48,1.56-2.64.48-.71,1.06-1.1,2.22-1.89,2.18-1.48,2.42-.94,3.3-1.83,1.55-1.55.91-3.29,2.46-4.66.22-.2.42-.32.61-.42,1.07-.51,1.95-.69,2.16-.72.76-.12,1.91-1.11,3.59-5.04"/>
      <path class="cls-2" d="M125.63,183.86c-.11.55-.34,1.3-.91,1.96-.84.97-1.65.81-3.21,1.87-.84.58-1.39.95-1.92,1.71-1.03,1.47-.66,2.53-1.61,3.37-.53.47-.68.17-2.05.75-1.07.45-1.81.77-2.44,1.51-.9,1.06-.49,1.74-1.51,3.28-.22.34-.83,1.23-1.83,1.89-.94.61-2.22,1.01-2.22,1.01,0,0,2.97,3.29,2.97,3.29,0,0,.87-.32,1.33-.63.86-.58.78-1.48,1.56-2.64.48-.71,1.06-1.1,2.22-1.89,2.18-1.48,2.42-.94,3.3-1.83,1.55-1.55.91-3.29,2.46-4.66.22-.2.42-.32.61-.42,1.07-.51,1.95-.69,2.16-.72.76-.12,1.91-1.11,3.59-5.04"/>
      <path class="cls-4" d="M88.38,138.65l42.98,48.03c1.54,1.72,4.1,1.77,5.71.11l11.47-11.81c1.61-1.66,1.67-4.4.13-6.12l-42.98-48.03c-1.54-1.72-4.1-1.77-5.71-.11l-11.47,11.81c-1.61,1.66-1.67,4.4-.13,6.12Z"/>
      <path class="cls-4" d="M77.67,114.26c3.47,6.84,6.94,13.67,10.41,20.51,4.49-4.47,8.98-8.94,13.46-13.41-6.15-3.99-12.3-7.98-18.44-11.97-1.81,1.62-3.62,3.25-5.43,4.87Z"/>
      <path class="cls-5" d="M102.03,121.44c-4.4,4.21-8.8,8.43-13.2,12.64"/>
      <path class="cls-5" d="M130.28,184.69c5.75-5.43,11.51-10.86,17.26-16.3"/>
      <path class="cls-2" d="M112.11,156.51c5.39,6.02,11.82,8.77,14.38,6.14s.26-9.64-5.13-15.66c-5.39-6.02-11.82-8.77-14.38-6.14s-.26,9.64,5.13,15.66Z"/>
      <path class="cls-2" d="M109.31,124.88c-.11.55-.34,1.3-.91,1.96-.84.97-1.65.81-3.21,1.87-.84.58-1.39.95-1.92,1.71-1.03,1.47-.66,2.53-1.61,3.37-.53.47-.68.17-2.05.75-1.07.45-1.81.77-2.44,1.51-.9,1.06-.49,1.74-1.51,3.28-.22.34-.83,1.23-1.83,1.89-.94.61-2.22,1.01-2.22,1.01,0,0,2.97,3.29,2.97,3.29,0,0,.87-.32,1.33-.63.86-.58.78-1.48,1.56-2.64.48-.71,1.06-1.1,2.22-1.89,2.18-1.48,2.42-.94,3.3-1.83,1.55-1.55.91-3.29,2.46-4.66.22-.2.42-.32.61-.42,1.07-.51,1.95-.69,2.16-.72.76-.12,1.91-1.11,3.59-5.04"/>
      <path class="cls-2" d="M142.61,162.19c-.11.55-.34,1.3-.91,1.96-.84.97-1.65.81-3.21,1.87-.84.58-1.39.95-1.92,1.71-1.03,1.47-.66,2.53-1.61,3.37-.53.47-.68.17-2.05.75-1.07.45-1.81.77-2.44,1.51-.9,1.06-.49,1.74-1.51,3.28-.22.34-.83,1.23-1.83,1.89-.94.61-2.22,1.01-2.22,1.01,0,0,2.97,3.29,2.97,3.29,0,0,.87-.32,1.33-.63.86-.58.78-1.48,1.56-2.64.48-.71,1.06-1.1,2.22-1.89,2.18-1.48,2.42-.94,3.3-1.83,1.55-1.55.91-3.29,2.46-4.66.22-.2.42-.32.61-.42,1.07-.51,1.95-.69,2.16-.72.76-.12,1.91-1.11,3.59-5.04"/>
      <path class="cls-7" d="M49.49,176.74l42.98,48.03c1.54,1.72,4.1,1.77,5.71.11l11.47-11.81c1.61-1.66,1.67-4.4.13-6.12l-42.98-48.03c-1.54-1.72-4.1-1.77-5.71-.11l-11.47,11.81c-1.61,1.66-1.67,4.4-.13,6.12Z"/>
      <path class="cls-7" d="M38.79,152.35c3.47,6.84,6.94,13.67,10.41,20.51,4.49-4.47,8.98-8.94,13.46-13.41-6.15-3.99-12.3-7.98-18.44-11.97-1.81,1.62-3.62,3.25-5.43,4.87Z"/>
      <path class="cls-5" d="M63.14,159.54c-4.4,4.21-8.8,8.43-13.2,12.64"/>
      <path class="cls-5" d="M91.4,222.78c5.75-5.43,11.51-10.86,17.26-16.3"/>
      <path class="cls-2" d="M73.22,194.6c5.39,6.02,11.82,8.77,14.38,6.14s.26-9.64-5.13-15.66c-5.39-6.02-11.82-8.77-14.38-6.14-2.55,2.63-.26,9.64,5.13,15.66Z"/>
      <path class="cls-2" d="M70.43,162.97c-.11.55-.34,1.3-.91,1.96-.84.97-1.65.81-3.21,1.87-.84.58-1.39.95-1.92,1.71-1.03,1.47-.66,2.53-1.61,3.37-.53.47-.68.17-2.05.75-1.07.45-1.81.77-2.44,1.51-.9,1.06-.49,1.74-1.51,3.28-.22.34-.83,1.23-1.83,1.89-.94.61-2.22,1.01-2.22,1.01,0,0,2.97,3.29,2.97,3.29,0,0,.87-.32,1.33-.63.86-.58.78-1.48,1.56-2.64.48-.71,1.06-1.1,2.22-1.89,2.18-1.48,2.42-.94,3.3-1.83,1.55-1.55.91-3.29,2.46-4.66.22-.2.42-.32.61-.42,1.07-.51,1.95-.69,2.16-.72.76-.12,1.91-1.11,3.59-5.04"/>
      <path class="cls-2" d="M103.72,200.28c-.11.55-.34,1.3-.91,1.96-.84.97-1.65.81-3.21,1.87-.84.58-1.39.95-1.92,1.71-1.03,1.47-.66,2.53-1.61,3.37-.53.47-.68.17-2.05.75-1.07.45-1.81.77-2.44,1.51-.9,1.06-.49,1.74-1.51,3.28-.22.34-.83,1.23-1.83,1.89-.94.61-2.22,1.01-2.22,1.01,0,0,2.97,3.29,2.97,3.29,0,0,.87-.32,1.33-.63.86-.58.78-1.48,1.56-2.64.48-.71,1.06-1.1,2.22-1.89,2.18-1.48,2.42-.94,3.3-1.83,1.55-1.55.91-3.29,2.46-4.66.22-.2.42-.32.61-.42,1.07-.51,1.95-.69,2.16-.72.76-.12,1.91-1.11,3.59-5.04"/>
      <path class="cls-4" d="M28.54,193.7l42.98,48.03c1.54,1.72,4.1,1.77,5.71.11l11.47-11.81c1.61-1.66,1.67-4.4.13-6.12l-42.98-48.03c-1.54-1.72-4.1-1.77-5.71-.11l-11.47,11.81c-1.61,1.66-1.67,4.4-.13,6.12Z"/>
      <path class="cls-4" d="M17.84,169.31c3.47,6.84,6.94,13.67,10.41,20.51,4.49-4.47,8.98-8.94,13.46-13.41-6.15-3.99-12.3-7.98-18.44-11.97-1.81,1.62-3.62,3.25-5.43,4.87Z"/>
      <path class="cls-5" d="M42.19,176.49c-4.4,4.21-8.8,8.43-13.2,12.64"/>
      <path class="cls-5" d="M70.45,239.74c5.75-5.43,11.51-10.86,17.26-16.3"/>
      <path class="cls-2" d="M52.27,211.56c5.39,6.02,11.82,8.77,14.38,6.14,2.55-2.63.26-9.64-5.13-15.66-5.39-6.02-11.82-8.77-14.38-6.14s-.26,9.64,5.13,15.66Z"/>
      <path class="cls-2" d="M49.48,179.93c-.11.55-.34,1.3-.91,1.96-.84.97-1.65.81-3.21,1.87-.84.58-1.39.95-1.92,1.71-1.03,1.47-.66,2.53-1.61,3.37-.53.47-.68.17-2.05.75-1.07.45-1.81.77-2.44,1.51-.9,1.06-.49,1.74-1.51,3.28-.22.34-.83,1.23-1.83,1.89-.94.61-2.22,1.01-2.22,1.01,0,0,2.97,3.29,2.97,3.29,0,0,.87-.32,1.33-.63.86-.58.78-1.48,1.56-2.64.48-.71,1.06-1.1,2.22-1.89,2.18-1.48,2.42-.94,3.3-1.83,1.55-1.55.91-3.29,2.46-4.66.22-.2.42-.32.61-.42,1.07-.51,1.95-.69,2.16-.72.76-.12,1.91-1.11,3.59-5.04"/>
      <path class="cls-2" d="M82.77,217.24c-.11.55-.34,1.3-.91,1.96-.84.97-1.65.81-3.21,1.87-.84.58-1.39.95-1.92,1.71-1.03,1.47-.66,2.53-1.61,3.37-.53.47-.68.17-2.05.75-1.07.45-1.81.77-2.44,1.51-.9,1.06-.49,1.74-1.51,3.28-.22.34-.83,1.23-1.83,1.89-.94.61-2.22,1.01-2.22,1.01,0,0,2.97,3.29,2.97,3.29,0,0,.87-.32,1.33-.63.86-.58.78-1.48,1.56-2.64.48-.71,1.06-1.1,2.22-1.89,2.18-1.48,2.42-.94,3.3-1.83,1.55-1.55.91-3.29,2.46-4.66.22-.2.42-.32.61-.42,1.07-.51,1.95-.69,2.16-.72.76-.12,1.91-1.11,3.59-5.04"/>
      <path class="cls-6" d="M106.55,117.85l47.11,43.35c1.69,1.55,4.24,1.34,5.7-.48l10.36-12.93c1.46-1.82,1.27-4.55-.42-6.11l-47.11-43.35c-1.69-1.55-4.24-1.34-5.7.48l-10.36,12.93c-1.46,1.82-1.27,4.55.42,6.11Z"/>
      <path class="cls-6" d="M93.7,94.69c4.07,6.44,8.14,12.89,12.21,19.33l12.2-14.73c-6.48-3.33-12.96-6.67-19.44-10-1.66,1.8-3.32,3.6-4.97,5.4Z"/>
      <path class="cls-5" d="M118.6,99.33c-4,4.65-8.01,9.29-12.01,13.94"/>
      <path class="cls-2" d="M131.78,133.17c5.9,5.43,12.56,7.51,14.87,4.63s-.61-9.62-6.51-15.05c-5.9-5.43-12.56-7.51-14.87-4.63s.61,9.62,6.51,15.05Z"/>
      <path class="cls-2" d="M126.16,101.99c-.06.55-.22,1.33-.73,2.04-.75,1.05-1.57.97-3.03,2.2-.78.66-1.3,1.09-1.76,1.89-.9,1.57-.43,2.59-1.3,3.52-.49.52-.67.24-1.97.96-1.02.56-1.74.95-2.3,1.75-.8,1.15-.33,1.78-1.21,3.42-.19.36-.72,1.31-1.66,2.07-.88.71-2.12,1.23-2.12,1.23,0,0,3.25,2.96,3.25,2.96,0,0,.84-.41,1.27-.76.81-.67.64-1.55,1.32-2.79.41-.76.96-1.21,2.05-2.11,2.04-1.7,2.32-1.19,3.12-2.16,1.41-1.71.61-3.37,2.03-4.89.2-.22.39-.37.57-.48,1.02-.62,1.88-.88,2.09-.94.75-.2,1.8-1.3,3.12-5.39"/>
      <path class="cls-2" d="M162.66,135.68c-.06.55-.22,1.33-.73,2.04-.75,1.05-1.57.97-3.03,2.2-.78.66-1.3,1.09-1.76,1.89-.9,1.57-.43,2.59-1.3,3.52-.49.52-.67.24-1.97.96-1.02.56-1.74.95-2.3,1.75-.8,1.15-.33,1.78-1.21,3.42-.19.36-.72,1.31-1.66,2.07-.88.71-2.12,1.23-2.12,1.23,0,0,3.25,2.96,3.25,2.96,0,0,.84-.41,1.27-.76.81-.67.64-1.55,1.32-2.79.41-.76.96-1.21,2.05-2.11,2.04-1.7,2.32-1.19,3.12-2.16,1.41-1.71.61-3.37,2.03-4.89.2-.22.39-.37.57-.48,1.02-.62,1.88-.88,2.09-.94.75-.2,1.8-1.3,3.12-5.39"/>
      <path class="cls-7" d="M121.85,94.58l49.91,39.6c1.79,1.42,4.32,1.01,5.65-.92l9.48-13.69c1.33-1.93.96-4.64-.83-6.06l-49.91-39.6c-1.79-1.42-4.32-1.01-5.65.92l-9.48,13.69c-1.33,1.93-.96,4.64.83,6.06Z"/>
      <path class="cls-7" d="M107.48,72.47c4.49,6.11,8.98,12.22,13.48,18.33,3.73-5.21,7.46-10.42,11.19-15.63-6.69-2.83-13.38-5.65-20.07-8.48-1.53,1.92-3.07,3.85-4.6,5.77Z"/>
      <path class="cls-5" d="M132.63,75.18c-3.68,4.94-7.37,9.88-11.05,14.82"/>
      <path class="cls-2" d="M148.05,107.91c6.25,4.96,13.03,6.52,15.14,3.47,2.11-3.05-1.25-9.54-7.51-14.5s-13.03-6.52-15.14-3.47,1.25,9.54,7.51,14.5Z"/>
      <path class="cls-2" d="M140.36,77.25c-.02.56-.14,1.35-.59,2.09-.67,1.1-1.5,1.09-2.88,2.42-.74.72-1.23,1.19-1.63,2.02-.79,1.64-.26,2.62-1.06,3.61-.45.56-.65.29-1.9,1.1-.98.63-1.67,1.08-2.17,1.93-.72,1.21-.21,1.8-.98,3.51-.17.37-.63,1.36-1.52,2.19-.83.77-2.03,1.39-2.03,1.39,0,0,3.44,2.71,3.44,2.71,0,0,.81-.47,1.22-.86.76-.73.54-1.59,1.13-2.88.36-.78.87-1.28,1.9-2.26,1.92-1.85,2.24-1.36,2.97-2.39,1.29-1.81.38-3.4,1.7-5.03.19-.23.36-.4.54-.52.98-.7,1.82-1.03,2.02-1.1.73-.25,1.71-1.43,2.75-5.61"/>
      <path class="cls-2" d="M179.03,108.03c-.02.56-.14,1.35-.59,2.09-.67,1.1-1.5,1.09-2.88,2.42-.74.72-1.23,1.19-1.63,2.02-.79,1.64-.26,2.62-1.06,3.61-.45.56-.65.29-1.9,1.1-.98.63-1.67,1.08-2.17,1.93-.72,1.21-.21,1.8-.98,3.51-.17.37-.63,1.36-1.52,2.19-.83.77-2.03,1.39-2.03,1.39,0,0,3.44,2.71,3.44,2.71,0,0,.81-.47,1.22-.86.76-.73.54-1.59,1.13-2.88.36-.78.87-1.28,1.9-2.26,1.92-1.85,2.24-1.36,2.97-2.39,1.29-1.81.38-3.4,1.7-5.03.19-.23.36-.4.54-.52.98-.7,1.82-1.03,2.02-1.1.73-.25,1.71-1.43,2.75-5.61"/>
      <path class="cls-1" d="M138.88,67.64l59.2,20.25c2.12.73,4.4-.53,5.09-2.81l4.89-16.21c.69-2.28-.47-4.72-2.6-5.44l-59.2-20.25c-2.12-.73-4.4.53-5.09,2.81l-4.89,16.21c-.69,2.28.47,4.72,2.6,5.44Z"/>
      <path class="cls-1" d="M118.63,51.68c6.09,4.23,12.18,8.46,18.27,12.69,1.98-6.21,3.96-12.42,5.94-18.63-7.19-.37-14.38-.74-21.58-1.1-.88,2.35-1.76,4.69-2.64,7.04Z"/>
      <path class="cls-5" d="M143.3,45.58c-2.02,5.94-4.03,11.88-6.05,17.82"/>
      <ellipse class="cls-2" cx="169.7" cy="64.68" rx="6.82" ry="14.2" transform="translate(52.05 203.04) rotate(-70.49)"/>
      <path class="cls-2" d="M151.25,44.88c.14.53.27,1.32.07,2.18-.31,1.28-1.1,1.55-2,3.28-.49.93-.81,1.55-.94,2.47-.26,1.82.54,2.56.07,3.78-.26.68-.53.5-1.48,1.7-.74.94-1.26,1.6-1.49,2.57-.32,1.39.34,1.77.12,3.65-.05.41-.19,1.51-.78,2.59-.56,1.01-1.51,2.01-1.51,2.01,0,0,4.07,1.37,4.07,1.37,0,0,.63-.73.9-1.23.5-.95.03-1.69.21-3.11.11-.87.45-1.51,1.12-2.8,1.27-2.41,1.72-2.06,2.1-3.29.68-2.16-.66-3.35.1-5.34.11-.28.23-.5.35-.68.72-1,1.42-1.6,1.59-1.73.62-.49,1.2-1.94.93-6.25"/>
      <path class="cls-2" d="M197.16,60.66c.14.53.27,1.32.07,2.18-.31,1.28-1.1,1.55-2,3.28-.49.93-.81,1.55-.94,2.47-.26,1.82.54,2.56.07,3.78-.26.68-.53.5-1.48,1.7-.74.94-1.26,1.6-1.49,2.57-.32,1.39.34,1.77.12,3.65-.05.41-.19,1.51-.78,2.59-.56,1.01-1.51,2.01-1.51,2.01,0,0,4.07,1.37,4.07,1.37,0,0,.63-.73.9-1.23.5-.95.03-1.69.21-3.11.11-.87.45-1.51,1.12-2.8,1.27-2.41,1.72-2.06,2.1-3.29.68-2.16-.66-3.35.1-5.34.11-.28.23-.5.35-.68.72-1,1.42-1.6,1.59-1.73.62-.49,1.2-1.94.93-6.25"/>
    </g>
  </g>
</svg>